G04 #@! TF.GenerationSoftware,KiCad,Pcbnew,5.0.2-bee76a0~70~ubuntu18.04.1*
G04 #@! TF.CreationDate,2018-12-19T04:14:58+09:00*
G04 #@! TF.ProjectId,pendant,70656e64-616e-4742-9e6b-696361645f70,rev?*
G04 #@! TF.SameCoordinates,Original*
G04 #@! TF.FileFunction,Soldermask,Top*
G04 #@! TF.FilePolarity,Negative*
%FSLAX46Y46*%
G04 Gerber Fmt 4.6, Leading zero omitted, Abs format (unit mm)*
G04 Created by KiCad (PCBNEW 5.0.2-bee76a0~70~ubuntu18.04.1) date 2018年12月19日 04時14分58秒*
%MOMM*%
%LPD*%
G01*
G04 APERTURE LIST*
%ADD10C,0.100000*%
G04 APERTURE END LIST*
D10*
G36*
X141988196Y-124352523D02*
X142037268Y-124362284D01*
X142175943Y-124419725D01*
X142300751Y-124503119D01*
X142406883Y-124609251D01*
X142490277Y-124734059D01*
X142547718Y-124872735D01*
X142577001Y-125019949D01*
X142577001Y-125170053D01*
X142547718Y-125317267D01*
X142490277Y-125455943D01*
X142406883Y-125580751D01*
X142300751Y-125686883D01*
X142300748Y-125686885D01*
X142175943Y-125770277D01*
X142037268Y-125827718D01*
X141988196Y-125837479D01*
X141890053Y-125857001D01*
X141739949Y-125857001D01*
X141641806Y-125837479D01*
X141592734Y-125827718D01*
X141454059Y-125770277D01*
X141329254Y-125686885D01*
X141329251Y-125686883D01*
X141223119Y-125580751D01*
X141139725Y-125455943D01*
X141082284Y-125317267D01*
X141053001Y-125170053D01*
X141053001Y-125019949D01*
X141082284Y-124872735D01*
X141139725Y-124734059D01*
X141223119Y-124609251D01*
X141329251Y-124503119D01*
X141454059Y-124419725D01*
X141592734Y-124362284D01*
X141641806Y-124352523D01*
X141739949Y-124333001D01*
X141890053Y-124333001D01*
X141988196Y-124352523D01*
X141988196Y-124352523D01*
G37*
G36*
X124208196Y-124352523D02*
X124257268Y-124362284D01*
X124395943Y-124419725D01*
X124520751Y-124503119D01*
X124626883Y-124609251D01*
X124710277Y-124734059D01*
X124767718Y-124872735D01*
X124797001Y-125019949D01*
X124797001Y-125170053D01*
X124767718Y-125317267D01*
X124710277Y-125455943D01*
X124626883Y-125580751D01*
X124520751Y-125686883D01*
X124520748Y-125686885D01*
X124395943Y-125770277D01*
X124257268Y-125827718D01*
X124208196Y-125837479D01*
X124110053Y-125857001D01*
X123959949Y-125857001D01*
X123861806Y-125837479D01*
X123812734Y-125827718D01*
X123674059Y-125770277D01*
X123549254Y-125686885D01*
X123549251Y-125686883D01*
X123443119Y-125580751D01*
X123359725Y-125455943D01*
X123302284Y-125317267D01*
X123273001Y-125170053D01*
X123273001Y-125019949D01*
X123302284Y-124872735D01*
X123359725Y-124734059D01*
X123443119Y-124609251D01*
X123549251Y-124503119D01*
X123674059Y-124419725D01*
X123812734Y-124362284D01*
X123861806Y-124352523D01*
X123959949Y-124333001D01*
X124110053Y-124333001D01*
X124208196Y-124352523D01*
X124208196Y-124352523D01*
G37*
G36*
X124208196Y-121812523D02*
X124257268Y-121822284D01*
X124395943Y-121879725D01*
X124520751Y-121963119D01*
X124626883Y-122069251D01*
X124710277Y-122194059D01*
X124767718Y-122332735D01*
X124797001Y-122479949D01*
X124797001Y-122630053D01*
X124767718Y-122777267D01*
X124710277Y-122915943D01*
X124626883Y-123040751D01*
X124520751Y-123146883D01*
X124520748Y-123146885D01*
X124395943Y-123230277D01*
X124257268Y-123287718D01*
X124208196Y-123297479D01*
X124110053Y-123317001D01*
X123959949Y-123317001D01*
X123861806Y-123297479D01*
X123812734Y-123287718D01*
X123674059Y-123230277D01*
X123549254Y-123146885D01*
X123549251Y-123146883D01*
X123443119Y-123040751D01*
X123359725Y-122915943D01*
X123302284Y-122777267D01*
X123273001Y-122630053D01*
X123273001Y-122479949D01*
X123302284Y-122332735D01*
X123359725Y-122194059D01*
X123443119Y-122069251D01*
X123549251Y-121963119D01*
X123674059Y-121879725D01*
X123812734Y-121822284D01*
X123861806Y-121812523D01*
X123959949Y-121793001D01*
X124110053Y-121793001D01*
X124208196Y-121812523D01*
X124208196Y-121812523D01*
G37*
G36*
X141988196Y-121812523D02*
X142037268Y-121822284D01*
X142175943Y-121879725D01*
X142300751Y-121963119D01*
X142406883Y-122069251D01*
X142490277Y-122194059D01*
X142547718Y-122332735D01*
X142577001Y-122479949D01*
X142577001Y-122630053D01*
X142547718Y-122777267D01*
X142490277Y-122915943D01*
X142406883Y-123040751D01*
X142300751Y-123146883D01*
X142300748Y-123146885D01*
X142175943Y-123230277D01*
X142037268Y-123287718D01*
X141988196Y-123297479D01*
X141890053Y-123317001D01*
X141739949Y-123317001D01*
X141641806Y-123297479D01*
X141592734Y-123287718D01*
X141454059Y-123230277D01*
X141329254Y-123146885D01*
X141329251Y-123146883D01*
X141223119Y-123040751D01*
X141139725Y-122915943D01*
X141082284Y-122777267D01*
X141053001Y-122630053D01*
X141053001Y-122479949D01*
X141082284Y-122332735D01*
X141139725Y-122194059D01*
X141223119Y-122069251D01*
X141329251Y-121963119D01*
X141454059Y-121879725D01*
X141592734Y-121822284D01*
X141641806Y-121812523D01*
X141739949Y-121793001D01*
X141890053Y-121793001D01*
X141988196Y-121812523D01*
X141988196Y-121812523D01*
G37*
G36*
X124208196Y-119272523D02*
X124257268Y-119282284D01*
X124395943Y-119339725D01*
X124520751Y-119423119D01*
X124626883Y-119529251D01*
X124710277Y-119654059D01*
X124767718Y-119792735D01*
X124797001Y-119939949D01*
X124797001Y-120090053D01*
X124767718Y-120237267D01*
X124710277Y-120375943D01*
X124626883Y-120500751D01*
X124520751Y-120606883D01*
X124520748Y-120606885D01*
X124395943Y-120690277D01*
X124257268Y-120747718D01*
X124208196Y-120757479D01*
X124110053Y-120777001D01*
X123959949Y-120777001D01*
X123861806Y-120757479D01*
X123812734Y-120747718D01*
X123674059Y-120690277D01*
X123549254Y-120606885D01*
X123549251Y-120606883D01*
X123443119Y-120500751D01*
X123359725Y-120375943D01*
X123302284Y-120237267D01*
X123273001Y-120090053D01*
X123273001Y-119939949D01*
X123302284Y-119792735D01*
X123359725Y-119654059D01*
X123443119Y-119529251D01*
X123549251Y-119423119D01*
X123674059Y-119339725D01*
X123812734Y-119282284D01*
X123861806Y-119272523D01*
X123959949Y-119253001D01*
X124110053Y-119253001D01*
X124208196Y-119272523D01*
X124208196Y-119272523D01*
G37*
G36*
X141988196Y-119272523D02*
X142037268Y-119282284D01*
X142175943Y-119339725D01*
X142300751Y-119423119D01*
X142406883Y-119529251D01*
X142490277Y-119654059D01*
X142547718Y-119792735D01*
X142577001Y-119939949D01*
X142577001Y-120090053D01*
X142547718Y-120237267D01*
X142490277Y-120375943D01*
X142406883Y-120500751D01*
X142300751Y-120606883D01*
X142300748Y-120606885D01*
X142175943Y-120690277D01*
X142037268Y-120747718D01*
X141988196Y-120757479D01*
X141890053Y-120777001D01*
X141739949Y-120777001D01*
X141641806Y-120757479D01*
X141592734Y-120747718D01*
X141454059Y-120690277D01*
X141329254Y-120606885D01*
X141329251Y-120606883D01*
X141223119Y-120500751D01*
X141139725Y-120375943D01*
X141082284Y-120237267D01*
X141053001Y-120090053D01*
X141053001Y-119939949D01*
X141082284Y-119792735D01*
X141139725Y-119654059D01*
X141223119Y-119529251D01*
X141329251Y-119423119D01*
X141454059Y-119339725D01*
X141592734Y-119282284D01*
X141641806Y-119272523D01*
X141739949Y-119253001D01*
X141890053Y-119253001D01*
X141988196Y-119272523D01*
X141988196Y-119272523D01*
G37*
G36*
X141988196Y-116732523D02*
X142037268Y-116742284D01*
X142175943Y-116799725D01*
X142300751Y-116883119D01*
X142406883Y-116989251D01*
X142490277Y-117114059D01*
X142547718Y-117252735D01*
X142577001Y-117399949D01*
X142577001Y-117550053D01*
X142547718Y-117697267D01*
X142490277Y-117835943D01*
X142406883Y-117960751D01*
X142300751Y-118066883D01*
X142300748Y-118066885D01*
X142175943Y-118150277D01*
X142037268Y-118207718D01*
X141988196Y-118217479D01*
X141890053Y-118237001D01*
X141739949Y-118237001D01*
X141641806Y-118217479D01*
X141592734Y-118207718D01*
X141454059Y-118150277D01*
X141329254Y-118066885D01*
X141329251Y-118066883D01*
X141223119Y-117960751D01*
X141139725Y-117835943D01*
X141082284Y-117697267D01*
X141053001Y-117550053D01*
X141053001Y-117399949D01*
X141082284Y-117252735D01*
X141139725Y-117114059D01*
X141223119Y-116989251D01*
X141329251Y-116883119D01*
X141454059Y-116799725D01*
X141592734Y-116742284D01*
X141641806Y-116732523D01*
X141739949Y-116713001D01*
X141890053Y-116713001D01*
X141988196Y-116732523D01*
X141988196Y-116732523D01*
G37*
G36*
X124208196Y-116732523D02*
X124257268Y-116742284D01*
X124395943Y-116799725D01*
X124520751Y-116883119D01*
X124626883Y-116989251D01*
X124710277Y-117114059D01*
X124767718Y-117252735D01*
X124797001Y-117399949D01*
X124797001Y-117550053D01*
X124767718Y-117697267D01*
X124710277Y-117835943D01*
X124626883Y-117960751D01*
X124520751Y-118066883D01*
X124520748Y-118066885D01*
X124395943Y-118150277D01*
X124257268Y-118207718D01*
X124208196Y-118217479D01*
X124110053Y-118237001D01*
X123959949Y-118237001D01*
X123861806Y-118217479D01*
X123812734Y-118207718D01*
X123674059Y-118150277D01*
X123549254Y-118066885D01*
X123549251Y-118066883D01*
X123443119Y-117960751D01*
X123359725Y-117835943D01*
X123302284Y-117697267D01*
X123273001Y-117550053D01*
X123273001Y-117399949D01*
X123302284Y-117252735D01*
X123359725Y-117114059D01*
X123443119Y-116989251D01*
X123549251Y-116883119D01*
X123674059Y-116799725D01*
X123812734Y-116742284D01*
X123861806Y-116732523D01*
X123959949Y-116713001D01*
X124110053Y-116713001D01*
X124208196Y-116732523D01*
X124208196Y-116732523D01*
G37*
G36*
X141988196Y-114192523D02*
X142037268Y-114202284D01*
X142175943Y-114259725D01*
X142300751Y-114343119D01*
X142406883Y-114449251D01*
X142490277Y-114574059D01*
X142547718Y-114712735D01*
X142577001Y-114859949D01*
X142577001Y-115010053D01*
X142547718Y-115157267D01*
X142490277Y-115295943D01*
X142406883Y-115420751D01*
X142300751Y-115526883D01*
X142300748Y-115526885D01*
X142175943Y-115610277D01*
X142037268Y-115667718D01*
X141988196Y-115677479D01*
X141890053Y-115697001D01*
X141739949Y-115697001D01*
X141641806Y-115677479D01*
X141592734Y-115667718D01*
X141454059Y-115610277D01*
X141329254Y-115526885D01*
X141329251Y-115526883D01*
X141223119Y-115420751D01*
X141139725Y-115295943D01*
X141082284Y-115157267D01*
X141053001Y-115010053D01*
X141053001Y-114859949D01*
X141082284Y-114712735D01*
X141139725Y-114574059D01*
X141223119Y-114449251D01*
X141329251Y-114343119D01*
X141454059Y-114259725D01*
X141592734Y-114202284D01*
X141641806Y-114192523D01*
X141739949Y-114173001D01*
X141890053Y-114173001D01*
X141988196Y-114192523D01*
X141988196Y-114192523D01*
G37*
G36*
X124208196Y-114192523D02*
X124257268Y-114202284D01*
X124395943Y-114259725D01*
X124520751Y-114343119D01*
X124626883Y-114449251D01*
X124710277Y-114574059D01*
X124767718Y-114712735D01*
X124797001Y-114859949D01*
X124797001Y-115010053D01*
X124767718Y-115157267D01*
X124710277Y-115295943D01*
X124626883Y-115420751D01*
X124520751Y-115526883D01*
X124520748Y-115526885D01*
X124395943Y-115610277D01*
X124257268Y-115667718D01*
X124208196Y-115677479D01*
X124110053Y-115697001D01*
X123959949Y-115697001D01*
X123861806Y-115677479D01*
X123812734Y-115667718D01*
X123674059Y-115610277D01*
X123549254Y-115526885D01*
X123549251Y-115526883D01*
X123443119Y-115420751D01*
X123359725Y-115295943D01*
X123302284Y-115157267D01*
X123273001Y-115010053D01*
X123273001Y-114859949D01*
X123302284Y-114712735D01*
X123359725Y-114574059D01*
X123443119Y-114449251D01*
X123549251Y-114343119D01*
X123674059Y-114259725D01*
X123812734Y-114202284D01*
X123861806Y-114192523D01*
X123959949Y-114173001D01*
X124110053Y-114173001D01*
X124208196Y-114192523D01*
X124208196Y-114192523D01*
G37*
G36*
X124208196Y-111652523D02*
X124257268Y-111662284D01*
X124395943Y-111719725D01*
X124520751Y-111803119D01*
X124626883Y-111909251D01*
X124710277Y-112034059D01*
X124767718Y-112172735D01*
X124797001Y-112319949D01*
X124797001Y-112470053D01*
X124767718Y-112617267D01*
X124710277Y-112755943D01*
X124626883Y-112880751D01*
X124520751Y-112986883D01*
X124520748Y-112986885D01*
X124395943Y-113070277D01*
X124257268Y-113127718D01*
X124208196Y-113137479D01*
X124110053Y-113157001D01*
X123959949Y-113157001D01*
X123861806Y-113137479D01*
X123812734Y-113127718D01*
X123674059Y-113070277D01*
X123549254Y-112986885D01*
X123549251Y-112986883D01*
X123443119Y-112880751D01*
X123359725Y-112755943D01*
X123302284Y-112617267D01*
X123273001Y-112470053D01*
X123273001Y-112319949D01*
X123302284Y-112172735D01*
X123359725Y-112034059D01*
X123443119Y-111909251D01*
X123549251Y-111803119D01*
X123674059Y-111719725D01*
X123812734Y-111662284D01*
X123861806Y-111652523D01*
X123959949Y-111633001D01*
X124110053Y-111633001D01*
X124208196Y-111652523D01*
X124208196Y-111652523D01*
G37*
G36*
X141988196Y-111652523D02*
X142037268Y-111662284D01*
X142175943Y-111719725D01*
X142300751Y-111803119D01*
X142406883Y-111909251D01*
X142490277Y-112034059D01*
X142547718Y-112172735D01*
X142577001Y-112319949D01*
X142577001Y-112470053D01*
X142547718Y-112617267D01*
X142490277Y-112755943D01*
X142406883Y-112880751D01*
X142300751Y-112986883D01*
X142300748Y-112986885D01*
X142175943Y-113070277D01*
X142037268Y-113127718D01*
X141988196Y-113137479D01*
X141890053Y-113157001D01*
X141739949Y-113157001D01*
X141641806Y-113137479D01*
X141592734Y-113127718D01*
X141454059Y-113070277D01*
X141329254Y-112986885D01*
X141329251Y-112986883D01*
X141223119Y-112880751D01*
X141139725Y-112755943D01*
X141082284Y-112617267D01*
X141053001Y-112470053D01*
X141053001Y-112319949D01*
X141082284Y-112172735D01*
X141139725Y-112034059D01*
X141223119Y-111909251D01*
X141329251Y-111803119D01*
X141454059Y-111719725D01*
X141592734Y-111662284D01*
X141641806Y-111652523D01*
X141739949Y-111633001D01*
X141890053Y-111633001D01*
X141988196Y-111652523D01*
X141988196Y-111652523D01*
G37*
G36*
X124208196Y-109112523D02*
X124257268Y-109122284D01*
X124395943Y-109179725D01*
X124520751Y-109263119D01*
X124626883Y-109369251D01*
X124710277Y-109494059D01*
X124767718Y-109632735D01*
X124797001Y-109779949D01*
X124797001Y-109930053D01*
X124767718Y-110077267D01*
X124710277Y-110215943D01*
X124626883Y-110340751D01*
X124520751Y-110446883D01*
X124520748Y-110446885D01*
X124395943Y-110530277D01*
X124257268Y-110587718D01*
X124208196Y-110597479D01*
X124110053Y-110617001D01*
X123959949Y-110617001D01*
X123861806Y-110597479D01*
X123812734Y-110587718D01*
X123674059Y-110530277D01*
X123549254Y-110446885D01*
X123549251Y-110446883D01*
X123443119Y-110340751D01*
X123359725Y-110215943D01*
X123302284Y-110077267D01*
X123273001Y-109930053D01*
X123273001Y-109779949D01*
X123302284Y-109632735D01*
X123359725Y-109494059D01*
X123443119Y-109369251D01*
X123549251Y-109263119D01*
X123674059Y-109179725D01*
X123812734Y-109122284D01*
X123861806Y-109112523D01*
X123959949Y-109093001D01*
X124110053Y-109093001D01*
X124208196Y-109112523D01*
X124208196Y-109112523D01*
G37*
G36*
X141988196Y-109112523D02*
X142037268Y-109122284D01*
X142175943Y-109179725D01*
X142300751Y-109263119D01*
X142406883Y-109369251D01*
X142490277Y-109494059D01*
X142547718Y-109632735D01*
X142577001Y-109779949D01*
X142577001Y-109930053D01*
X142547718Y-110077267D01*
X142490277Y-110215943D01*
X142406883Y-110340751D01*
X142300751Y-110446883D01*
X142300748Y-110446885D01*
X142175943Y-110530277D01*
X142037268Y-110587718D01*
X141988196Y-110597479D01*
X141890053Y-110617001D01*
X141739949Y-110617001D01*
X141641806Y-110597479D01*
X141592734Y-110587718D01*
X141454059Y-110530277D01*
X141329254Y-110446885D01*
X141329251Y-110446883D01*
X141223119Y-110340751D01*
X141139725Y-110215943D01*
X141082284Y-110077267D01*
X141053001Y-109930053D01*
X141053001Y-109779949D01*
X141082284Y-109632735D01*
X141139725Y-109494059D01*
X141223119Y-109369251D01*
X141329251Y-109263119D01*
X141454059Y-109179725D01*
X141592734Y-109122284D01*
X141641806Y-109112523D01*
X141739949Y-109093001D01*
X141890053Y-109093001D01*
X141988196Y-109112523D01*
X141988196Y-109112523D01*
G37*
G36*
X124208196Y-106572523D02*
X124257268Y-106582284D01*
X124395943Y-106639725D01*
X124520751Y-106723119D01*
X124626883Y-106829251D01*
X124710277Y-106954059D01*
X124767718Y-107092735D01*
X124797001Y-107239949D01*
X124797001Y-107390053D01*
X124767718Y-107537267D01*
X124710277Y-107675943D01*
X124626883Y-107800751D01*
X124520751Y-107906883D01*
X124520748Y-107906885D01*
X124395943Y-107990277D01*
X124257268Y-108047718D01*
X124208196Y-108057479D01*
X124110053Y-108077001D01*
X123959949Y-108077001D01*
X123861806Y-108057479D01*
X123812734Y-108047718D01*
X123674059Y-107990277D01*
X123549254Y-107906885D01*
X123549251Y-107906883D01*
X123443119Y-107800751D01*
X123359725Y-107675943D01*
X123302284Y-107537267D01*
X123273001Y-107390053D01*
X123273001Y-107239949D01*
X123302284Y-107092735D01*
X123359725Y-106954059D01*
X123443119Y-106829251D01*
X123549251Y-106723119D01*
X123674059Y-106639725D01*
X123812734Y-106582284D01*
X123861806Y-106572523D01*
X123959949Y-106553001D01*
X124110053Y-106553001D01*
X124208196Y-106572523D01*
X124208196Y-106572523D01*
G37*
G36*
X141988196Y-106572523D02*
X142037268Y-106582284D01*
X142175943Y-106639725D01*
X142300751Y-106723119D01*
X142406883Y-106829251D01*
X142490277Y-106954059D01*
X142547718Y-107092735D01*
X142577001Y-107239949D01*
X142577001Y-107390053D01*
X142547718Y-107537267D01*
X142490277Y-107675943D01*
X142406883Y-107800751D01*
X142300751Y-107906883D01*
X142300748Y-107906885D01*
X142175943Y-107990277D01*
X142037268Y-108047718D01*
X141988196Y-108057479D01*
X141890053Y-108077001D01*
X141739949Y-108077001D01*
X141641806Y-108057479D01*
X141592734Y-108047718D01*
X141454059Y-107990277D01*
X141329254Y-107906885D01*
X141329251Y-107906883D01*
X141223119Y-107800751D01*
X141139725Y-107675943D01*
X141082284Y-107537267D01*
X141053001Y-107390053D01*
X141053001Y-107239949D01*
X141082284Y-107092735D01*
X141139725Y-106954059D01*
X141223119Y-106829251D01*
X141329251Y-106723119D01*
X141454059Y-106639725D01*
X141592734Y-106582284D01*
X141641806Y-106572523D01*
X141739949Y-106553001D01*
X141890053Y-106553001D01*
X141988196Y-106572523D01*
X141988196Y-106572523D01*
G37*
G36*
X141988196Y-104032523D02*
X142037268Y-104042284D01*
X142175943Y-104099725D01*
X142300751Y-104183119D01*
X142406883Y-104289251D01*
X142490277Y-104414059D01*
X142547718Y-104552735D01*
X142577001Y-104699949D01*
X142577001Y-104850053D01*
X142547718Y-104997267D01*
X142490277Y-105135943D01*
X142406883Y-105260751D01*
X142300751Y-105366883D01*
X142300748Y-105366885D01*
X142175943Y-105450277D01*
X142037268Y-105507718D01*
X141988196Y-105517479D01*
X141890053Y-105537001D01*
X141739949Y-105537001D01*
X141641806Y-105517479D01*
X141592734Y-105507718D01*
X141454059Y-105450277D01*
X141329254Y-105366885D01*
X141329251Y-105366883D01*
X141223119Y-105260751D01*
X141139725Y-105135943D01*
X141082284Y-104997267D01*
X141053001Y-104850053D01*
X141053001Y-104699949D01*
X141082284Y-104552735D01*
X141139725Y-104414059D01*
X141223119Y-104289251D01*
X141329251Y-104183119D01*
X141454059Y-104099725D01*
X141592734Y-104042284D01*
X141641806Y-104032523D01*
X141739949Y-104013001D01*
X141890053Y-104013001D01*
X141988196Y-104032523D01*
X141988196Y-104032523D01*
G37*
G36*
X124208196Y-104032523D02*
X124257268Y-104042284D01*
X124395943Y-104099725D01*
X124520751Y-104183119D01*
X124626883Y-104289251D01*
X124710277Y-104414059D01*
X124767718Y-104552735D01*
X124797001Y-104699949D01*
X124797001Y-104850053D01*
X124767718Y-104997267D01*
X124710277Y-105135943D01*
X124626883Y-105260751D01*
X124520751Y-105366883D01*
X124520748Y-105366885D01*
X124395943Y-105450277D01*
X124257268Y-105507718D01*
X124208196Y-105517479D01*
X124110053Y-105537001D01*
X123959949Y-105537001D01*
X123861806Y-105517479D01*
X123812734Y-105507718D01*
X123674059Y-105450277D01*
X123549254Y-105366885D01*
X123549251Y-105366883D01*
X123443119Y-105260751D01*
X123359725Y-105135943D01*
X123302284Y-104997267D01*
X123273001Y-104850053D01*
X123273001Y-104699949D01*
X123302284Y-104552735D01*
X123359725Y-104414059D01*
X123443119Y-104289251D01*
X123549251Y-104183119D01*
X123674059Y-104099725D01*
X123812734Y-104042284D01*
X123861806Y-104032523D01*
X123959949Y-104013001D01*
X124110053Y-104013001D01*
X124208196Y-104032523D01*
X124208196Y-104032523D01*
G37*
G36*
X124208196Y-101492523D02*
X124257268Y-101502284D01*
X124395943Y-101559725D01*
X124520751Y-101643119D01*
X124626883Y-101749251D01*
X124710277Y-101874059D01*
X124767718Y-102012735D01*
X124797001Y-102159949D01*
X124797001Y-102310053D01*
X124767718Y-102457267D01*
X124710277Y-102595943D01*
X124626883Y-102720751D01*
X124520751Y-102826883D01*
X124520748Y-102826885D01*
X124395943Y-102910277D01*
X124257268Y-102967718D01*
X124208196Y-102977479D01*
X124110053Y-102997001D01*
X123959949Y-102997001D01*
X123861806Y-102977479D01*
X123812734Y-102967718D01*
X123674059Y-102910277D01*
X123549254Y-102826885D01*
X123549251Y-102826883D01*
X123443119Y-102720751D01*
X123359725Y-102595943D01*
X123302284Y-102457267D01*
X123273001Y-102310053D01*
X123273001Y-102159949D01*
X123302284Y-102012735D01*
X123359725Y-101874059D01*
X123443119Y-101749251D01*
X123549251Y-101643119D01*
X123674059Y-101559725D01*
X123812734Y-101502284D01*
X123861806Y-101492523D01*
X123959949Y-101473001D01*
X124110053Y-101473001D01*
X124208196Y-101492523D01*
X124208196Y-101492523D01*
G37*
G36*
X141988196Y-101492523D02*
X142037268Y-101502284D01*
X142175943Y-101559725D01*
X142300751Y-101643119D01*
X142406883Y-101749251D01*
X142490277Y-101874059D01*
X142547718Y-102012735D01*
X142577001Y-102159949D01*
X142577001Y-102310053D01*
X142547718Y-102457267D01*
X142490277Y-102595943D01*
X142406883Y-102720751D01*
X142300751Y-102826883D01*
X142300748Y-102826885D01*
X142175943Y-102910277D01*
X142037268Y-102967718D01*
X141988196Y-102977479D01*
X141890053Y-102997001D01*
X141739949Y-102997001D01*
X141641806Y-102977479D01*
X141592734Y-102967718D01*
X141454059Y-102910277D01*
X141329254Y-102826885D01*
X141329251Y-102826883D01*
X141223119Y-102720751D01*
X141139725Y-102595943D01*
X141082284Y-102457267D01*
X141053001Y-102310053D01*
X141053001Y-102159949D01*
X141082284Y-102012735D01*
X141139725Y-101874059D01*
X141223119Y-101749251D01*
X141329251Y-101643119D01*
X141454059Y-101559725D01*
X141592734Y-101502284D01*
X141641806Y-101492523D01*
X141739949Y-101473001D01*
X141890053Y-101473001D01*
X141988196Y-101492523D01*
X141988196Y-101492523D01*
G37*
G36*
X124208196Y-98952523D02*
X124257268Y-98962284D01*
X124395943Y-99019725D01*
X124520751Y-99103119D01*
X124626883Y-99209251D01*
X124710277Y-99334059D01*
X124767718Y-99472735D01*
X124797001Y-99619949D01*
X124797001Y-99770053D01*
X124767718Y-99917267D01*
X124710277Y-100055943D01*
X124626883Y-100180751D01*
X124520751Y-100286883D01*
X124520748Y-100286885D01*
X124395943Y-100370277D01*
X124257268Y-100427718D01*
X124208196Y-100437479D01*
X124110053Y-100457001D01*
X123959949Y-100457001D01*
X123861806Y-100437479D01*
X123812734Y-100427718D01*
X123674059Y-100370277D01*
X123549254Y-100286885D01*
X123549251Y-100286883D01*
X123443119Y-100180751D01*
X123359725Y-100055943D01*
X123302284Y-99917267D01*
X123273001Y-99770053D01*
X123273001Y-99619949D01*
X123302284Y-99472735D01*
X123359725Y-99334059D01*
X123443119Y-99209251D01*
X123549251Y-99103119D01*
X123674059Y-99019725D01*
X123812734Y-98962284D01*
X123861806Y-98952523D01*
X123959949Y-98933001D01*
X124110053Y-98933001D01*
X124208196Y-98952523D01*
X124208196Y-98952523D01*
G37*
G36*
X141988196Y-98952523D02*
X142037268Y-98962284D01*
X142175943Y-99019725D01*
X142300751Y-99103119D01*
X142406883Y-99209251D01*
X142490277Y-99334059D01*
X142547718Y-99472735D01*
X142577001Y-99619949D01*
X142577001Y-99770053D01*
X142547718Y-99917267D01*
X142490277Y-100055943D01*
X142406883Y-100180751D01*
X142300751Y-100286883D01*
X142300748Y-100286885D01*
X142175943Y-100370277D01*
X142037268Y-100427718D01*
X141988196Y-100437479D01*
X141890053Y-100457001D01*
X141739949Y-100457001D01*
X141641806Y-100437479D01*
X141592734Y-100427718D01*
X141454059Y-100370277D01*
X141329254Y-100286885D01*
X141329251Y-100286883D01*
X141223119Y-100180751D01*
X141139725Y-100055943D01*
X141082284Y-99917267D01*
X141053001Y-99770053D01*
X141053001Y-99619949D01*
X141082284Y-99472735D01*
X141139725Y-99334059D01*
X141223119Y-99209251D01*
X141329251Y-99103119D01*
X141454059Y-99019725D01*
X141592734Y-98962284D01*
X141641806Y-98952523D01*
X141739949Y-98933001D01*
X141890053Y-98933001D01*
X141988196Y-98952523D01*
X141988196Y-98952523D01*
G37*
G36*
X124208196Y-96412523D02*
X124257268Y-96422284D01*
X124395943Y-96479725D01*
X124520751Y-96563119D01*
X124626883Y-96669251D01*
X124710277Y-96794059D01*
X124767718Y-96932735D01*
X124797001Y-97079949D01*
X124797001Y-97230053D01*
X124767718Y-97377267D01*
X124710277Y-97515943D01*
X124626883Y-97640751D01*
X124520751Y-97746883D01*
X124520748Y-97746885D01*
X124395943Y-97830277D01*
X124257268Y-97887718D01*
X124208196Y-97897479D01*
X124110053Y-97917001D01*
X123959949Y-97917001D01*
X123861806Y-97897479D01*
X123812734Y-97887718D01*
X123674059Y-97830277D01*
X123549254Y-97746885D01*
X123549251Y-97746883D01*
X123443119Y-97640751D01*
X123359725Y-97515943D01*
X123302284Y-97377267D01*
X123273001Y-97230053D01*
X123273001Y-97079949D01*
X123302284Y-96932735D01*
X123359725Y-96794059D01*
X123443119Y-96669251D01*
X123549251Y-96563119D01*
X123674059Y-96479725D01*
X123812734Y-96422284D01*
X123861806Y-96412523D01*
X123959949Y-96393001D01*
X124110053Y-96393001D01*
X124208196Y-96412523D01*
X124208196Y-96412523D01*
G37*
G36*
X141988196Y-96412523D02*
X142037268Y-96422284D01*
X142175943Y-96479725D01*
X142300751Y-96563119D01*
X142406883Y-96669251D01*
X142490277Y-96794059D01*
X142547718Y-96932735D01*
X142577001Y-97079949D01*
X142577001Y-97230053D01*
X142547718Y-97377267D01*
X142490277Y-97515943D01*
X142406883Y-97640751D01*
X142300751Y-97746883D01*
X142300748Y-97746885D01*
X142175943Y-97830277D01*
X142037268Y-97887718D01*
X141988196Y-97897479D01*
X141890053Y-97917001D01*
X141739949Y-97917001D01*
X141641806Y-97897479D01*
X141592734Y-97887718D01*
X141454059Y-97830277D01*
X141329254Y-97746885D01*
X141329251Y-97746883D01*
X141223119Y-97640751D01*
X141139725Y-97515943D01*
X141082284Y-97377267D01*
X141053001Y-97230053D01*
X141053001Y-97079949D01*
X141082284Y-96932735D01*
X141139725Y-96794059D01*
X141223119Y-96669251D01*
X141329251Y-96563119D01*
X141454059Y-96479725D01*
X141592734Y-96422284D01*
X141641806Y-96412523D01*
X141739949Y-96393001D01*
X141890053Y-96393001D01*
X141988196Y-96412523D01*
X141988196Y-96412523D01*
G37*
G36*
X141988196Y-93872523D02*
X142037268Y-93882284D01*
X142175943Y-93939725D01*
X142300751Y-94023119D01*
X142406883Y-94129251D01*
X142490277Y-94254059D01*
X142547718Y-94392735D01*
X142577001Y-94539949D01*
X142577001Y-94690053D01*
X142547718Y-94837267D01*
X142490277Y-94975943D01*
X142406883Y-95100751D01*
X142300751Y-95206883D01*
X142300748Y-95206885D01*
X142175943Y-95290277D01*
X142037268Y-95347718D01*
X141988196Y-95357479D01*
X141890053Y-95377001D01*
X141739949Y-95377001D01*
X141641806Y-95357479D01*
X141592734Y-95347718D01*
X141454059Y-95290277D01*
X141329254Y-95206885D01*
X141329251Y-95206883D01*
X141223119Y-95100751D01*
X141139725Y-94975943D01*
X141082284Y-94837267D01*
X141053001Y-94690053D01*
X141053001Y-94539949D01*
X141082284Y-94392735D01*
X141139725Y-94254059D01*
X141223119Y-94129251D01*
X141329251Y-94023119D01*
X141454059Y-93939725D01*
X141592734Y-93882284D01*
X141641806Y-93872523D01*
X141739949Y-93853001D01*
X141890053Y-93853001D01*
X141988196Y-93872523D01*
X141988196Y-93872523D01*
G37*
G36*
X124208196Y-93872523D02*
X124257268Y-93882284D01*
X124395943Y-93939725D01*
X124520751Y-94023119D01*
X124626883Y-94129251D01*
X124710277Y-94254059D01*
X124767718Y-94392735D01*
X124797001Y-94539949D01*
X124797001Y-94690053D01*
X124767718Y-94837267D01*
X124710277Y-94975943D01*
X124626883Y-95100751D01*
X124520751Y-95206883D01*
X124520748Y-95206885D01*
X124395943Y-95290277D01*
X124257268Y-95347718D01*
X124208196Y-95357479D01*
X124110053Y-95377001D01*
X123959949Y-95377001D01*
X123861806Y-95357479D01*
X123812734Y-95347718D01*
X123674059Y-95290277D01*
X123549254Y-95206885D01*
X123549251Y-95206883D01*
X123443119Y-95100751D01*
X123359725Y-94975943D01*
X123302284Y-94837267D01*
X123273001Y-94690053D01*
X123273001Y-94539949D01*
X123302284Y-94392735D01*
X123359725Y-94254059D01*
X123443119Y-94129251D01*
X123549251Y-94023119D01*
X123674059Y-93939725D01*
X123812734Y-93882284D01*
X123861806Y-93872523D01*
X123959949Y-93853001D01*
X124110053Y-93853001D01*
X124208196Y-93872523D01*
X124208196Y-93872523D01*
G37*
G36*
X124208196Y-91332523D02*
X124257268Y-91342284D01*
X124395943Y-91399725D01*
X124520751Y-91483119D01*
X124626883Y-91589251D01*
X124710277Y-91714059D01*
X124767718Y-91852735D01*
X124797001Y-91999949D01*
X124797001Y-92150053D01*
X124767718Y-92297267D01*
X124710277Y-92435943D01*
X124626883Y-92560751D01*
X124520751Y-92666883D01*
X124520748Y-92666885D01*
X124395943Y-92750277D01*
X124257268Y-92807718D01*
X124208196Y-92817479D01*
X124110053Y-92837001D01*
X123959949Y-92837001D01*
X123861806Y-92817479D01*
X123812734Y-92807718D01*
X123674059Y-92750277D01*
X123549254Y-92666885D01*
X123549251Y-92666883D01*
X123443119Y-92560751D01*
X123359725Y-92435943D01*
X123302284Y-92297267D01*
X123273001Y-92150053D01*
X123273001Y-91999949D01*
X123302284Y-91852735D01*
X123359725Y-91714059D01*
X123443119Y-91589251D01*
X123549251Y-91483119D01*
X123674059Y-91399725D01*
X123812734Y-91342284D01*
X123861806Y-91332523D01*
X123959949Y-91313001D01*
X124110053Y-91313001D01*
X124208196Y-91332523D01*
X124208196Y-91332523D01*
G37*
G36*
X141988196Y-91332523D02*
X142037268Y-91342284D01*
X142175943Y-91399725D01*
X142300751Y-91483119D01*
X142406883Y-91589251D01*
X142490277Y-91714059D01*
X142547718Y-91852735D01*
X142577001Y-91999949D01*
X142577001Y-92150053D01*
X142547718Y-92297267D01*
X142490277Y-92435943D01*
X142406883Y-92560751D01*
X142300751Y-92666883D01*
X142300748Y-92666885D01*
X142175943Y-92750277D01*
X142037268Y-92807718D01*
X141988196Y-92817479D01*
X141890053Y-92837001D01*
X141739949Y-92837001D01*
X141641806Y-92817479D01*
X141592734Y-92807718D01*
X141454059Y-92750277D01*
X141329254Y-92666885D01*
X141329251Y-92666883D01*
X141223119Y-92560751D01*
X141139725Y-92435943D01*
X141082284Y-92297267D01*
X141053001Y-92150053D01*
X141053001Y-91999949D01*
X141082284Y-91852735D01*
X141139725Y-91714059D01*
X141223119Y-91589251D01*
X141329251Y-91483119D01*
X141454059Y-91399725D01*
X141592734Y-91342284D01*
X141641806Y-91332523D01*
X141739949Y-91313001D01*
X141890053Y-91313001D01*
X141988196Y-91332523D01*
X141988196Y-91332523D01*
G37*
G36*
X124208196Y-88792523D02*
X124257268Y-88802284D01*
X124395943Y-88859725D01*
X124520751Y-88943119D01*
X124626883Y-89049251D01*
X124710277Y-89174059D01*
X124767718Y-89312735D01*
X124797001Y-89459949D01*
X124797001Y-89610053D01*
X124767718Y-89757267D01*
X124710277Y-89895943D01*
X124626883Y-90020751D01*
X124520751Y-90126883D01*
X124520748Y-90126885D01*
X124395943Y-90210277D01*
X124257268Y-90267718D01*
X124208196Y-90277479D01*
X124110053Y-90297001D01*
X123959949Y-90297001D01*
X123861806Y-90277479D01*
X123812734Y-90267718D01*
X123674059Y-90210277D01*
X123549254Y-90126885D01*
X123549251Y-90126883D01*
X123443119Y-90020751D01*
X123359725Y-89895943D01*
X123302284Y-89757267D01*
X123273001Y-89610053D01*
X123273001Y-89459949D01*
X123302284Y-89312735D01*
X123359725Y-89174059D01*
X123443119Y-89049251D01*
X123549251Y-88943119D01*
X123674059Y-88859725D01*
X123812734Y-88802284D01*
X123861806Y-88792523D01*
X123959949Y-88773001D01*
X124110053Y-88773001D01*
X124208196Y-88792523D01*
X124208196Y-88792523D01*
G37*
G36*
X141988196Y-88792523D02*
X142037268Y-88802284D01*
X142175943Y-88859725D01*
X142300751Y-88943119D01*
X142406883Y-89049251D01*
X142490277Y-89174059D01*
X142547718Y-89312735D01*
X142577001Y-89459949D01*
X142577001Y-89610053D01*
X142547718Y-89757267D01*
X142490277Y-89895943D01*
X142406883Y-90020751D01*
X142300751Y-90126883D01*
X142300748Y-90126885D01*
X142175943Y-90210277D01*
X142037268Y-90267718D01*
X141988196Y-90277479D01*
X141890053Y-90297001D01*
X141739949Y-90297001D01*
X141641806Y-90277479D01*
X141592734Y-90267718D01*
X141454059Y-90210277D01*
X141329254Y-90126885D01*
X141329251Y-90126883D01*
X141223119Y-90020751D01*
X141139725Y-89895943D01*
X141082284Y-89757267D01*
X141053001Y-89610053D01*
X141053001Y-89459949D01*
X141082284Y-89312735D01*
X141139725Y-89174059D01*
X141223119Y-89049251D01*
X141329251Y-88943119D01*
X141454059Y-88859725D01*
X141592734Y-88802284D01*
X141641806Y-88792523D01*
X141739949Y-88773001D01*
X141890053Y-88773001D01*
X141988196Y-88792523D01*
X141988196Y-88792523D01*
G37*
G36*
X124208196Y-86252523D02*
X124257268Y-86262284D01*
X124395943Y-86319725D01*
X124520751Y-86403119D01*
X124626883Y-86509251D01*
X124710277Y-86634059D01*
X124767718Y-86772735D01*
X124797001Y-86919949D01*
X124797001Y-87070053D01*
X124767718Y-87217267D01*
X124710277Y-87355943D01*
X124626883Y-87480751D01*
X124520751Y-87586883D01*
X124520748Y-87586885D01*
X124395943Y-87670277D01*
X124257268Y-87727718D01*
X124208196Y-87737479D01*
X124110053Y-87757001D01*
X123959949Y-87757001D01*
X123861806Y-87737479D01*
X123812734Y-87727718D01*
X123674059Y-87670277D01*
X123549254Y-87586885D01*
X123549251Y-87586883D01*
X123443119Y-87480751D01*
X123359725Y-87355943D01*
X123302284Y-87217267D01*
X123273001Y-87070053D01*
X123273001Y-86919949D01*
X123302284Y-86772735D01*
X123359725Y-86634059D01*
X123443119Y-86509251D01*
X123549251Y-86403119D01*
X123674059Y-86319725D01*
X123812734Y-86262284D01*
X123861806Y-86252523D01*
X123959949Y-86233001D01*
X124110053Y-86233001D01*
X124208196Y-86252523D01*
X124208196Y-86252523D01*
G37*
G36*
X141988196Y-86252523D02*
X142037268Y-86262284D01*
X142175943Y-86319725D01*
X142300751Y-86403119D01*
X142406883Y-86509251D01*
X142490277Y-86634059D01*
X142547718Y-86772735D01*
X142577001Y-86919949D01*
X142577001Y-87070053D01*
X142547718Y-87217267D01*
X142490277Y-87355943D01*
X142406883Y-87480751D01*
X142300751Y-87586883D01*
X142300748Y-87586885D01*
X142175943Y-87670277D01*
X142037268Y-87727718D01*
X141988196Y-87737479D01*
X141890053Y-87757001D01*
X141739949Y-87757001D01*
X141641806Y-87737479D01*
X141592734Y-87727718D01*
X141454059Y-87670277D01*
X141329254Y-87586885D01*
X141329251Y-87586883D01*
X141223119Y-87480751D01*
X141139725Y-87355943D01*
X141082284Y-87217267D01*
X141053001Y-87070053D01*
X141053001Y-86919949D01*
X141082284Y-86772735D01*
X141139725Y-86634059D01*
X141223119Y-86509251D01*
X141329251Y-86403119D01*
X141454059Y-86319725D01*
X141592734Y-86262284D01*
X141641806Y-86252523D01*
X141739949Y-86233001D01*
X141890053Y-86233001D01*
X141988196Y-86252523D01*
X141988196Y-86252523D01*
G37*
G36*
X141988196Y-83712523D02*
X142037268Y-83722284D01*
X142175943Y-83779725D01*
X142300751Y-83863119D01*
X142406883Y-83969251D01*
X142490277Y-84094059D01*
X142547718Y-84232735D01*
X142577001Y-84379949D01*
X142577001Y-84530053D01*
X142547718Y-84677267D01*
X142490277Y-84815943D01*
X142406883Y-84940751D01*
X142300751Y-85046883D01*
X142300748Y-85046885D01*
X142175943Y-85130277D01*
X142037268Y-85187718D01*
X141988196Y-85197479D01*
X141890053Y-85217001D01*
X141739949Y-85217001D01*
X141641806Y-85197479D01*
X141592734Y-85187718D01*
X141454059Y-85130277D01*
X141329254Y-85046885D01*
X141329251Y-85046883D01*
X141223119Y-84940751D01*
X141139725Y-84815943D01*
X141082284Y-84677267D01*
X141053001Y-84530053D01*
X141053001Y-84379949D01*
X141082284Y-84232735D01*
X141139725Y-84094059D01*
X141223119Y-83969251D01*
X141329251Y-83863119D01*
X141454059Y-83779725D01*
X141592734Y-83722284D01*
X141641806Y-83712523D01*
X141739949Y-83693001D01*
X141890053Y-83693001D01*
X141988196Y-83712523D01*
X141988196Y-83712523D01*
G37*
G36*
X124208196Y-83712523D02*
X124257268Y-83722284D01*
X124395943Y-83779725D01*
X124520751Y-83863119D01*
X124626883Y-83969251D01*
X124710277Y-84094059D01*
X124767718Y-84232735D01*
X124797001Y-84379949D01*
X124797001Y-84530053D01*
X124767718Y-84677267D01*
X124710277Y-84815943D01*
X124626883Y-84940751D01*
X124520751Y-85046883D01*
X124520748Y-85046885D01*
X124395943Y-85130277D01*
X124257268Y-85187718D01*
X124208196Y-85197479D01*
X124110053Y-85217001D01*
X123959949Y-85217001D01*
X123861806Y-85197479D01*
X123812734Y-85187718D01*
X123674059Y-85130277D01*
X123549254Y-85046885D01*
X123549251Y-85046883D01*
X123443119Y-84940751D01*
X123359725Y-84815943D01*
X123302284Y-84677267D01*
X123273001Y-84530053D01*
X123273001Y-84379949D01*
X123302284Y-84232735D01*
X123359725Y-84094059D01*
X123443119Y-83969251D01*
X123549251Y-83863119D01*
X123674059Y-83779725D01*
X123812734Y-83722284D01*
X123861806Y-83712523D01*
X123959949Y-83693001D01*
X124110053Y-83693001D01*
X124208196Y-83712523D01*
X124208196Y-83712523D01*
G37*
G36*
X139340000Y-73160000D02*
X137340000Y-73160000D01*
X137340000Y-71960000D01*
X139340000Y-71960000D01*
X139340000Y-73160000D01*
X139340000Y-73160000D01*
G37*
G36*
X120290000Y-73160000D02*
X118290000Y-73160000D01*
X118290000Y-71960000D01*
X120290000Y-71960000D01*
X120290000Y-73160000D01*
X120290000Y-73160000D01*
G37*
G36*
X147140000Y-72060000D02*
X145140000Y-72060000D01*
X145140000Y-70860000D01*
X147140000Y-70860000D01*
X147140000Y-72060000D01*
X147140000Y-72060000D01*
G37*
G36*
X128090000Y-72060000D02*
X126090000Y-72060000D01*
X126090000Y-70860000D01*
X128090000Y-70860000D01*
X128090000Y-72060000D01*
X128090000Y-72060000D01*
G37*
G36*
X142378553Y-69403254D02*
X142464998Y-69439061D01*
X142542796Y-69491044D01*
X142608956Y-69557204D01*
X142660939Y-69635002D01*
X142696746Y-69721447D01*
X142715000Y-69813216D01*
X142715000Y-69906784D01*
X142696746Y-69998553D01*
X142660939Y-70084998D01*
X142608956Y-70162796D01*
X142542796Y-70228956D01*
X142464998Y-70280939D01*
X142378553Y-70316746D01*
X142286784Y-70335000D01*
X142193216Y-70335000D01*
X142101447Y-70316746D01*
X142015002Y-70280939D01*
X141937204Y-70228956D01*
X141871044Y-70162796D01*
X141819061Y-70084998D01*
X141783254Y-69998553D01*
X141765000Y-69906784D01*
X141765000Y-69813216D01*
X141783254Y-69721447D01*
X141819061Y-69635002D01*
X141871044Y-69557204D01*
X141937204Y-69491044D01*
X142015002Y-69439061D01*
X142101447Y-69403254D01*
X142193216Y-69385000D01*
X142286784Y-69385000D01*
X142378553Y-69403254D01*
X142378553Y-69403254D01*
G37*
G36*
X123328553Y-69403254D02*
X123414998Y-69439061D01*
X123492796Y-69491044D01*
X123558956Y-69557204D01*
X123610939Y-69635002D01*
X123646746Y-69721447D01*
X123665000Y-69813216D01*
X123665000Y-69906784D01*
X123646746Y-69998553D01*
X123610939Y-70084998D01*
X123558956Y-70162796D01*
X123492796Y-70228956D01*
X123414998Y-70280939D01*
X123328553Y-70316746D01*
X123236784Y-70335000D01*
X123143216Y-70335000D01*
X123051447Y-70316746D01*
X122965002Y-70280939D01*
X122887204Y-70228956D01*
X122821044Y-70162796D01*
X122769061Y-70084998D01*
X122733254Y-69998553D01*
X122715000Y-69906784D01*
X122715000Y-69813216D01*
X122733254Y-69721447D01*
X122769061Y-69635002D01*
X122821044Y-69557204D01*
X122887204Y-69491044D01*
X122965002Y-69439061D01*
X123051447Y-69403254D01*
X123143216Y-69385000D01*
X123236784Y-69385000D01*
X123328553Y-69403254D01*
X123328553Y-69403254D01*
G37*
G36*
X134969116Y-68933595D02*
X134998313Y-68942452D01*
X135025218Y-68956833D01*
X135048808Y-68976192D01*
X135068167Y-68999782D01*
X135082548Y-69026687D01*
X135091405Y-69055884D01*
X135095000Y-69092390D01*
X135095000Y-69642610D01*
X135091405Y-69679116D01*
X135082548Y-69708313D01*
X135068167Y-69735218D01*
X135048808Y-69758808D01*
X135025218Y-69778167D01*
X134998313Y-69792548D01*
X134969116Y-69801405D01*
X134932610Y-69805000D01*
X134307390Y-69805000D01*
X134270884Y-69801405D01*
X134241687Y-69792548D01*
X134214782Y-69778167D01*
X134191192Y-69758808D01*
X134171833Y-69735218D01*
X134157452Y-69708313D01*
X134148595Y-69679116D01*
X134145000Y-69642610D01*
X134145000Y-69092390D01*
X134148595Y-69055884D01*
X134157452Y-69026687D01*
X134171833Y-68999782D01*
X134191192Y-68976192D01*
X134214782Y-68956833D01*
X134241687Y-68942452D01*
X134270884Y-68933595D01*
X134307390Y-68930000D01*
X134932610Y-68930000D01*
X134969116Y-68933595D01*
X134969116Y-68933595D01*
G37*
G36*
X131159116Y-68933595D02*
X131188313Y-68942452D01*
X131215218Y-68956833D01*
X131238808Y-68976192D01*
X131258167Y-68999782D01*
X131272548Y-69026687D01*
X131281405Y-69055884D01*
X131285000Y-69092390D01*
X131285000Y-69642610D01*
X131281405Y-69679116D01*
X131272548Y-69708313D01*
X131258167Y-69735218D01*
X131238808Y-69758808D01*
X131215218Y-69778167D01*
X131188313Y-69792548D01*
X131159116Y-69801405D01*
X131122610Y-69805000D01*
X130497390Y-69805000D01*
X130460884Y-69801405D01*
X130431687Y-69792548D01*
X130404782Y-69778167D01*
X130381192Y-69758808D01*
X130361833Y-69735218D01*
X130347452Y-69708313D01*
X130338595Y-69679116D01*
X130335000Y-69642610D01*
X130335000Y-69092390D01*
X130338595Y-69055884D01*
X130347452Y-69026687D01*
X130361833Y-68999782D01*
X130381192Y-68976192D01*
X130404782Y-68956833D01*
X130431687Y-68942452D01*
X130460884Y-68933595D01*
X130497390Y-68930000D01*
X131122610Y-68930000D01*
X131159116Y-68933595D01*
X131159116Y-68933595D01*
G37*
G36*
X134969116Y-67358595D02*
X134998313Y-67367452D01*
X135025218Y-67381833D01*
X135048808Y-67401192D01*
X135068167Y-67424782D01*
X135082548Y-67451687D01*
X135091405Y-67480884D01*
X135095000Y-67517390D01*
X135095000Y-68067610D01*
X135091405Y-68104116D01*
X135082548Y-68133313D01*
X135068167Y-68160218D01*
X135048808Y-68183808D01*
X135025218Y-68203167D01*
X134998313Y-68217548D01*
X134969116Y-68226405D01*
X134932610Y-68230000D01*
X134307390Y-68230000D01*
X134270884Y-68226405D01*
X134241687Y-68217548D01*
X134214782Y-68203167D01*
X134191192Y-68183808D01*
X134171833Y-68160218D01*
X134157452Y-68133313D01*
X134148595Y-68104116D01*
X134145000Y-68067610D01*
X134145000Y-67517390D01*
X134148595Y-67480884D01*
X134157452Y-67451687D01*
X134171833Y-67424782D01*
X134191192Y-67401192D01*
X134214782Y-67381833D01*
X134241687Y-67367452D01*
X134270884Y-67358595D01*
X134307390Y-67355000D01*
X134932610Y-67355000D01*
X134969116Y-67358595D01*
X134969116Y-67358595D01*
G37*
G36*
X131159116Y-67358595D02*
X131188313Y-67367452D01*
X131215218Y-67381833D01*
X131238808Y-67401192D01*
X131258167Y-67424782D01*
X131272548Y-67451687D01*
X131281405Y-67480884D01*
X131285000Y-67517390D01*
X131285000Y-68067610D01*
X131281405Y-68104116D01*
X131272548Y-68133313D01*
X131258167Y-68160218D01*
X131238808Y-68183808D01*
X131215218Y-68203167D01*
X131188313Y-68217548D01*
X131159116Y-68226405D01*
X131122610Y-68230000D01*
X130497390Y-68230000D01*
X130460884Y-68226405D01*
X130431687Y-68217548D01*
X130404782Y-68203167D01*
X130381192Y-68183808D01*
X130361833Y-68160218D01*
X130347452Y-68133313D01*
X130338595Y-68104116D01*
X130335000Y-68067610D01*
X130335000Y-67517390D01*
X130338595Y-67480884D01*
X130347452Y-67451687D01*
X130361833Y-67424782D01*
X130381192Y-67401192D01*
X130404782Y-67381833D01*
X130431687Y-67367452D01*
X130460884Y-67358595D01*
X130497390Y-67355000D01*
X131122610Y-67355000D01*
X131159116Y-67358595D01*
X131159116Y-67358595D01*
G37*
G36*
X147140000Y-68060000D02*
X145140000Y-68060000D01*
X145140000Y-66860000D01*
X147140000Y-66860000D01*
X147140000Y-68060000D01*
X147140000Y-68060000D01*
G37*
G36*
X128090000Y-68060000D02*
X126090000Y-68060000D01*
X126090000Y-66860000D01*
X128090000Y-66860000D01*
X128090000Y-68060000D01*
X128090000Y-68060000D01*
G37*
G36*
X147140000Y-65060000D02*
X145140000Y-65060000D01*
X145140000Y-63860000D01*
X147140000Y-63860000D01*
X147140000Y-65060000D01*
X147140000Y-65060000D01*
G37*
G36*
X128090000Y-65060000D02*
X126090000Y-65060000D01*
X126090000Y-63860000D01*
X128090000Y-63860000D01*
X128090000Y-65060000D01*
X128090000Y-65060000D01*
G37*
G36*
X134969116Y-63853595D02*
X134998313Y-63862452D01*
X135025218Y-63876833D01*
X135048808Y-63896192D01*
X135068167Y-63919782D01*
X135082548Y-63946687D01*
X135091405Y-63975884D01*
X135095000Y-64012390D01*
X135095000Y-64562610D01*
X135091405Y-64599116D01*
X135082548Y-64628313D01*
X135068167Y-64655218D01*
X135048808Y-64678808D01*
X135025218Y-64698167D01*
X134998313Y-64712548D01*
X134969116Y-64721405D01*
X134932610Y-64725000D01*
X134307390Y-64725000D01*
X134270884Y-64721405D01*
X134241687Y-64712548D01*
X134214782Y-64698167D01*
X134191192Y-64678808D01*
X134171833Y-64655218D01*
X134157452Y-64628313D01*
X134148595Y-64599116D01*
X134145000Y-64562610D01*
X134145000Y-64012390D01*
X134148595Y-63975884D01*
X134157452Y-63946687D01*
X134171833Y-63919782D01*
X134191192Y-63896192D01*
X134214782Y-63876833D01*
X134241687Y-63862452D01*
X134270884Y-63853595D01*
X134307390Y-63850000D01*
X134932610Y-63850000D01*
X134969116Y-63853595D01*
X134969116Y-63853595D01*
G37*
G36*
X131159116Y-63853595D02*
X131188313Y-63862452D01*
X131215218Y-63876833D01*
X131238808Y-63896192D01*
X131258167Y-63919782D01*
X131272548Y-63946687D01*
X131281405Y-63975884D01*
X131285000Y-64012390D01*
X131285000Y-64562610D01*
X131281405Y-64599116D01*
X131272548Y-64628313D01*
X131258167Y-64655218D01*
X131238808Y-64678808D01*
X131215218Y-64698167D01*
X131188313Y-64712548D01*
X131159116Y-64721405D01*
X131122610Y-64725000D01*
X130497390Y-64725000D01*
X130460884Y-64721405D01*
X130431687Y-64712548D01*
X130404782Y-64698167D01*
X130381192Y-64678808D01*
X130361833Y-64655218D01*
X130347452Y-64628313D01*
X130338595Y-64599116D01*
X130335000Y-64562610D01*
X130335000Y-64012390D01*
X130338595Y-63975884D01*
X130347452Y-63946687D01*
X130361833Y-63919782D01*
X130381192Y-63896192D01*
X130404782Y-63876833D01*
X130431687Y-63862452D01*
X130460884Y-63853595D01*
X130497390Y-63850000D01*
X131122610Y-63850000D01*
X131159116Y-63853595D01*
X131159116Y-63853595D01*
G37*
G36*
X123328553Y-62403254D02*
X123414998Y-62439061D01*
X123492796Y-62491044D01*
X123558956Y-62557204D01*
X123610939Y-62635002D01*
X123646746Y-62721447D01*
X123665000Y-62813216D01*
X123665000Y-62906784D01*
X123646746Y-62998553D01*
X123610939Y-63084998D01*
X123558956Y-63162796D01*
X123492796Y-63228956D01*
X123414998Y-63280939D01*
X123328553Y-63316746D01*
X123236784Y-63335000D01*
X123143216Y-63335000D01*
X123051447Y-63316746D01*
X122965002Y-63280939D01*
X122887204Y-63228956D01*
X122821044Y-63162796D01*
X122769061Y-63084998D01*
X122733254Y-62998553D01*
X122715000Y-62906784D01*
X122715000Y-62813216D01*
X122733254Y-62721447D01*
X122769061Y-62635002D01*
X122821044Y-62557204D01*
X122887204Y-62491044D01*
X122965002Y-62439061D01*
X123051447Y-62403254D01*
X123143216Y-62385000D01*
X123236784Y-62385000D01*
X123328553Y-62403254D01*
X123328553Y-62403254D01*
G37*
G36*
X142378553Y-62403254D02*
X142464998Y-62439061D01*
X142542796Y-62491044D01*
X142608956Y-62557204D01*
X142660939Y-62635002D01*
X142696746Y-62721447D01*
X142715000Y-62813216D01*
X142715000Y-62906784D01*
X142696746Y-62998553D01*
X142660939Y-63084998D01*
X142608956Y-63162796D01*
X142542796Y-63228956D01*
X142464998Y-63280939D01*
X142378553Y-63316746D01*
X142286784Y-63335000D01*
X142193216Y-63335000D01*
X142101447Y-63316746D01*
X142015002Y-63280939D01*
X141937204Y-63228956D01*
X141871044Y-63162796D01*
X141819061Y-63084998D01*
X141783254Y-62998553D01*
X141765000Y-62906784D01*
X141765000Y-62813216D01*
X141783254Y-62721447D01*
X141819061Y-62635002D01*
X141871044Y-62557204D01*
X141937204Y-62491044D01*
X142015002Y-62439061D01*
X142101447Y-62403254D01*
X142193216Y-62385000D01*
X142286784Y-62385000D01*
X142378553Y-62403254D01*
X142378553Y-62403254D01*
G37*
G36*
X131159116Y-62278595D02*
X131188313Y-62287452D01*
X131215218Y-62301833D01*
X131238808Y-62321192D01*
X131258167Y-62344782D01*
X131272548Y-62371687D01*
X131281405Y-62400884D01*
X131285000Y-62437390D01*
X131285000Y-62987610D01*
X131281405Y-63024116D01*
X131272548Y-63053313D01*
X131258167Y-63080218D01*
X131238808Y-63103808D01*
X131215218Y-63123167D01*
X131188313Y-63137548D01*
X131159116Y-63146405D01*
X131122610Y-63150000D01*
X130497390Y-63150000D01*
X130460884Y-63146405D01*
X130431687Y-63137548D01*
X130404782Y-63123167D01*
X130381192Y-63103808D01*
X130361833Y-63080218D01*
X130347452Y-63053313D01*
X130338595Y-63024116D01*
X130335000Y-62987610D01*
X130335000Y-62437390D01*
X130338595Y-62400884D01*
X130347452Y-62371687D01*
X130361833Y-62344782D01*
X130381192Y-62321192D01*
X130404782Y-62301833D01*
X130431687Y-62287452D01*
X130460884Y-62278595D01*
X130497390Y-62275000D01*
X131122610Y-62275000D01*
X131159116Y-62278595D01*
X131159116Y-62278595D01*
G37*
G36*
X134969116Y-62278595D02*
X134998313Y-62287452D01*
X135025218Y-62301833D01*
X135048808Y-62321192D01*
X135068167Y-62344782D01*
X135082548Y-62371687D01*
X135091405Y-62400884D01*
X135095000Y-62437390D01*
X135095000Y-62987610D01*
X135091405Y-63024116D01*
X135082548Y-63053313D01*
X135068167Y-63080218D01*
X135048808Y-63103808D01*
X135025218Y-63123167D01*
X134998313Y-63137548D01*
X134969116Y-63146405D01*
X134932610Y-63150000D01*
X134307390Y-63150000D01*
X134270884Y-63146405D01*
X134241687Y-63137548D01*
X134214782Y-63123167D01*
X134191192Y-63103808D01*
X134171833Y-63080218D01*
X134157452Y-63053313D01*
X134148595Y-63024116D01*
X134145000Y-62987610D01*
X134145000Y-62437390D01*
X134148595Y-62400884D01*
X134157452Y-62371687D01*
X134171833Y-62344782D01*
X134191192Y-62321192D01*
X134214782Y-62301833D01*
X134241687Y-62287452D01*
X134270884Y-62278595D01*
X134307390Y-62275000D01*
X134932610Y-62275000D01*
X134969116Y-62278595D01*
X134969116Y-62278595D01*
G37*
M02*
