G04 #@! TF.GenerationSoftware,KiCad,Pcbnew,5.0.1-33cea8e~66~ubuntu18.04.1*
G04 #@! TF.CreationDate,2018-10-13T22:06:55+09:00*
G04 #@! TF.ProjectId,pendant,70656E64616E742E6B696361645F7063,rev?*
G04 #@! TF.SameCoordinates,Original*
G04 #@! TF.FileFunction,Copper,L2,Bot,Signal*
G04 #@! TF.FilePolarity,Positive*
%FSLAX46Y46*%
G04 Gerber Fmt 4.6, Leading zero omitted, Abs format (unit mm)*
G04 Created by KiCad (PCBNEW 5.0.1-33cea8e~66~ubuntu18.04.1) date 2018年10月13日 22時06分55秒*
%MOMM*%
%LPD*%
G01*
G04 APERTURE LIST*
G04 #@! TA.AperFunction,ComponentPad*
%ADD10C,1.524000*%
G04 #@! TD*
G04 #@! TA.AperFunction,ViaPad*
%ADD11C,0.800000*%
G04 #@! TD*
G04 #@! TA.AperFunction,Conductor*
%ADD12C,0.200000*%
G04 #@! TD*
G04 #@! TA.AperFunction,Conductor*
%ADD13C,0.254000*%
G04 #@! TD*
G04 APERTURE END LIST*
D10*
G04 #@! TO.P,U1,1*
G04 #@! TO.N,Net-(U1-Pad1)*
X124035001Y-84455001D03*
G04 #@! TO.P,U1,2*
G04 #@! TO.N,Net-(U1-Pad2)*
X124035001Y-86995001D03*
G04 #@! TO.P,U1,3*
G04 #@! TO.N,Net-(U1-Pad3)*
X124035001Y-89535001D03*
G04 #@! TO.P,U1,4*
G04 #@! TO.N,Net-(U1-Pad4)*
X124035001Y-92075001D03*
G04 #@! TO.P,U1,5*
G04 #@! TO.N,Net-(U1-Pad5)*
X124035001Y-94615001D03*
G04 #@! TO.P,U1,6*
G04 #@! TO.N,Net-(U1-Pad6)*
X124035001Y-97155001D03*
G04 #@! TO.P,U1,7*
G04 #@! TO.N,Net-(U1-Pad7)*
X124035001Y-99695001D03*
G04 #@! TO.P,U1,8*
G04 #@! TO.N,Net-(U1-Pad8)*
X124035001Y-102235001D03*
G04 #@! TO.P,U1,9*
G04 #@! TO.N,Net-(U1-Pad9)*
X124035001Y-104775001D03*
G04 #@! TO.P,U1,10*
G04 #@! TO.N,Net-(U1-Pad10)*
X124035001Y-107315001D03*
G04 #@! TO.P,U1,11*
G04 #@! TO.N,Net-(U1-Pad11)*
X124035001Y-109855001D03*
G04 #@! TO.P,U1,12*
G04 #@! TO.N,Net-(U1-Pad12)*
X124035001Y-112395001D03*
G04 #@! TO.P,U1,13*
G04 #@! TO.N,Net-(U1-Pad13)*
X124035001Y-114935001D03*
G04 #@! TO.P,U1,14*
G04 #@! TO.N,SCL1*
X124035001Y-117475001D03*
G04 #@! TO.P,U1,15*
G04 #@! TO.N,SDA1*
X124035001Y-120015001D03*
G04 #@! TO.P,U1,16*
G04 #@! TO.N,3V3*
X124035001Y-122555001D03*
G04 #@! TO.P,U1,17*
G04 #@! TO.N,GND*
X124035001Y-125095001D03*
G04 #@! TO.P,U1,18*
X141815001Y-125095001D03*
G04 #@! TO.P,U1,19*
G04 #@! TO.N,Net-(U1-Pad19)*
X141815001Y-122555001D03*
G04 #@! TO.P,U1,20*
G04 #@! TO.N,Net-(U1-Pad20)*
X141815001Y-120015001D03*
G04 #@! TO.P,U1,21*
G04 #@! TO.N,Net-(U1-Pad21)*
X141815001Y-117475001D03*
G04 #@! TO.P,U1,22*
G04 #@! TO.N,Net-(U1-Pad22)*
X141815001Y-114935001D03*
G04 #@! TO.P,U1,23*
G04 #@! TO.N,Net-(U1-Pad23)*
X141815001Y-112395001D03*
G04 #@! TO.P,U1,24*
G04 #@! TO.N,Net-(U1-Pad24)*
X141815001Y-109855001D03*
G04 #@! TO.P,U1,25*
G04 #@! TO.N,Net-(U1-Pad25)*
X141815001Y-107315001D03*
G04 #@! TO.P,U1,26*
G04 #@! TO.N,Net-(U1-Pad26)*
X141815001Y-104775001D03*
G04 #@! TO.P,U1,27*
G04 #@! TO.N,Net-(U1-Pad27)*
X141815001Y-102235001D03*
G04 #@! TO.P,U1,28*
G04 #@! TO.N,Net-(U1-Pad28)*
X141815001Y-99695001D03*
G04 #@! TO.P,U1,29*
G04 #@! TO.N,Net-(U1-Pad29)*
X141815001Y-97155001D03*
G04 #@! TO.P,U1,30*
G04 #@! TO.N,Net-(U1-Pad30)*
X141815001Y-94615001D03*
G04 #@! TO.P,U1,31*
G04 #@! TO.N,Net-(U1-Pad31)*
X141815001Y-92075001D03*
G04 #@! TO.P,U1,32*
G04 #@! TO.N,Net-(U1-Pad32)*
X141815001Y-89535001D03*
G04 #@! TO.P,U1,33*
G04 #@! TO.N,SCL2*
X141815001Y-86995001D03*
G04 #@! TO.P,U1,34*
G04 #@! TO.N,SDA2*
X141815001Y-84455001D03*
G04 #@! TD*
D11*
G04 #@! TO.N,SCL1*
X123190000Y-64770000D03*
G04 #@! TO.N,SCL2*
X137160000Y-67310000D03*
G04 #@! TO.N,SDA2*
X139700000Y-68580000D03*
G04 #@! TD*
D12*
G04 #@! TO.N,SCL1*
X122127999Y-115567999D02*
X123273002Y-116713002D01*
X122127999Y-65832001D02*
X122127999Y-115567999D01*
X123273002Y-116713002D02*
X124035001Y-117475001D01*
X123190000Y-64770000D02*
X122127999Y-65832001D01*
G04 #@! TO.N,SCL2*
X137160000Y-82340000D02*
X141815001Y-86995001D01*
X137160000Y-67310000D02*
X137160000Y-82340000D01*
G04 #@! TO.N,SDA2*
X139700000Y-68580000D02*
X138430000Y-69850000D01*
X138430000Y-81070000D02*
X141815001Y-84455001D01*
X138430000Y-69850000D02*
X138430000Y-81070000D01*
G04 #@! TD*
D13*
G04 #@! TO.N,GND*
G36*
X122398663Y-61675680D02*
X122005680Y-62068663D01*
X121793000Y-62582119D01*
X121793000Y-63137881D01*
X122005680Y-63651337D01*
X122398663Y-64044320D01*
X122436356Y-64059933D01*
X122312569Y-64183720D01*
X122155000Y-64564126D01*
X122155000Y-64765553D01*
X121659464Y-65261090D01*
X121598094Y-65302096D01*
X121435645Y-65545219D01*
X121392999Y-65759614D01*
X121392999Y-65759617D01*
X121378601Y-65832001D01*
X121392999Y-65904385D01*
X121393000Y-115495610D01*
X121378601Y-115567999D01*
X121435645Y-115854781D01*
X121546474Y-116020648D01*
X121598095Y-116097904D01*
X121659462Y-116138908D01*
X122661336Y-117140783D01*
X122638001Y-117197120D01*
X122638001Y-117752882D01*
X122850681Y-118266338D01*
X123243664Y-118659321D01*
X123450514Y-118745001D01*
X123243664Y-118830681D01*
X122850681Y-119223664D01*
X122638001Y-119737120D01*
X122638001Y-120292882D01*
X122850681Y-120806338D01*
X123243664Y-121199321D01*
X123450514Y-121285001D01*
X123243664Y-121370681D01*
X122850681Y-121763664D01*
X122638001Y-122277120D01*
X122638001Y-122832882D01*
X122850681Y-123346338D01*
X123243664Y-123739321D01*
X123434648Y-123818429D01*
X123303858Y-123872604D01*
X123234393Y-124114788D01*
X124035001Y-124915396D01*
X124835609Y-124114788D01*
X124766144Y-123872604D01*
X124625608Y-123822466D01*
X124826338Y-123739321D01*
X125219321Y-123346338D01*
X125432001Y-122832882D01*
X125432001Y-122277120D01*
X125219321Y-121763664D01*
X124826338Y-121370681D01*
X124619488Y-121285001D01*
X124826338Y-121199321D01*
X125219321Y-120806338D01*
X125432001Y-120292882D01*
X125432001Y-119737120D01*
X125219321Y-119223664D01*
X124826338Y-118830681D01*
X124619488Y-118745001D01*
X124826338Y-118659321D01*
X125219321Y-118266338D01*
X125432001Y-117752882D01*
X125432001Y-117197120D01*
X125219321Y-116683664D01*
X124826338Y-116290681D01*
X124619488Y-116205001D01*
X124826338Y-116119321D01*
X125219321Y-115726338D01*
X125432001Y-115212882D01*
X125432001Y-114657120D01*
X125219321Y-114143664D01*
X124826338Y-113750681D01*
X124619488Y-113665001D01*
X124826338Y-113579321D01*
X125219321Y-113186338D01*
X125432001Y-112672882D01*
X125432001Y-112117120D01*
X125219321Y-111603664D01*
X124826338Y-111210681D01*
X124619488Y-111125001D01*
X124826338Y-111039321D01*
X125219321Y-110646338D01*
X125432001Y-110132882D01*
X125432001Y-109577120D01*
X125219321Y-109063664D01*
X124826338Y-108670681D01*
X124619488Y-108585001D01*
X124826338Y-108499321D01*
X125219321Y-108106338D01*
X125432001Y-107592882D01*
X125432001Y-107037120D01*
X125219321Y-106523664D01*
X124826338Y-106130681D01*
X124619488Y-106045001D01*
X124826338Y-105959321D01*
X125219321Y-105566338D01*
X125432001Y-105052882D01*
X125432001Y-104497120D01*
X125219321Y-103983664D01*
X124826338Y-103590681D01*
X124619488Y-103505001D01*
X124826338Y-103419321D01*
X125219321Y-103026338D01*
X125432001Y-102512882D01*
X125432001Y-101957120D01*
X125219321Y-101443664D01*
X124826338Y-101050681D01*
X124619488Y-100965001D01*
X124826338Y-100879321D01*
X125219321Y-100486338D01*
X125432001Y-99972882D01*
X125432001Y-99417120D01*
X125219321Y-98903664D01*
X124826338Y-98510681D01*
X124619488Y-98425001D01*
X124826338Y-98339321D01*
X125219321Y-97946338D01*
X125432001Y-97432882D01*
X125432001Y-96877120D01*
X125219321Y-96363664D01*
X124826338Y-95970681D01*
X124619488Y-95885001D01*
X124826338Y-95799321D01*
X125219321Y-95406338D01*
X125432001Y-94892882D01*
X125432001Y-94337120D01*
X125219321Y-93823664D01*
X124826338Y-93430681D01*
X124619488Y-93345001D01*
X124826338Y-93259321D01*
X125219321Y-92866338D01*
X125432001Y-92352882D01*
X125432001Y-91797120D01*
X125219321Y-91283664D01*
X124826338Y-90890681D01*
X124619488Y-90805001D01*
X124826338Y-90719321D01*
X125219321Y-90326338D01*
X125432001Y-89812882D01*
X125432001Y-89257120D01*
X125219321Y-88743664D01*
X124826338Y-88350681D01*
X124619488Y-88265001D01*
X124826338Y-88179321D01*
X125219321Y-87786338D01*
X125432001Y-87272882D01*
X125432001Y-86717120D01*
X125219321Y-86203664D01*
X124826338Y-85810681D01*
X124619488Y-85725001D01*
X124826338Y-85639321D01*
X125219321Y-85246338D01*
X125432001Y-84732882D01*
X125432001Y-84177120D01*
X125219321Y-83663664D01*
X124826338Y-83270681D01*
X124312882Y-83058001D01*
X123757120Y-83058001D01*
X123243664Y-83270681D01*
X122862999Y-83651346D01*
X122862999Y-71236654D01*
X122912119Y-71257000D01*
X123467881Y-71257000D01*
X123981337Y-71044320D01*
X124374320Y-70651337D01*
X124587000Y-70137881D01*
X124587000Y-69582119D01*
X124374320Y-69068663D01*
X123981337Y-68675680D01*
X123467881Y-68463000D01*
X122912119Y-68463000D01*
X122862999Y-68483346D01*
X122862999Y-67104126D01*
X136125000Y-67104126D01*
X136125000Y-67515874D01*
X136282569Y-67896280D01*
X136425000Y-68038711D01*
X136425001Y-82267611D01*
X136410602Y-82340000D01*
X136467646Y-82626782D01*
X136467647Y-82626783D01*
X136630096Y-82869905D01*
X136691463Y-82910909D01*
X140441336Y-86660783D01*
X140418001Y-86717120D01*
X140418001Y-87272882D01*
X140630681Y-87786338D01*
X141023664Y-88179321D01*
X141230514Y-88265001D01*
X141023664Y-88350681D01*
X140630681Y-88743664D01*
X140418001Y-89257120D01*
X140418001Y-89812882D01*
X140630681Y-90326338D01*
X141023664Y-90719321D01*
X141230514Y-90805001D01*
X141023664Y-90890681D01*
X140630681Y-91283664D01*
X140418001Y-91797120D01*
X140418001Y-92352882D01*
X140630681Y-92866338D01*
X141023664Y-93259321D01*
X141230514Y-93345001D01*
X141023664Y-93430681D01*
X140630681Y-93823664D01*
X140418001Y-94337120D01*
X140418001Y-94892882D01*
X140630681Y-95406338D01*
X141023664Y-95799321D01*
X141230514Y-95885001D01*
X141023664Y-95970681D01*
X140630681Y-96363664D01*
X140418001Y-96877120D01*
X140418001Y-97432882D01*
X140630681Y-97946338D01*
X141023664Y-98339321D01*
X141230514Y-98425001D01*
X141023664Y-98510681D01*
X140630681Y-98903664D01*
X140418001Y-99417120D01*
X140418001Y-99972882D01*
X140630681Y-100486338D01*
X141023664Y-100879321D01*
X141230514Y-100965001D01*
X141023664Y-101050681D01*
X140630681Y-101443664D01*
X140418001Y-101957120D01*
X140418001Y-102512882D01*
X140630681Y-103026338D01*
X141023664Y-103419321D01*
X141230514Y-103505001D01*
X141023664Y-103590681D01*
X140630681Y-103983664D01*
X140418001Y-104497120D01*
X140418001Y-105052882D01*
X140630681Y-105566338D01*
X141023664Y-105959321D01*
X141230514Y-106045001D01*
X141023664Y-106130681D01*
X140630681Y-106523664D01*
X140418001Y-107037120D01*
X140418001Y-107592882D01*
X140630681Y-108106338D01*
X141023664Y-108499321D01*
X141230514Y-108585001D01*
X141023664Y-108670681D01*
X140630681Y-109063664D01*
X140418001Y-109577120D01*
X140418001Y-110132882D01*
X140630681Y-110646338D01*
X141023664Y-111039321D01*
X141230514Y-111125001D01*
X141023664Y-111210681D01*
X140630681Y-111603664D01*
X140418001Y-112117120D01*
X140418001Y-112672882D01*
X140630681Y-113186338D01*
X141023664Y-113579321D01*
X141230514Y-113665001D01*
X141023664Y-113750681D01*
X140630681Y-114143664D01*
X140418001Y-114657120D01*
X140418001Y-115212882D01*
X140630681Y-115726338D01*
X141023664Y-116119321D01*
X141230514Y-116205001D01*
X141023664Y-116290681D01*
X140630681Y-116683664D01*
X140418001Y-117197120D01*
X140418001Y-117752882D01*
X140630681Y-118266338D01*
X141023664Y-118659321D01*
X141230514Y-118745001D01*
X141023664Y-118830681D01*
X140630681Y-119223664D01*
X140418001Y-119737120D01*
X140418001Y-120292882D01*
X140630681Y-120806338D01*
X141023664Y-121199321D01*
X141230514Y-121285001D01*
X141023664Y-121370681D01*
X140630681Y-121763664D01*
X140418001Y-122277120D01*
X140418001Y-122832882D01*
X140630681Y-123346338D01*
X141023664Y-123739321D01*
X141214648Y-123818429D01*
X141083858Y-123872604D01*
X141014393Y-124114788D01*
X141815001Y-124915396D01*
X142615609Y-124114788D01*
X142546144Y-123872604D01*
X142405608Y-123822466D01*
X142606338Y-123739321D01*
X142999321Y-123346338D01*
X143212001Y-122832882D01*
X143212001Y-122277120D01*
X142999321Y-121763664D01*
X142606338Y-121370681D01*
X142399488Y-121285001D01*
X142606338Y-121199321D01*
X142999321Y-120806338D01*
X143212001Y-120292882D01*
X143212001Y-119737120D01*
X142999321Y-119223664D01*
X142606338Y-118830681D01*
X142399488Y-118745001D01*
X142606338Y-118659321D01*
X142999321Y-118266338D01*
X143212001Y-117752882D01*
X143212001Y-117197120D01*
X142999321Y-116683664D01*
X142606338Y-116290681D01*
X142399488Y-116205001D01*
X142606338Y-116119321D01*
X142999321Y-115726338D01*
X143212001Y-115212882D01*
X143212001Y-114657120D01*
X142999321Y-114143664D01*
X142606338Y-113750681D01*
X142399488Y-113665001D01*
X142606338Y-113579321D01*
X142999321Y-113186338D01*
X143212001Y-112672882D01*
X143212001Y-112117120D01*
X142999321Y-111603664D01*
X142606338Y-111210681D01*
X142399488Y-111125001D01*
X142606338Y-111039321D01*
X142999321Y-110646338D01*
X143212001Y-110132882D01*
X143212001Y-109577120D01*
X142999321Y-109063664D01*
X142606338Y-108670681D01*
X142399488Y-108585001D01*
X142606338Y-108499321D01*
X142999321Y-108106338D01*
X143212001Y-107592882D01*
X143212001Y-107037120D01*
X142999321Y-106523664D01*
X142606338Y-106130681D01*
X142399488Y-106045001D01*
X142606338Y-105959321D01*
X142999321Y-105566338D01*
X143212001Y-105052882D01*
X143212001Y-104497120D01*
X142999321Y-103983664D01*
X142606338Y-103590681D01*
X142399488Y-103505001D01*
X142606338Y-103419321D01*
X142999321Y-103026338D01*
X143212001Y-102512882D01*
X143212001Y-101957120D01*
X142999321Y-101443664D01*
X142606338Y-101050681D01*
X142399488Y-100965001D01*
X142606338Y-100879321D01*
X142999321Y-100486338D01*
X143212001Y-99972882D01*
X143212001Y-99417120D01*
X142999321Y-98903664D01*
X142606338Y-98510681D01*
X142399488Y-98425001D01*
X142606338Y-98339321D01*
X142999321Y-97946338D01*
X143212001Y-97432882D01*
X143212001Y-96877120D01*
X142999321Y-96363664D01*
X142606338Y-95970681D01*
X142399488Y-95885001D01*
X142606338Y-95799321D01*
X142999321Y-95406338D01*
X143212001Y-94892882D01*
X143212001Y-94337120D01*
X142999321Y-93823664D01*
X142606338Y-93430681D01*
X142399488Y-93345001D01*
X142606338Y-93259321D01*
X142999321Y-92866338D01*
X143212001Y-92352882D01*
X143212001Y-91797120D01*
X142999321Y-91283664D01*
X142606338Y-90890681D01*
X142399488Y-90805001D01*
X142606338Y-90719321D01*
X142999321Y-90326338D01*
X143212001Y-89812882D01*
X143212001Y-89257120D01*
X142999321Y-88743664D01*
X142606338Y-88350681D01*
X142399488Y-88265001D01*
X142606338Y-88179321D01*
X142999321Y-87786338D01*
X143212001Y-87272882D01*
X143212001Y-86717120D01*
X142999321Y-86203664D01*
X142606338Y-85810681D01*
X142399488Y-85725001D01*
X142606338Y-85639321D01*
X142999321Y-85246338D01*
X143212001Y-84732882D01*
X143212001Y-84177120D01*
X142999321Y-83663664D01*
X142606338Y-83270681D01*
X142092882Y-83058001D01*
X141537120Y-83058001D01*
X141480783Y-83081336D01*
X139165000Y-80765554D01*
X139165000Y-70154446D01*
X139704447Y-69615000D01*
X139905874Y-69615000D01*
X139985255Y-69582119D01*
X140843000Y-69582119D01*
X140843000Y-70137881D01*
X141055680Y-70651337D01*
X141448663Y-71044320D01*
X141962119Y-71257000D01*
X142517881Y-71257000D01*
X143031337Y-71044320D01*
X143424320Y-70651337D01*
X143637000Y-70137881D01*
X143637000Y-69582119D01*
X143424320Y-69068663D01*
X143031337Y-68675680D01*
X142517881Y-68463000D01*
X141962119Y-68463000D01*
X141448663Y-68675680D01*
X141055680Y-69068663D01*
X140843000Y-69582119D01*
X139985255Y-69582119D01*
X140286280Y-69457431D01*
X140577431Y-69166280D01*
X140735000Y-68785874D01*
X140735000Y-68374126D01*
X140577431Y-67993720D01*
X140286280Y-67702569D01*
X139905874Y-67545000D01*
X139494126Y-67545000D01*
X139113720Y-67702569D01*
X138822569Y-67993720D01*
X138665000Y-68374126D01*
X138665000Y-68575553D01*
X137961465Y-69279089D01*
X137900095Y-69320095D01*
X137895000Y-69327720D01*
X137895000Y-68038711D01*
X138037431Y-67896280D01*
X138195000Y-67515874D01*
X138195000Y-67104126D01*
X138037431Y-66723720D01*
X137746280Y-66432569D01*
X137365874Y-66275000D01*
X136954126Y-66275000D01*
X136573720Y-66432569D01*
X136282569Y-66723720D01*
X136125000Y-67104126D01*
X122862999Y-67104126D01*
X122862999Y-66136447D01*
X123194447Y-65805000D01*
X123395874Y-65805000D01*
X123776280Y-65647431D01*
X124067431Y-65356280D01*
X124225000Y-64975874D01*
X124225000Y-64564126D01*
X124067431Y-64183720D01*
X123943644Y-64059933D01*
X123981337Y-64044320D01*
X124374320Y-63651337D01*
X124587000Y-63137881D01*
X124587000Y-62582119D01*
X124374320Y-62068663D01*
X123981337Y-61675680D01*
X123907269Y-61645000D01*
X141522731Y-61645000D01*
X141448663Y-61675680D01*
X141055680Y-62068663D01*
X140843000Y-62582119D01*
X140843000Y-63137881D01*
X141055680Y-63651337D01*
X141448663Y-64044320D01*
X141962119Y-64257000D01*
X142517881Y-64257000D01*
X143031337Y-64044320D01*
X143424320Y-63651337D01*
X143637000Y-63137881D01*
X143637000Y-62582119D01*
X143424320Y-62068663D01*
X143031337Y-61675680D01*
X142957269Y-61645000D01*
X144736899Y-61645000D01*
X145239967Y-61708552D01*
X145420375Y-61779981D01*
X146512531Y-62872137D01*
X146539032Y-62928454D01*
X146610141Y-63301224D01*
X146585001Y-63427612D01*
X146585000Y-133422387D01*
X146606657Y-133531263D01*
X146571448Y-133809967D01*
X146500019Y-133990375D01*
X145407863Y-135082531D01*
X145351546Y-135109032D01*
X144978779Y-135180141D01*
X144852388Y-135155000D01*
X120577612Y-135155000D01*
X120468737Y-135176657D01*
X120190033Y-135141448D01*
X120009625Y-135070019D01*
X118917469Y-133977863D01*
X118890968Y-133921546D01*
X118819859Y-133548779D01*
X118845000Y-133422388D01*
X118845000Y-126075214D01*
X123234393Y-126075214D01*
X123303858Y-126317398D01*
X123827303Y-126504145D01*
X124382369Y-126476363D01*
X124766144Y-126317398D01*
X124835609Y-126075214D01*
X141014393Y-126075214D01*
X141083858Y-126317398D01*
X141607303Y-126504145D01*
X142162369Y-126476363D01*
X142546144Y-126317398D01*
X142615609Y-126075214D01*
X141815001Y-125274606D01*
X141014393Y-126075214D01*
X124835609Y-126075214D01*
X124035001Y-125274606D01*
X123234393Y-126075214D01*
X118845000Y-126075214D01*
X118845000Y-124887303D01*
X122625857Y-124887303D01*
X122653639Y-125442369D01*
X122812604Y-125826144D01*
X123054788Y-125895609D01*
X123855396Y-125095001D01*
X124214606Y-125095001D01*
X125015214Y-125895609D01*
X125257398Y-125826144D01*
X125444145Y-125302699D01*
X125423354Y-124887303D01*
X140405857Y-124887303D01*
X140433639Y-125442369D01*
X140592604Y-125826144D01*
X140834788Y-125895609D01*
X141635396Y-125095001D01*
X141994606Y-125095001D01*
X142795214Y-125895609D01*
X143037398Y-125826144D01*
X143224145Y-125302699D01*
X143196363Y-124747633D01*
X143037398Y-124363858D01*
X142795214Y-124294393D01*
X141994606Y-125095001D01*
X141635396Y-125095001D01*
X140834788Y-124294393D01*
X140592604Y-124363858D01*
X140405857Y-124887303D01*
X125423354Y-124887303D01*
X125416363Y-124747633D01*
X125257398Y-124363858D01*
X125015214Y-124294393D01*
X124214606Y-125095001D01*
X123855396Y-125095001D01*
X123054788Y-124294393D01*
X122812604Y-124363858D01*
X122625857Y-124887303D01*
X118845000Y-124887303D01*
X118845000Y-63427612D01*
X118823344Y-63318738D01*
X118858552Y-63040033D01*
X118929981Y-62859625D01*
X120022137Y-61767469D01*
X120078454Y-61740968D01*
X120565913Y-61647981D01*
X120660760Y-61645000D01*
X122472731Y-61645000D01*
X122398663Y-61675680D01*
X122398663Y-61675680D01*
G37*
X122398663Y-61675680D02*
X122005680Y-62068663D01*
X121793000Y-62582119D01*
X121793000Y-63137881D01*
X122005680Y-63651337D01*
X122398663Y-64044320D01*
X122436356Y-64059933D01*
X122312569Y-64183720D01*
X122155000Y-64564126D01*
X122155000Y-64765553D01*
X121659464Y-65261090D01*
X121598094Y-65302096D01*
X121435645Y-65545219D01*
X121392999Y-65759614D01*
X121392999Y-65759617D01*
X121378601Y-65832001D01*
X121392999Y-65904385D01*
X121393000Y-115495610D01*
X121378601Y-115567999D01*
X121435645Y-115854781D01*
X121546474Y-116020648D01*
X121598095Y-116097904D01*
X121659462Y-116138908D01*
X122661336Y-117140783D01*
X122638001Y-117197120D01*
X122638001Y-117752882D01*
X122850681Y-118266338D01*
X123243664Y-118659321D01*
X123450514Y-118745001D01*
X123243664Y-118830681D01*
X122850681Y-119223664D01*
X122638001Y-119737120D01*
X122638001Y-120292882D01*
X122850681Y-120806338D01*
X123243664Y-121199321D01*
X123450514Y-121285001D01*
X123243664Y-121370681D01*
X122850681Y-121763664D01*
X122638001Y-122277120D01*
X122638001Y-122832882D01*
X122850681Y-123346338D01*
X123243664Y-123739321D01*
X123434648Y-123818429D01*
X123303858Y-123872604D01*
X123234393Y-124114788D01*
X124035001Y-124915396D01*
X124835609Y-124114788D01*
X124766144Y-123872604D01*
X124625608Y-123822466D01*
X124826338Y-123739321D01*
X125219321Y-123346338D01*
X125432001Y-122832882D01*
X125432001Y-122277120D01*
X125219321Y-121763664D01*
X124826338Y-121370681D01*
X124619488Y-121285001D01*
X124826338Y-121199321D01*
X125219321Y-120806338D01*
X125432001Y-120292882D01*
X125432001Y-119737120D01*
X125219321Y-119223664D01*
X124826338Y-118830681D01*
X124619488Y-118745001D01*
X124826338Y-118659321D01*
X125219321Y-118266338D01*
X125432001Y-117752882D01*
X125432001Y-117197120D01*
X125219321Y-116683664D01*
X124826338Y-116290681D01*
X124619488Y-116205001D01*
X124826338Y-116119321D01*
X125219321Y-115726338D01*
X125432001Y-115212882D01*
X125432001Y-114657120D01*
X125219321Y-114143664D01*
X124826338Y-113750681D01*
X124619488Y-113665001D01*
X124826338Y-113579321D01*
X125219321Y-113186338D01*
X125432001Y-112672882D01*
X125432001Y-112117120D01*
X125219321Y-111603664D01*
X124826338Y-111210681D01*
X124619488Y-111125001D01*
X124826338Y-111039321D01*
X125219321Y-110646338D01*
X125432001Y-110132882D01*
X125432001Y-109577120D01*
X125219321Y-109063664D01*
X124826338Y-108670681D01*
X124619488Y-108585001D01*
X124826338Y-108499321D01*
X125219321Y-108106338D01*
X125432001Y-107592882D01*
X125432001Y-107037120D01*
X125219321Y-106523664D01*
X124826338Y-106130681D01*
X124619488Y-106045001D01*
X124826338Y-105959321D01*
X125219321Y-105566338D01*
X125432001Y-105052882D01*
X125432001Y-104497120D01*
X125219321Y-103983664D01*
X124826338Y-103590681D01*
X124619488Y-103505001D01*
X124826338Y-103419321D01*
X125219321Y-103026338D01*
X125432001Y-102512882D01*
X125432001Y-101957120D01*
X125219321Y-101443664D01*
X124826338Y-101050681D01*
X124619488Y-100965001D01*
X124826338Y-100879321D01*
X125219321Y-100486338D01*
X125432001Y-99972882D01*
X125432001Y-99417120D01*
X125219321Y-98903664D01*
X124826338Y-98510681D01*
X124619488Y-98425001D01*
X124826338Y-98339321D01*
X125219321Y-97946338D01*
X125432001Y-97432882D01*
X125432001Y-96877120D01*
X125219321Y-96363664D01*
X124826338Y-95970681D01*
X124619488Y-95885001D01*
X124826338Y-95799321D01*
X125219321Y-95406338D01*
X125432001Y-94892882D01*
X125432001Y-94337120D01*
X125219321Y-93823664D01*
X124826338Y-93430681D01*
X124619488Y-93345001D01*
X124826338Y-93259321D01*
X125219321Y-92866338D01*
X125432001Y-92352882D01*
X125432001Y-91797120D01*
X125219321Y-91283664D01*
X124826338Y-90890681D01*
X124619488Y-90805001D01*
X124826338Y-90719321D01*
X125219321Y-90326338D01*
X125432001Y-89812882D01*
X125432001Y-89257120D01*
X125219321Y-88743664D01*
X124826338Y-88350681D01*
X124619488Y-88265001D01*
X124826338Y-88179321D01*
X125219321Y-87786338D01*
X125432001Y-87272882D01*
X125432001Y-86717120D01*
X125219321Y-86203664D01*
X124826338Y-85810681D01*
X124619488Y-85725001D01*
X124826338Y-85639321D01*
X125219321Y-85246338D01*
X125432001Y-84732882D01*
X125432001Y-84177120D01*
X125219321Y-83663664D01*
X124826338Y-83270681D01*
X124312882Y-83058001D01*
X123757120Y-83058001D01*
X123243664Y-83270681D01*
X122862999Y-83651346D01*
X122862999Y-71236654D01*
X122912119Y-71257000D01*
X123467881Y-71257000D01*
X123981337Y-71044320D01*
X124374320Y-70651337D01*
X124587000Y-70137881D01*
X124587000Y-69582119D01*
X124374320Y-69068663D01*
X123981337Y-68675680D01*
X123467881Y-68463000D01*
X122912119Y-68463000D01*
X122862999Y-68483346D01*
X122862999Y-67104126D01*
X136125000Y-67104126D01*
X136125000Y-67515874D01*
X136282569Y-67896280D01*
X136425000Y-68038711D01*
X136425001Y-82267611D01*
X136410602Y-82340000D01*
X136467646Y-82626782D01*
X136467647Y-82626783D01*
X136630096Y-82869905D01*
X136691463Y-82910909D01*
X140441336Y-86660783D01*
X140418001Y-86717120D01*
X140418001Y-87272882D01*
X140630681Y-87786338D01*
X141023664Y-88179321D01*
X141230514Y-88265001D01*
X141023664Y-88350681D01*
X140630681Y-88743664D01*
X140418001Y-89257120D01*
X140418001Y-89812882D01*
X140630681Y-90326338D01*
X141023664Y-90719321D01*
X141230514Y-90805001D01*
X141023664Y-90890681D01*
X140630681Y-91283664D01*
X140418001Y-91797120D01*
X140418001Y-92352882D01*
X140630681Y-92866338D01*
X141023664Y-93259321D01*
X141230514Y-93345001D01*
X141023664Y-93430681D01*
X140630681Y-93823664D01*
X140418001Y-94337120D01*
X140418001Y-94892882D01*
X140630681Y-95406338D01*
X141023664Y-95799321D01*
X141230514Y-95885001D01*
X141023664Y-95970681D01*
X140630681Y-96363664D01*
X140418001Y-96877120D01*
X140418001Y-97432882D01*
X140630681Y-97946338D01*
X141023664Y-98339321D01*
X141230514Y-98425001D01*
X141023664Y-98510681D01*
X140630681Y-98903664D01*
X140418001Y-99417120D01*
X140418001Y-99972882D01*
X140630681Y-100486338D01*
X141023664Y-100879321D01*
X141230514Y-100965001D01*
X141023664Y-101050681D01*
X140630681Y-101443664D01*
X140418001Y-101957120D01*
X140418001Y-102512882D01*
X140630681Y-103026338D01*
X141023664Y-103419321D01*
X141230514Y-103505001D01*
X141023664Y-103590681D01*
X140630681Y-103983664D01*
X140418001Y-104497120D01*
X140418001Y-105052882D01*
X140630681Y-105566338D01*
X141023664Y-105959321D01*
X141230514Y-106045001D01*
X141023664Y-106130681D01*
X140630681Y-106523664D01*
X140418001Y-107037120D01*
X140418001Y-107592882D01*
X140630681Y-108106338D01*
X141023664Y-108499321D01*
X141230514Y-108585001D01*
X141023664Y-108670681D01*
X140630681Y-109063664D01*
X140418001Y-109577120D01*
X140418001Y-110132882D01*
X140630681Y-110646338D01*
X141023664Y-111039321D01*
X141230514Y-111125001D01*
X141023664Y-111210681D01*
X140630681Y-111603664D01*
X140418001Y-112117120D01*
X140418001Y-112672882D01*
X140630681Y-113186338D01*
X141023664Y-113579321D01*
X141230514Y-113665001D01*
X141023664Y-113750681D01*
X140630681Y-114143664D01*
X140418001Y-114657120D01*
X140418001Y-115212882D01*
X140630681Y-115726338D01*
X141023664Y-116119321D01*
X141230514Y-116205001D01*
X141023664Y-116290681D01*
X140630681Y-116683664D01*
X140418001Y-117197120D01*
X140418001Y-117752882D01*
X140630681Y-118266338D01*
X141023664Y-118659321D01*
X141230514Y-118745001D01*
X141023664Y-118830681D01*
X140630681Y-119223664D01*
X140418001Y-119737120D01*
X140418001Y-120292882D01*
X140630681Y-120806338D01*
X141023664Y-121199321D01*
X141230514Y-121285001D01*
X141023664Y-121370681D01*
X140630681Y-121763664D01*
X140418001Y-122277120D01*
X140418001Y-122832882D01*
X140630681Y-123346338D01*
X141023664Y-123739321D01*
X141214648Y-123818429D01*
X141083858Y-123872604D01*
X141014393Y-124114788D01*
X141815001Y-124915396D01*
X142615609Y-124114788D01*
X142546144Y-123872604D01*
X142405608Y-123822466D01*
X142606338Y-123739321D01*
X142999321Y-123346338D01*
X143212001Y-122832882D01*
X143212001Y-122277120D01*
X142999321Y-121763664D01*
X142606338Y-121370681D01*
X142399488Y-121285001D01*
X142606338Y-121199321D01*
X142999321Y-120806338D01*
X143212001Y-120292882D01*
X143212001Y-119737120D01*
X142999321Y-119223664D01*
X142606338Y-118830681D01*
X142399488Y-118745001D01*
X142606338Y-118659321D01*
X142999321Y-118266338D01*
X143212001Y-117752882D01*
X143212001Y-117197120D01*
X142999321Y-116683664D01*
X142606338Y-116290681D01*
X142399488Y-116205001D01*
X142606338Y-116119321D01*
X142999321Y-115726338D01*
X143212001Y-115212882D01*
X143212001Y-114657120D01*
X142999321Y-114143664D01*
X142606338Y-113750681D01*
X142399488Y-113665001D01*
X142606338Y-113579321D01*
X142999321Y-113186338D01*
X143212001Y-112672882D01*
X143212001Y-112117120D01*
X142999321Y-111603664D01*
X142606338Y-111210681D01*
X142399488Y-111125001D01*
X142606338Y-111039321D01*
X142999321Y-110646338D01*
X143212001Y-110132882D01*
X143212001Y-109577120D01*
X142999321Y-109063664D01*
X142606338Y-108670681D01*
X142399488Y-108585001D01*
X142606338Y-108499321D01*
X142999321Y-108106338D01*
X143212001Y-107592882D01*
X143212001Y-107037120D01*
X142999321Y-106523664D01*
X142606338Y-106130681D01*
X142399488Y-106045001D01*
X142606338Y-105959321D01*
X142999321Y-105566338D01*
X143212001Y-105052882D01*
X143212001Y-104497120D01*
X142999321Y-103983664D01*
X142606338Y-103590681D01*
X142399488Y-103505001D01*
X142606338Y-103419321D01*
X142999321Y-103026338D01*
X143212001Y-102512882D01*
X143212001Y-101957120D01*
X142999321Y-101443664D01*
X142606338Y-101050681D01*
X142399488Y-100965001D01*
X142606338Y-100879321D01*
X142999321Y-100486338D01*
X143212001Y-99972882D01*
X143212001Y-99417120D01*
X142999321Y-98903664D01*
X142606338Y-98510681D01*
X142399488Y-98425001D01*
X142606338Y-98339321D01*
X142999321Y-97946338D01*
X143212001Y-97432882D01*
X143212001Y-96877120D01*
X142999321Y-96363664D01*
X142606338Y-95970681D01*
X142399488Y-95885001D01*
X142606338Y-95799321D01*
X142999321Y-95406338D01*
X143212001Y-94892882D01*
X143212001Y-94337120D01*
X142999321Y-93823664D01*
X142606338Y-93430681D01*
X142399488Y-93345001D01*
X142606338Y-93259321D01*
X142999321Y-92866338D01*
X143212001Y-92352882D01*
X143212001Y-91797120D01*
X142999321Y-91283664D01*
X142606338Y-90890681D01*
X142399488Y-90805001D01*
X142606338Y-90719321D01*
X142999321Y-90326338D01*
X143212001Y-89812882D01*
X143212001Y-89257120D01*
X142999321Y-88743664D01*
X142606338Y-88350681D01*
X142399488Y-88265001D01*
X142606338Y-88179321D01*
X142999321Y-87786338D01*
X143212001Y-87272882D01*
X143212001Y-86717120D01*
X142999321Y-86203664D01*
X142606338Y-85810681D01*
X142399488Y-85725001D01*
X142606338Y-85639321D01*
X142999321Y-85246338D01*
X143212001Y-84732882D01*
X143212001Y-84177120D01*
X142999321Y-83663664D01*
X142606338Y-83270681D01*
X142092882Y-83058001D01*
X141537120Y-83058001D01*
X141480783Y-83081336D01*
X139165000Y-80765554D01*
X139165000Y-70154446D01*
X139704447Y-69615000D01*
X139905874Y-69615000D01*
X139985255Y-69582119D01*
X140843000Y-69582119D01*
X140843000Y-70137881D01*
X141055680Y-70651337D01*
X141448663Y-71044320D01*
X141962119Y-71257000D01*
X142517881Y-71257000D01*
X143031337Y-71044320D01*
X143424320Y-70651337D01*
X143637000Y-70137881D01*
X143637000Y-69582119D01*
X143424320Y-69068663D01*
X143031337Y-68675680D01*
X142517881Y-68463000D01*
X141962119Y-68463000D01*
X141448663Y-68675680D01*
X141055680Y-69068663D01*
X140843000Y-69582119D01*
X139985255Y-69582119D01*
X140286280Y-69457431D01*
X140577431Y-69166280D01*
X140735000Y-68785874D01*
X140735000Y-68374126D01*
X140577431Y-67993720D01*
X140286280Y-67702569D01*
X139905874Y-67545000D01*
X139494126Y-67545000D01*
X139113720Y-67702569D01*
X138822569Y-67993720D01*
X138665000Y-68374126D01*
X138665000Y-68575553D01*
X137961465Y-69279089D01*
X137900095Y-69320095D01*
X137895000Y-69327720D01*
X137895000Y-68038711D01*
X138037431Y-67896280D01*
X138195000Y-67515874D01*
X138195000Y-67104126D01*
X138037431Y-66723720D01*
X137746280Y-66432569D01*
X137365874Y-66275000D01*
X136954126Y-66275000D01*
X136573720Y-66432569D01*
X136282569Y-66723720D01*
X136125000Y-67104126D01*
X122862999Y-67104126D01*
X122862999Y-66136447D01*
X123194447Y-65805000D01*
X123395874Y-65805000D01*
X123776280Y-65647431D01*
X124067431Y-65356280D01*
X124225000Y-64975874D01*
X124225000Y-64564126D01*
X124067431Y-64183720D01*
X123943644Y-64059933D01*
X123981337Y-64044320D01*
X124374320Y-63651337D01*
X124587000Y-63137881D01*
X124587000Y-62582119D01*
X124374320Y-62068663D01*
X123981337Y-61675680D01*
X123907269Y-61645000D01*
X141522731Y-61645000D01*
X141448663Y-61675680D01*
X141055680Y-62068663D01*
X140843000Y-62582119D01*
X140843000Y-63137881D01*
X141055680Y-63651337D01*
X141448663Y-64044320D01*
X141962119Y-64257000D01*
X142517881Y-64257000D01*
X143031337Y-64044320D01*
X143424320Y-63651337D01*
X143637000Y-63137881D01*
X143637000Y-62582119D01*
X143424320Y-62068663D01*
X143031337Y-61675680D01*
X142957269Y-61645000D01*
X144736899Y-61645000D01*
X145239967Y-61708552D01*
X145420375Y-61779981D01*
X146512531Y-62872137D01*
X146539032Y-62928454D01*
X146610141Y-63301224D01*
X146585001Y-63427612D01*
X146585000Y-133422387D01*
X146606657Y-133531263D01*
X146571448Y-133809967D01*
X146500019Y-133990375D01*
X145407863Y-135082531D01*
X145351546Y-135109032D01*
X144978779Y-135180141D01*
X144852388Y-135155000D01*
X120577612Y-135155000D01*
X120468737Y-135176657D01*
X120190033Y-135141448D01*
X120009625Y-135070019D01*
X118917469Y-133977863D01*
X118890968Y-133921546D01*
X118819859Y-133548779D01*
X118845000Y-133422388D01*
X118845000Y-126075214D01*
X123234393Y-126075214D01*
X123303858Y-126317398D01*
X123827303Y-126504145D01*
X124382369Y-126476363D01*
X124766144Y-126317398D01*
X124835609Y-126075214D01*
X141014393Y-126075214D01*
X141083858Y-126317398D01*
X141607303Y-126504145D01*
X142162369Y-126476363D01*
X142546144Y-126317398D01*
X142615609Y-126075214D01*
X141815001Y-125274606D01*
X141014393Y-126075214D01*
X124835609Y-126075214D01*
X124035001Y-125274606D01*
X123234393Y-126075214D01*
X118845000Y-126075214D01*
X118845000Y-124887303D01*
X122625857Y-124887303D01*
X122653639Y-125442369D01*
X122812604Y-125826144D01*
X123054788Y-125895609D01*
X123855396Y-125095001D01*
X124214606Y-125095001D01*
X125015214Y-125895609D01*
X125257398Y-125826144D01*
X125444145Y-125302699D01*
X125423354Y-124887303D01*
X140405857Y-124887303D01*
X140433639Y-125442369D01*
X140592604Y-125826144D01*
X140834788Y-125895609D01*
X141635396Y-125095001D01*
X141994606Y-125095001D01*
X142795214Y-125895609D01*
X143037398Y-125826144D01*
X143224145Y-125302699D01*
X143196363Y-124747633D01*
X143037398Y-124363858D01*
X142795214Y-124294393D01*
X141994606Y-125095001D01*
X141635396Y-125095001D01*
X140834788Y-124294393D01*
X140592604Y-124363858D01*
X140405857Y-124887303D01*
X125423354Y-124887303D01*
X125416363Y-124747633D01*
X125257398Y-124363858D01*
X125015214Y-124294393D01*
X124214606Y-125095001D01*
X123855396Y-125095001D01*
X123054788Y-124294393D01*
X122812604Y-124363858D01*
X122625857Y-124887303D01*
X118845000Y-124887303D01*
X118845000Y-63427612D01*
X118823344Y-63318738D01*
X118858552Y-63040033D01*
X118929981Y-62859625D01*
X120022137Y-61767469D01*
X120078454Y-61740968D01*
X120565913Y-61647981D01*
X120660760Y-61645000D01*
X122472731Y-61645000D01*
X122398663Y-61675680D01*
G04 #@! TD*
M02*
