G04 #@! TF.GenerationSoftware,KiCad,Pcbnew,5.0.2-bee76a0~70~ubuntu18.04.1*
G04 #@! TF.CreationDate,2018-12-19T04:14:58+09:00*
G04 #@! TF.ProjectId,pendant,70656e64-616e-4742-9e6b-696361645f70,rev?*
G04 #@! TF.SameCoordinates,Original*
G04 #@! TF.FileFunction,Copper,L1,Top*
G04 #@! TF.FilePolarity,Positive*
%FSLAX46Y46*%
G04 Gerber Fmt 4.6, Leading zero omitted, Abs format (unit mm)*
G04 Created by KiCad (PCBNEW 5.0.2-bee76a0~70~ubuntu18.04.1) date 2018年12月19日 04時14分58秒*
%MOMM*%
%LPD*%
G01*
G04 APERTURE LIST*
G04 #@! TA.AperFunction,ComponentPad*
%ADD10C,1.524000*%
G04 #@! TD*
G04 #@! TA.AperFunction,SMDPad,CuDef*
%ADD11R,2.000000X1.200000*%
G04 #@! TD*
G04 #@! TA.AperFunction,Conductor*
%ADD12C,0.100000*%
G04 #@! TD*
G04 #@! TA.AperFunction,SMDPad,CuDef*
%ADD13C,0.875000*%
G04 #@! TD*
G04 #@! TA.AperFunction,ViaPad*
%ADD14C,0.800000*%
G04 #@! TD*
G04 #@! TA.AperFunction,Conductor*
%ADD15C,0.200000*%
G04 #@! TD*
G04 #@! TA.AperFunction,Conductor*
%ADD16C,0.600000*%
G04 #@! TD*
G04 #@! TA.AperFunction,Conductor*
%ADD17C,0.254000*%
G04 #@! TD*
G04 APERTURE END LIST*
D10*
G04 #@! TO.P,U1,1*
G04 #@! TO.N,Net-(U1-Pad1)*
X124035001Y-84455001D03*
G04 #@! TO.P,U1,2*
G04 #@! TO.N,Net-(U1-Pad2)*
X124035001Y-86995001D03*
G04 #@! TO.P,U1,3*
G04 #@! TO.N,Net-(U1-Pad3)*
X124035001Y-89535001D03*
G04 #@! TO.P,U1,4*
G04 #@! TO.N,Net-(U1-Pad4)*
X124035001Y-92075001D03*
G04 #@! TO.P,U1,5*
G04 #@! TO.N,Net-(U1-Pad5)*
X124035001Y-94615001D03*
G04 #@! TO.P,U1,6*
G04 #@! TO.N,Net-(U1-Pad6)*
X124035001Y-97155001D03*
G04 #@! TO.P,U1,7*
G04 #@! TO.N,Net-(U1-Pad7)*
X124035001Y-99695001D03*
G04 #@! TO.P,U1,8*
G04 #@! TO.N,Net-(U1-Pad8)*
X124035001Y-102235001D03*
G04 #@! TO.P,U1,9*
G04 #@! TO.N,Net-(U1-Pad9)*
X124035001Y-104775001D03*
G04 #@! TO.P,U1,10*
G04 #@! TO.N,Net-(U1-Pad10)*
X124035001Y-107315001D03*
G04 #@! TO.P,U1,11*
G04 #@! TO.N,Net-(U1-Pad11)*
X124035001Y-109855001D03*
G04 #@! TO.P,U1,12*
G04 #@! TO.N,Net-(U1-Pad12)*
X124035001Y-112395001D03*
G04 #@! TO.P,U1,13*
G04 #@! TO.N,Net-(U1-Pad13)*
X124035001Y-114935001D03*
G04 #@! TO.P,U1,14*
G04 #@! TO.N,SCL1*
X124035001Y-117475001D03*
G04 #@! TO.P,U1,15*
G04 #@! TO.N,SDA1*
X124035001Y-120015001D03*
G04 #@! TO.P,U1,16*
G04 #@! TO.N,3V3*
X124035001Y-122555001D03*
G04 #@! TO.P,U1,17*
G04 #@! TO.N,GND*
X124035001Y-125095001D03*
G04 #@! TO.P,U1,18*
X141815001Y-125095001D03*
G04 #@! TO.P,U1,19*
G04 #@! TO.N,Net-(U1-Pad19)*
X141815001Y-122555001D03*
G04 #@! TO.P,U1,20*
G04 #@! TO.N,Net-(U1-Pad20)*
X141815001Y-120015001D03*
G04 #@! TO.P,U1,21*
G04 #@! TO.N,Net-(U1-Pad21)*
X141815001Y-117475001D03*
G04 #@! TO.P,U1,22*
G04 #@! TO.N,Net-(U1-Pad22)*
X141815001Y-114935001D03*
G04 #@! TO.P,U1,23*
G04 #@! TO.N,Net-(U1-Pad23)*
X141815001Y-112395001D03*
G04 #@! TO.P,U1,24*
G04 #@! TO.N,Net-(U1-Pad24)*
X141815001Y-109855001D03*
G04 #@! TO.P,U1,25*
G04 #@! TO.N,Net-(U1-Pad25)*
X141815001Y-107315001D03*
G04 #@! TO.P,U1,26*
G04 #@! TO.N,Net-(U1-Pad26)*
X141815001Y-104775001D03*
G04 #@! TO.P,U1,27*
G04 #@! TO.N,Net-(U1-Pad27)*
X141815001Y-102235001D03*
G04 #@! TO.P,U1,28*
G04 #@! TO.N,Net-(U1-Pad28)*
X141815001Y-99695001D03*
G04 #@! TO.P,U1,29*
G04 #@! TO.N,Net-(U1-Pad29)*
X141815001Y-97155001D03*
G04 #@! TO.P,U1,30*
G04 #@! TO.N,Net-(U1-Pad30)*
X141815001Y-94615001D03*
G04 #@! TO.P,U1,31*
G04 #@! TO.N,Net-(U1-Pad31)*
X141815001Y-92075001D03*
G04 #@! TO.P,U1,32*
G04 #@! TO.N,Net-(U1-Pad32)*
X141815001Y-89535001D03*
G04 #@! TO.P,U1,33*
G04 #@! TO.N,SCL2*
X141815001Y-86995001D03*
G04 #@! TO.P,U1,34*
G04 #@! TO.N,SDA2*
X141815001Y-84455001D03*
G04 #@! TD*
D11*
G04 #@! TO.P,J1,R2*
G04 #@! TO.N,SDA1*
X127090000Y-64460000D03*
G04 #@! TO.P,J1,R1*
G04 #@! TO.N,SCL1*
X127090000Y-67460000D03*
G04 #@! TO.P,J1,T*
G04 #@! TO.N,3V3*
X127090000Y-71460000D03*
G04 #@! TO.P,J1,S*
G04 #@! TO.N,GND*
X119290000Y-72560000D03*
G04 #@! TD*
G04 #@! TO.P,J2,R2*
G04 #@! TO.N,SDA2*
X146140000Y-64460000D03*
G04 #@! TO.P,J2,R1*
G04 #@! TO.N,SCL2*
X146140000Y-67460000D03*
G04 #@! TO.P,J2,T*
G04 #@! TO.N,3V3*
X146140000Y-71460000D03*
G04 #@! TO.P,J2,S*
G04 #@! TO.N,GND*
X138340000Y-72560000D03*
G04 #@! TD*
D12*
G04 #@! TO.N,SDA1*
G04 #@! TO.C,R1*
G36*
X131087691Y-62276053D02*
X131108926Y-62279203D01*
X131129750Y-62284419D01*
X131149962Y-62291651D01*
X131169368Y-62300830D01*
X131187781Y-62311866D01*
X131205024Y-62324654D01*
X131220930Y-62339070D01*
X131235346Y-62354976D01*
X131248134Y-62372219D01*
X131259170Y-62390632D01*
X131268349Y-62410038D01*
X131275581Y-62430250D01*
X131280797Y-62451074D01*
X131283947Y-62472309D01*
X131285000Y-62493750D01*
X131285000Y-62931250D01*
X131283947Y-62952691D01*
X131280797Y-62973926D01*
X131275581Y-62994750D01*
X131268349Y-63014962D01*
X131259170Y-63034368D01*
X131248134Y-63052781D01*
X131235346Y-63070024D01*
X131220930Y-63085930D01*
X131205024Y-63100346D01*
X131187781Y-63113134D01*
X131169368Y-63124170D01*
X131149962Y-63133349D01*
X131129750Y-63140581D01*
X131108926Y-63145797D01*
X131087691Y-63148947D01*
X131066250Y-63150000D01*
X130553750Y-63150000D01*
X130532309Y-63148947D01*
X130511074Y-63145797D01*
X130490250Y-63140581D01*
X130470038Y-63133349D01*
X130450632Y-63124170D01*
X130432219Y-63113134D01*
X130414976Y-63100346D01*
X130399070Y-63085930D01*
X130384654Y-63070024D01*
X130371866Y-63052781D01*
X130360830Y-63034368D01*
X130351651Y-63014962D01*
X130344419Y-62994750D01*
X130339203Y-62973926D01*
X130336053Y-62952691D01*
X130335000Y-62931250D01*
X130335000Y-62493750D01*
X130336053Y-62472309D01*
X130339203Y-62451074D01*
X130344419Y-62430250D01*
X130351651Y-62410038D01*
X130360830Y-62390632D01*
X130371866Y-62372219D01*
X130384654Y-62354976D01*
X130399070Y-62339070D01*
X130414976Y-62324654D01*
X130432219Y-62311866D01*
X130450632Y-62300830D01*
X130470038Y-62291651D01*
X130490250Y-62284419D01*
X130511074Y-62279203D01*
X130532309Y-62276053D01*
X130553750Y-62275000D01*
X131066250Y-62275000D01*
X131087691Y-62276053D01*
X131087691Y-62276053D01*
G37*
D13*
G04 #@! TD*
G04 #@! TO.P,R1,2*
G04 #@! TO.N,SDA1*
X130810000Y-62712500D03*
D12*
G04 #@! TO.N,3V3*
G04 #@! TO.C,R1*
G36*
X131087691Y-63851053D02*
X131108926Y-63854203D01*
X131129750Y-63859419D01*
X131149962Y-63866651D01*
X131169368Y-63875830D01*
X131187781Y-63886866D01*
X131205024Y-63899654D01*
X131220930Y-63914070D01*
X131235346Y-63929976D01*
X131248134Y-63947219D01*
X131259170Y-63965632D01*
X131268349Y-63985038D01*
X131275581Y-64005250D01*
X131280797Y-64026074D01*
X131283947Y-64047309D01*
X131285000Y-64068750D01*
X131285000Y-64506250D01*
X131283947Y-64527691D01*
X131280797Y-64548926D01*
X131275581Y-64569750D01*
X131268349Y-64589962D01*
X131259170Y-64609368D01*
X131248134Y-64627781D01*
X131235346Y-64645024D01*
X131220930Y-64660930D01*
X131205024Y-64675346D01*
X131187781Y-64688134D01*
X131169368Y-64699170D01*
X131149962Y-64708349D01*
X131129750Y-64715581D01*
X131108926Y-64720797D01*
X131087691Y-64723947D01*
X131066250Y-64725000D01*
X130553750Y-64725000D01*
X130532309Y-64723947D01*
X130511074Y-64720797D01*
X130490250Y-64715581D01*
X130470038Y-64708349D01*
X130450632Y-64699170D01*
X130432219Y-64688134D01*
X130414976Y-64675346D01*
X130399070Y-64660930D01*
X130384654Y-64645024D01*
X130371866Y-64627781D01*
X130360830Y-64609368D01*
X130351651Y-64589962D01*
X130344419Y-64569750D01*
X130339203Y-64548926D01*
X130336053Y-64527691D01*
X130335000Y-64506250D01*
X130335000Y-64068750D01*
X130336053Y-64047309D01*
X130339203Y-64026074D01*
X130344419Y-64005250D01*
X130351651Y-63985038D01*
X130360830Y-63965632D01*
X130371866Y-63947219D01*
X130384654Y-63929976D01*
X130399070Y-63914070D01*
X130414976Y-63899654D01*
X130432219Y-63886866D01*
X130450632Y-63875830D01*
X130470038Y-63866651D01*
X130490250Y-63859419D01*
X130511074Y-63854203D01*
X130532309Y-63851053D01*
X130553750Y-63850000D01*
X131066250Y-63850000D01*
X131087691Y-63851053D01*
X131087691Y-63851053D01*
G37*
D13*
G04 #@! TD*
G04 #@! TO.P,R1,1*
G04 #@! TO.N,3V3*
X130810000Y-64287500D03*
D12*
G04 #@! TO.N,SDA2*
G04 #@! TO.C,R2*
G36*
X134897691Y-62276053D02*
X134918926Y-62279203D01*
X134939750Y-62284419D01*
X134959962Y-62291651D01*
X134979368Y-62300830D01*
X134997781Y-62311866D01*
X135015024Y-62324654D01*
X135030930Y-62339070D01*
X135045346Y-62354976D01*
X135058134Y-62372219D01*
X135069170Y-62390632D01*
X135078349Y-62410038D01*
X135085581Y-62430250D01*
X135090797Y-62451074D01*
X135093947Y-62472309D01*
X135095000Y-62493750D01*
X135095000Y-62931250D01*
X135093947Y-62952691D01*
X135090797Y-62973926D01*
X135085581Y-62994750D01*
X135078349Y-63014962D01*
X135069170Y-63034368D01*
X135058134Y-63052781D01*
X135045346Y-63070024D01*
X135030930Y-63085930D01*
X135015024Y-63100346D01*
X134997781Y-63113134D01*
X134979368Y-63124170D01*
X134959962Y-63133349D01*
X134939750Y-63140581D01*
X134918926Y-63145797D01*
X134897691Y-63148947D01*
X134876250Y-63150000D01*
X134363750Y-63150000D01*
X134342309Y-63148947D01*
X134321074Y-63145797D01*
X134300250Y-63140581D01*
X134280038Y-63133349D01*
X134260632Y-63124170D01*
X134242219Y-63113134D01*
X134224976Y-63100346D01*
X134209070Y-63085930D01*
X134194654Y-63070024D01*
X134181866Y-63052781D01*
X134170830Y-63034368D01*
X134161651Y-63014962D01*
X134154419Y-62994750D01*
X134149203Y-62973926D01*
X134146053Y-62952691D01*
X134145000Y-62931250D01*
X134145000Y-62493750D01*
X134146053Y-62472309D01*
X134149203Y-62451074D01*
X134154419Y-62430250D01*
X134161651Y-62410038D01*
X134170830Y-62390632D01*
X134181866Y-62372219D01*
X134194654Y-62354976D01*
X134209070Y-62339070D01*
X134224976Y-62324654D01*
X134242219Y-62311866D01*
X134260632Y-62300830D01*
X134280038Y-62291651D01*
X134300250Y-62284419D01*
X134321074Y-62279203D01*
X134342309Y-62276053D01*
X134363750Y-62275000D01*
X134876250Y-62275000D01*
X134897691Y-62276053D01*
X134897691Y-62276053D01*
G37*
D13*
G04 #@! TD*
G04 #@! TO.P,R2,2*
G04 #@! TO.N,SDA2*
X134620000Y-62712500D03*
D12*
G04 #@! TO.N,3V3*
G04 #@! TO.C,R2*
G36*
X134897691Y-63851053D02*
X134918926Y-63854203D01*
X134939750Y-63859419D01*
X134959962Y-63866651D01*
X134979368Y-63875830D01*
X134997781Y-63886866D01*
X135015024Y-63899654D01*
X135030930Y-63914070D01*
X135045346Y-63929976D01*
X135058134Y-63947219D01*
X135069170Y-63965632D01*
X135078349Y-63985038D01*
X135085581Y-64005250D01*
X135090797Y-64026074D01*
X135093947Y-64047309D01*
X135095000Y-64068750D01*
X135095000Y-64506250D01*
X135093947Y-64527691D01*
X135090797Y-64548926D01*
X135085581Y-64569750D01*
X135078349Y-64589962D01*
X135069170Y-64609368D01*
X135058134Y-64627781D01*
X135045346Y-64645024D01*
X135030930Y-64660930D01*
X135015024Y-64675346D01*
X134997781Y-64688134D01*
X134979368Y-64699170D01*
X134959962Y-64708349D01*
X134939750Y-64715581D01*
X134918926Y-64720797D01*
X134897691Y-64723947D01*
X134876250Y-64725000D01*
X134363750Y-64725000D01*
X134342309Y-64723947D01*
X134321074Y-64720797D01*
X134300250Y-64715581D01*
X134280038Y-64708349D01*
X134260632Y-64699170D01*
X134242219Y-64688134D01*
X134224976Y-64675346D01*
X134209070Y-64660930D01*
X134194654Y-64645024D01*
X134181866Y-64627781D01*
X134170830Y-64609368D01*
X134161651Y-64589962D01*
X134154419Y-64569750D01*
X134149203Y-64548926D01*
X134146053Y-64527691D01*
X134145000Y-64506250D01*
X134145000Y-64068750D01*
X134146053Y-64047309D01*
X134149203Y-64026074D01*
X134154419Y-64005250D01*
X134161651Y-63985038D01*
X134170830Y-63965632D01*
X134181866Y-63947219D01*
X134194654Y-63929976D01*
X134209070Y-63914070D01*
X134224976Y-63899654D01*
X134242219Y-63886866D01*
X134260632Y-63875830D01*
X134280038Y-63866651D01*
X134300250Y-63859419D01*
X134321074Y-63854203D01*
X134342309Y-63851053D01*
X134363750Y-63850000D01*
X134876250Y-63850000D01*
X134897691Y-63851053D01*
X134897691Y-63851053D01*
G37*
D13*
G04 #@! TD*
G04 #@! TO.P,R2,1*
G04 #@! TO.N,3V3*
X134620000Y-64287500D03*
D12*
G04 #@! TO.N,3V3*
G04 #@! TO.C,R3*
G36*
X131087691Y-67356053D02*
X131108926Y-67359203D01*
X131129750Y-67364419D01*
X131149962Y-67371651D01*
X131169368Y-67380830D01*
X131187781Y-67391866D01*
X131205024Y-67404654D01*
X131220930Y-67419070D01*
X131235346Y-67434976D01*
X131248134Y-67452219D01*
X131259170Y-67470632D01*
X131268349Y-67490038D01*
X131275581Y-67510250D01*
X131280797Y-67531074D01*
X131283947Y-67552309D01*
X131285000Y-67573750D01*
X131285000Y-68011250D01*
X131283947Y-68032691D01*
X131280797Y-68053926D01*
X131275581Y-68074750D01*
X131268349Y-68094962D01*
X131259170Y-68114368D01*
X131248134Y-68132781D01*
X131235346Y-68150024D01*
X131220930Y-68165930D01*
X131205024Y-68180346D01*
X131187781Y-68193134D01*
X131169368Y-68204170D01*
X131149962Y-68213349D01*
X131129750Y-68220581D01*
X131108926Y-68225797D01*
X131087691Y-68228947D01*
X131066250Y-68230000D01*
X130553750Y-68230000D01*
X130532309Y-68228947D01*
X130511074Y-68225797D01*
X130490250Y-68220581D01*
X130470038Y-68213349D01*
X130450632Y-68204170D01*
X130432219Y-68193134D01*
X130414976Y-68180346D01*
X130399070Y-68165930D01*
X130384654Y-68150024D01*
X130371866Y-68132781D01*
X130360830Y-68114368D01*
X130351651Y-68094962D01*
X130344419Y-68074750D01*
X130339203Y-68053926D01*
X130336053Y-68032691D01*
X130335000Y-68011250D01*
X130335000Y-67573750D01*
X130336053Y-67552309D01*
X130339203Y-67531074D01*
X130344419Y-67510250D01*
X130351651Y-67490038D01*
X130360830Y-67470632D01*
X130371866Y-67452219D01*
X130384654Y-67434976D01*
X130399070Y-67419070D01*
X130414976Y-67404654D01*
X130432219Y-67391866D01*
X130450632Y-67380830D01*
X130470038Y-67371651D01*
X130490250Y-67364419D01*
X130511074Y-67359203D01*
X130532309Y-67356053D01*
X130553750Y-67355000D01*
X131066250Y-67355000D01*
X131087691Y-67356053D01*
X131087691Y-67356053D01*
G37*
D13*
G04 #@! TD*
G04 #@! TO.P,R3,1*
G04 #@! TO.N,3V3*
X130810000Y-67792500D03*
D12*
G04 #@! TO.N,SCL1*
G04 #@! TO.C,R3*
G36*
X131087691Y-68931053D02*
X131108926Y-68934203D01*
X131129750Y-68939419D01*
X131149962Y-68946651D01*
X131169368Y-68955830D01*
X131187781Y-68966866D01*
X131205024Y-68979654D01*
X131220930Y-68994070D01*
X131235346Y-69009976D01*
X131248134Y-69027219D01*
X131259170Y-69045632D01*
X131268349Y-69065038D01*
X131275581Y-69085250D01*
X131280797Y-69106074D01*
X131283947Y-69127309D01*
X131285000Y-69148750D01*
X131285000Y-69586250D01*
X131283947Y-69607691D01*
X131280797Y-69628926D01*
X131275581Y-69649750D01*
X131268349Y-69669962D01*
X131259170Y-69689368D01*
X131248134Y-69707781D01*
X131235346Y-69725024D01*
X131220930Y-69740930D01*
X131205024Y-69755346D01*
X131187781Y-69768134D01*
X131169368Y-69779170D01*
X131149962Y-69788349D01*
X131129750Y-69795581D01*
X131108926Y-69800797D01*
X131087691Y-69803947D01*
X131066250Y-69805000D01*
X130553750Y-69805000D01*
X130532309Y-69803947D01*
X130511074Y-69800797D01*
X130490250Y-69795581D01*
X130470038Y-69788349D01*
X130450632Y-69779170D01*
X130432219Y-69768134D01*
X130414976Y-69755346D01*
X130399070Y-69740930D01*
X130384654Y-69725024D01*
X130371866Y-69707781D01*
X130360830Y-69689368D01*
X130351651Y-69669962D01*
X130344419Y-69649750D01*
X130339203Y-69628926D01*
X130336053Y-69607691D01*
X130335000Y-69586250D01*
X130335000Y-69148750D01*
X130336053Y-69127309D01*
X130339203Y-69106074D01*
X130344419Y-69085250D01*
X130351651Y-69065038D01*
X130360830Y-69045632D01*
X130371866Y-69027219D01*
X130384654Y-69009976D01*
X130399070Y-68994070D01*
X130414976Y-68979654D01*
X130432219Y-68966866D01*
X130450632Y-68955830D01*
X130470038Y-68946651D01*
X130490250Y-68939419D01*
X130511074Y-68934203D01*
X130532309Y-68931053D01*
X130553750Y-68930000D01*
X131066250Y-68930000D01*
X131087691Y-68931053D01*
X131087691Y-68931053D01*
G37*
D13*
G04 #@! TD*
G04 #@! TO.P,R3,2*
G04 #@! TO.N,SCL1*
X130810000Y-69367500D03*
D12*
G04 #@! TO.N,3V3*
G04 #@! TO.C,R4*
G36*
X134897691Y-67356053D02*
X134918926Y-67359203D01*
X134939750Y-67364419D01*
X134959962Y-67371651D01*
X134979368Y-67380830D01*
X134997781Y-67391866D01*
X135015024Y-67404654D01*
X135030930Y-67419070D01*
X135045346Y-67434976D01*
X135058134Y-67452219D01*
X135069170Y-67470632D01*
X135078349Y-67490038D01*
X135085581Y-67510250D01*
X135090797Y-67531074D01*
X135093947Y-67552309D01*
X135095000Y-67573750D01*
X135095000Y-68011250D01*
X135093947Y-68032691D01*
X135090797Y-68053926D01*
X135085581Y-68074750D01*
X135078349Y-68094962D01*
X135069170Y-68114368D01*
X135058134Y-68132781D01*
X135045346Y-68150024D01*
X135030930Y-68165930D01*
X135015024Y-68180346D01*
X134997781Y-68193134D01*
X134979368Y-68204170D01*
X134959962Y-68213349D01*
X134939750Y-68220581D01*
X134918926Y-68225797D01*
X134897691Y-68228947D01*
X134876250Y-68230000D01*
X134363750Y-68230000D01*
X134342309Y-68228947D01*
X134321074Y-68225797D01*
X134300250Y-68220581D01*
X134280038Y-68213349D01*
X134260632Y-68204170D01*
X134242219Y-68193134D01*
X134224976Y-68180346D01*
X134209070Y-68165930D01*
X134194654Y-68150024D01*
X134181866Y-68132781D01*
X134170830Y-68114368D01*
X134161651Y-68094962D01*
X134154419Y-68074750D01*
X134149203Y-68053926D01*
X134146053Y-68032691D01*
X134145000Y-68011250D01*
X134145000Y-67573750D01*
X134146053Y-67552309D01*
X134149203Y-67531074D01*
X134154419Y-67510250D01*
X134161651Y-67490038D01*
X134170830Y-67470632D01*
X134181866Y-67452219D01*
X134194654Y-67434976D01*
X134209070Y-67419070D01*
X134224976Y-67404654D01*
X134242219Y-67391866D01*
X134260632Y-67380830D01*
X134280038Y-67371651D01*
X134300250Y-67364419D01*
X134321074Y-67359203D01*
X134342309Y-67356053D01*
X134363750Y-67355000D01*
X134876250Y-67355000D01*
X134897691Y-67356053D01*
X134897691Y-67356053D01*
G37*
D13*
G04 #@! TD*
G04 #@! TO.P,R4,1*
G04 #@! TO.N,3V3*
X134620000Y-67792500D03*
D12*
G04 #@! TO.N,SCL2*
G04 #@! TO.C,R4*
G36*
X134897691Y-68931053D02*
X134918926Y-68934203D01*
X134939750Y-68939419D01*
X134959962Y-68946651D01*
X134979368Y-68955830D01*
X134997781Y-68966866D01*
X135015024Y-68979654D01*
X135030930Y-68994070D01*
X135045346Y-69009976D01*
X135058134Y-69027219D01*
X135069170Y-69045632D01*
X135078349Y-69065038D01*
X135085581Y-69085250D01*
X135090797Y-69106074D01*
X135093947Y-69127309D01*
X135095000Y-69148750D01*
X135095000Y-69586250D01*
X135093947Y-69607691D01*
X135090797Y-69628926D01*
X135085581Y-69649750D01*
X135078349Y-69669962D01*
X135069170Y-69689368D01*
X135058134Y-69707781D01*
X135045346Y-69725024D01*
X135030930Y-69740930D01*
X135015024Y-69755346D01*
X134997781Y-69768134D01*
X134979368Y-69779170D01*
X134959962Y-69788349D01*
X134939750Y-69795581D01*
X134918926Y-69800797D01*
X134897691Y-69803947D01*
X134876250Y-69805000D01*
X134363750Y-69805000D01*
X134342309Y-69803947D01*
X134321074Y-69800797D01*
X134300250Y-69795581D01*
X134280038Y-69788349D01*
X134260632Y-69779170D01*
X134242219Y-69768134D01*
X134224976Y-69755346D01*
X134209070Y-69740930D01*
X134194654Y-69725024D01*
X134181866Y-69707781D01*
X134170830Y-69689368D01*
X134161651Y-69669962D01*
X134154419Y-69649750D01*
X134149203Y-69628926D01*
X134146053Y-69607691D01*
X134145000Y-69586250D01*
X134145000Y-69148750D01*
X134146053Y-69127309D01*
X134149203Y-69106074D01*
X134154419Y-69085250D01*
X134161651Y-69065038D01*
X134170830Y-69045632D01*
X134181866Y-69027219D01*
X134194654Y-69009976D01*
X134209070Y-68994070D01*
X134224976Y-68979654D01*
X134242219Y-68966866D01*
X134260632Y-68955830D01*
X134280038Y-68946651D01*
X134300250Y-68939419D01*
X134321074Y-68934203D01*
X134342309Y-68931053D01*
X134363750Y-68930000D01*
X134876250Y-68930000D01*
X134897691Y-68931053D01*
X134897691Y-68931053D01*
G37*
D13*
G04 #@! TD*
G04 #@! TO.P,R4,2*
G04 #@! TO.N,SCL2*
X134620000Y-69367500D03*
D14*
G04 #@! TO.N,3V3*
X129540000Y-67945000D03*
X127635000Y-69850000D03*
G04 #@! TO.N,SDA1*
X121285000Y-65405000D03*
G04 #@! TO.N,SCL1*
X121285000Y-68580000D03*
G04 #@! TO.N,SCL2*
X144145000Y-69850000D03*
G04 #@! TO.N,SDA2*
X144145000Y-66040000D03*
G04 #@! TD*
D15*
G04 #@! TO.N,3V3*
X130810000Y-64287500D02*
X130810000Y-67792500D01*
X134620000Y-64287500D02*
X134620000Y-67792500D01*
X134620000Y-67792500D02*
X130810000Y-67792500D01*
X130810000Y-67792500D02*
X129692500Y-67792500D01*
X129692500Y-67792500D02*
X129540000Y-67945000D01*
X127635000Y-70915000D02*
X127090000Y-71460000D01*
X127635000Y-69850000D02*
X127635000Y-70915000D01*
D16*
X127090000Y-119500002D02*
X124035001Y-122555001D01*
X127090000Y-71460000D02*
X127090000Y-119500002D01*
X128690000Y-71460000D02*
X146140000Y-71460000D01*
X127090000Y-71460000D02*
X128690000Y-71460000D01*
D15*
G04 #@! TO.N,SDA1*
X127090000Y-63660000D02*
X127090000Y-64460000D01*
X128037500Y-62712500D02*
X127090000Y-63660000D01*
X130810000Y-62712500D02*
X128037500Y-62712500D01*
X127090000Y-64460000D02*
X122230000Y-64460000D01*
X122230000Y-64460000D02*
X121285000Y-65405000D01*
G04 #@! TO.N,SCL1*
X127150000Y-67460000D02*
X127090000Y-67460000D01*
X130810000Y-69367500D02*
X129057500Y-69367500D01*
X129057500Y-69367500D02*
X127150000Y-67460000D01*
X127090000Y-67460000D02*
X122405000Y-67460000D01*
X122405000Y-67460000D02*
X121285000Y-68580000D01*
G04 #@! TO.N,SCL2*
X144940000Y-67460000D02*
X146140000Y-67460000D01*
X137102500Y-67460000D02*
X144940000Y-67460000D01*
X135195000Y-69367500D02*
X137102500Y-67460000D01*
X134620000Y-69367500D02*
X135195000Y-69367500D01*
X144145000Y-69055000D02*
X144145000Y-69850000D01*
X146140000Y-67460000D02*
X145740000Y-67460000D01*
X145740000Y-67460000D02*
X144145000Y-69055000D01*
G04 #@! TO.N,SDA2*
X144940000Y-64460000D02*
X146140000Y-64460000D01*
X135195000Y-62712500D02*
X136942500Y-64460000D01*
X136942500Y-64460000D02*
X144940000Y-64460000D01*
X134620000Y-62712500D02*
X135195000Y-62712500D01*
X146140000Y-64460000D02*
X145740000Y-64460000D01*
X144160000Y-66040000D02*
X144145000Y-66040000D01*
X145740000Y-64460000D02*
X144160000Y-66040000D01*
G04 #@! TD*
D17*
G04 #@! TO.N,GND*
G36*
X130222273Y-61693495D02*
X129941261Y-61881261D01*
X129876956Y-61977500D01*
X128109883Y-61977500D01*
X128037499Y-61963102D01*
X127965115Y-61977500D01*
X127965112Y-61977500D01*
X127750717Y-62020146D01*
X127507595Y-62182595D01*
X127466590Y-62243963D01*
X126621465Y-63089089D01*
X126560095Y-63130095D01*
X126504994Y-63212560D01*
X126090000Y-63212560D01*
X125842235Y-63261843D01*
X125632191Y-63402191D01*
X125491843Y-63612235D01*
X125469413Y-63725000D01*
X123894776Y-63725000D01*
X124131012Y-63488764D01*
X124300000Y-63080793D01*
X124300000Y-62639207D01*
X124131012Y-62231236D01*
X123818764Y-61918988D01*
X123410793Y-61750000D01*
X122969207Y-61750000D01*
X122561236Y-61918988D01*
X122248988Y-62231236D01*
X122080000Y-62639207D01*
X122080000Y-63080793D01*
X122248988Y-63488764D01*
X122485224Y-63725000D01*
X122302384Y-63725000D01*
X122230000Y-63710602D01*
X122157616Y-63725000D01*
X122157612Y-63725000D01*
X121943217Y-63767646D01*
X121700095Y-63930095D01*
X121659091Y-63991462D01*
X121280553Y-64370000D01*
X121079126Y-64370000D01*
X120698720Y-64527569D01*
X120407569Y-64818720D01*
X120250000Y-65199126D01*
X120250000Y-65610874D01*
X120407569Y-65991280D01*
X120698720Y-66282431D01*
X121079126Y-66440000D01*
X121490874Y-66440000D01*
X121871280Y-66282431D01*
X122162431Y-65991280D01*
X122320000Y-65610874D01*
X122320000Y-65409447D01*
X122534447Y-65195000D01*
X125469413Y-65195000D01*
X125491843Y-65307765D01*
X125632191Y-65517809D01*
X125842235Y-65658157D01*
X126090000Y-65707440D01*
X128090000Y-65707440D01*
X128337765Y-65658157D01*
X128547809Y-65517809D01*
X128688157Y-65307765D01*
X128737440Y-65060000D01*
X128737440Y-63860000D01*
X128688157Y-63612235D01*
X128578084Y-63447500D01*
X129876956Y-63447500D01*
X129912036Y-63500000D01*
X129753495Y-63737273D01*
X129687560Y-64068750D01*
X129687560Y-64506250D01*
X129753495Y-64837727D01*
X129941261Y-65118739D01*
X130075000Y-65208101D01*
X130075001Y-66871899D01*
X129941261Y-66961261D01*
X129925733Y-66984500D01*
X129745874Y-66910000D01*
X129334126Y-66910000D01*
X128953720Y-67067569D01*
X128737440Y-67283849D01*
X128737440Y-66860000D01*
X128688157Y-66612235D01*
X128547809Y-66402191D01*
X128337765Y-66261843D01*
X128090000Y-66212560D01*
X126090000Y-66212560D01*
X125842235Y-66261843D01*
X125632191Y-66402191D01*
X125491843Y-66612235D01*
X125469413Y-66725000D01*
X122477383Y-66725000D01*
X122404999Y-66710602D01*
X122332615Y-66725000D01*
X122332612Y-66725000D01*
X122118217Y-66767646D01*
X121875095Y-66930095D01*
X121834090Y-66991463D01*
X121280554Y-67545000D01*
X121079126Y-67545000D01*
X120698720Y-67702569D01*
X120407569Y-67993720D01*
X120250000Y-68374126D01*
X120250000Y-68785874D01*
X120407569Y-69166280D01*
X120698720Y-69457431D01*
X121079126Y-69615000D01*
X121490874Y-69615000D01*
X121871280Y-69457431D01*
X122162431Y-69166280D01*
X122320000Y-68785874D01*
X122320000Y-68584446D01*
X122709447Y-68195000D01*
X125469413Y-68195000D01*
X125491843Y-68307765D01*
X125632191Y-68517809D01*
X125842235Y-68658157D01*
X126090000Y-68707440D01*
X127357994Y-68707440D01*
X127465554Y-68815000D01*
X127429126Y-68815000D01*
X127048720Y-68972569D01*
X126757569Y-69263720D01*
X126600000Y-69644126D01*
X126600000Y-70055874D01*
X126664901Y-70212560D01*
X126090000Y-70212560D01*
X125842235Y-70261843D01*
X125632191Y-70402191D01*
X125491843Y-70612235D01*
X125442560Y-70860000D01*
X125442560Y-72060000D01*
X125491843Y-72307765D01*
X125632191Y-72517809D01*
X125842235Y-72658157D01*
X126090000Y-72707440D01*
X126155000Y-72707440D01*
X126155001Y-119112711D01*
X125432001Y-119835711D01*
X125432001Y-119737120D01*
X125219321Y-119223664D01*
X124826338Y-118830681D01*
X124619488Y-118745001D01*
X124826338Y-118659321D01*
X125219321Y-118266338D01*
X125432001Y-117752882D01*
X125432001Y-117197120D01*
X125219321Y-116683664D01*
X124826338Y-116290681D01*
X124619488Y-116205001D01*
X124826338Y-116119321D01*
X125219321Y-115726338D01*
X125432001Y-115212882D01*
X125432001Y-114657120D01*
X125219321Y-114143664D01*
X124826338Y-113750681D01*
X124619488Y-113665001D01*
X124826338Y-113579321D01*
X125219321Y-113186338D01*
X125432001Y-112672882D01*
X125432001Y-112117120D01*
X125219321Y-111603664D01*
X124826338Y-111210681D01*
X124619488Y-111125001D01*
X124826338Y-111039321D01*
X125219321Y-110646338D01*
X125432001Y-110132882D01*
X125432001Y-109577120D01*
X125219321Y-109063664D01*
X124826338Y-108670681D01*
X124619488Y-108585001D01*
X124826338Y-108499321D01*
X125219321Y-108106338D01*
X125432001Y-107592882D01*
X125432001Y-107037120D01*
X125219321Y-106523664D01*
X124826338Y-106130681D01*
X124619488Y-106045001D01*
X124826338Y-105959321D01*
X125219321Y-105566338D01*
X125432001Y-105052882D01*
X125432001Y-104497120D01*
X125219321Y-103983664D01*
X124826338Y-103590681D01*
X124619488Y-103505001D01*
X124826338Y-103419321D01*
X125219321Y-103026338D01*
X125432001Y-102512882D01*
X125432001Y-101957120D01*
X125219321Y-101443664D01*
X124826338Y-101050681D01*
X124619488Y-100965001D01*
X124826338Y-100879321D01*
X125219321Y-100486338D01*
X125432001Y-99972882D01*
X125432001Y-99417120D01*
X125219321Y-98903664D01*
X124826338Y-98510681D01*
X124619488Y-98425001D01*
X124826338Y-98339321D01*
X125219321Y-97946338D01*
X125432001Y-97432882D01*
X125432001Y-96877120D01*
X125219321Y-96363664D01*
X124826338Y-95970681D01*
X124619488Y-95885001D01*
X124826338Y-95799321D01*
X125219321Y-95406338D01*
X125432001Y-94892882D01*
X125432001Y-94337120D01*
X125219321Y-93823664D01*
X124826338Y-93430681D01*
X124619488Y-93345001D01*
X124826338Y-93259321D01*
X125219321Y-92866338D01*
X125432001Y-92352882D01*
X125432001Y-91797120D01*
X125219321Y-91283664D01*
X124826338Y-90890681D01*
X124619488Y-90805001D01*
X124826338Y-90719321D01*
X125219321Y-90326338D01*
X125432001Y-89812882D01*
X125432001Y-89257120D01*
X125219321Y-88743664D01*
X124826338Y-88350681D01*
X124619488Y-88265001D01*
X124826338Y-88179321D01*
X125219321Y-87786338D01*
X125432001Y-87272882D01*
X125432001Y-86717120D01*
X125219321Y-86203664D01*
X124826338Y-85810681D01*
X124619488Y-85725001D01*
X124826338Y-85639321D01*
X125219321Y-85246338D01*
X125432001Y-84732882D01*
X125432001Y-84177120D01*
X125219321Y-83663664D01*
X124826338Y-83270681D01*
X124312882Y-83058001D01*
X123757120Y-83058001D01*
X123243664Y-83270681D01*
X122850681Y-83663664D01*
X122638001Y-84177120D01*
X122638001Y-84732882D01*
X122850681Y-85246338D01*
X123243664Y-85639321D01*
X123450514Y-85725001D01*
X123243664Y-85810681D01*
X122850681Y-86203664D01*
X122638001Y-86717120D01*
X122638001Y-87272882D01*
X122850681Y-87786338D01*
X123243664Y-88179321D01*
X123450514Y-88265001D01*
X123243664Y-88350681D01*
X122850681Y-88743664D01*
X122638001Y-89257120D01*
X122638001Y-89812882D01*
X122850681Y-90326338D01*
X123243664Y-90719321D01*
X123450514Y-90805001D01*
X123243664Y-90890681D01*
X122850681Y-91283664D01*
X122638001Y-91797120D01*
X122638001Y-92352882D01*
X122850681Y-92866338D01*
X123243664Y-93259321D01*
X123450514Y-93345001D01*
X123243664Y-93430681D01*
X122850681Y-93823664D01*
X122638001Y-94337120D01*
X122638001Y-94892882D01*
X122850681Y-95406338D01*
X123243664Y-95799321D01*
X123450514Y-95885001D01*
X123243664Y-95970681D01*
X122850681Y-96363664D01*
X122638001Y-96877120D01*
X122638001Y-97432882D01*
X122850681Y-97946338D01*
X123243664Y-98339321D01*
X123450514Y-98425001D01*
X123243664Y-98510681D01*
X122850681Y-98903664D01*
X122638001Y-99417120D01*
X122638001Y-99972882D01*
X122850681Y-100486338D01*
X123243664Y-100879321D01*
X123450514Y-100965001D01*
X123243664Y-101050681D01*
X122850681Y-101443664D01*
X122638001Y-101957120D01*
X122638001Y-102512882D01*
X122850681Y-103026338D01*
X123243664Y-103419321D01*
X123450514Y-103505001D01*
X123243664Y-103590681D01*
X122850681Y-103983664D01*
X122638001Y-104497120D01*
X122638001Y-105052882D01*
X122850681Y-105566338D01*
X123243664Y-105959321D01*
X123450514Y-106045001D01*
X123243664Y-106130681D01*
X122850681Y-106523664D01*
X122638001Y-107037120D01*
X122638001Y-107592882D01*
X122850681Y-108106338D01*
X123243664Y-108499321D01*
X123450514Y-108585001D01*
X123243664Y-108670681D01*
X122850681Y-109063664D01*
X122638001Y-109577120D01*
X122638001Y-110132882D01*
X122850681Y-110646338D01*
X123243664Y-111039321D01*
X123450514Y-111125001D01*
X123243664Y-111210681D01*
X122850681Y-111603664D01*
X122638001Y-112117120D01*
X122638001Y-112672882D01*
X122850681Y-113186338D01*
X123243664Y-113579321D01*
X123450514Y-113665001D01*
X123243664Y-113750681D01*
X122850681Y-114143664D01*
X122638001Y-114657120D01*
X122638001Y-115212882D01*
X122850681Y-115726338D01*
X123243664Y-116119321D01*
X123450514Y-116205001D01*
X123243664Y-116290681D01*
X122850681Y-116683664D01*
X122638001Y-117197120D01*
X122638001Y-117752882D01*
X122850681Y-118266338D01*
X123243664Y-118659321D01*
X123450514Y-118745001D01*
X123243664Y-118830681D01*
X122850681Y-119223664D01*
X122638001Y-119737120D01*
X122638001Y-120292882D01*
X122850681Y-120806338D01*
X123243664Y-121199321D01*
X123450514Y-121285001D01*
X123243664Y-121370681D01*
X122850681Y-121763664D01*
X122638001Y-122277120D01*
X122638001Y-122832882D01*
X122850681Y-123346338D01*
X123243664Y-123739321D01*
X123434648Y-123818429D01*
X123303858Y-123872604D01*
X123234393Y-124114788D01*
X124035001Y-124915396D01*
X124835609Y-124114788D01*
X124766144Y-123872604D01*
X124625608Y-123822466D01*
X124826338Y-123739321D01*
X125219321Y-123346338D01*
X125432001Y-122832882D01*
X125432001Y-122480290D01*
X127686031Y-120226261D01*
X127764097Y-120174099D01*
X127970750Y-119864821D01*
X128025000Y-119592088D01*
X128043317Y-119500003D01*
X128025000Y-119407917D01*
X128025000Y-84177120D01*
X140418001Y-84177120D01*
X140418001Y-84732882D01*
X140630681Y-85246338D01*
X141023664Y-85639321D01*
X141230514Y-85725001D01*
X141023664Y-85810681D01*
X140630681Y-86203664D01*
X140418001Y-86717120D01*
X140418001Y-87272882D01*
X140630681Y-87786338D01*
X141023664Y-88179321D01*
X141230514Y-88265001D01*
X141023664Y-88350681D01*
X140630681Y-88743664D01*
X140418001Y-89257120D01*
X140418001Y-89812882D01*
X140630681Y-90326338D01*
X141023664Y-90719321D01*
X141230514Y-90805001D01*
X141023664Y-90890681D01*
X140630681Y-91283664D01*
X140418001Y-91797120D01*
X140418001Y-92352882D01*
X140630681Y-92866338D01*
X141023664Y-93259321D01*
X141230514Y-93345001D01*
X141023664Y-93430681D01*
X140630681Y-93823664D01*
X140418001Y-94337120D01*
X140418001Y-94892882D01*
X140630681Y-95406338D01*
X141023664Y-95799321D01*
X141230514Y-95885001D01*
X141023664Y-95970681D01*
X140630681Y-96363664D01*
X140418001Y-96877120D01*
X140418001Y-97432882D01*
X140630681Y-97946338D01*
X141023664Y-98339321D01*
X141230514Y-98425001D01*
X141023664Y-98510681D01*
X140630681Y-98903664D01*
X140418001Y-99417120D01*
X140418001Y-99972882D01*
X140630681Y-100486338D01*
X141023664Y-100879321D01*
X141230514Y-100965001D01*
X141023664Y-101050681D01*
X140630681Y-101443664D01*
X140418001Y-101957120D01*
X140418001Y-102512882D01*
X140630681Y-103026338D01*
X141023664Y-103419321D01*
X141230514Y-103505001D01*
X141023664Y-103590681D01*
X140630681Y-103983664D01*
X140418001Y-104497120D01*
X140418001Y-105052882D01*
X140630681Y-105566338D01*
X141023664Y-105959321D01*
X141230514Y-106045001D01*
X141023664Y-106130681D01*
X140630681Y-106523664D01*
X140418001Y-107037120D01*
X140418001Y-107592882D01*
X140630681Y-108106338D01*
X141023664Y-108499321D01*
X141230514Y-108585001D01*
X141023664Y-108670681D01*
X140630681Y-109063664D01*
X140418001Y-109577120D01*
X140418001Y-110132882D01*
X140630681Y-110646338D01*
X141023664Y-111039321D01*
X141230514Y-111125001D01*
X141023664Y-111210681D01*
X140630681Y-111603664D01*
X140418001Y-112117120D01*
X140418001Y-112672882D01*
X140630681Y-113186338D01*
X141023664Y-113579321D01*
X141230514Y-113665001D01*
X141023664Y-113750681D01*
X140630681Y-114143664D01*
X140418001Y-114657120D01*
X140418001Y-115212882D01*
X140630681Y-115726338D01*
X141023664Y-116119321D01*
X141230514Y-116205001D01*
X141023664Y-116290681D01*
X140630681Y-116683664D01*
X140418001Y-117197120D01*
X140418001Y-117752882D01*
X140630681Y-118266338D01*
X141023664Y-118659321D01*
X141230514Y-118745001D01*
X141023664Y-118830681D01*
X140630681Y-119223664D01*
X140418001Y-119737120D01*
X140418001Y-120292882D01*
X140630681Y-120806338D01*
X141023664Y-121199321D01*
X141230514Y-121285001D01*
X141023664Y-121370681D01*
X140630681Y-121763664D01*
X140418001Y-122277120D01*
X140418001Y-122832882D01*
X140630681Y-123346338D01*
X141023664Y-123739321D01*
X141214648Y-123818429D01*
X141083858Y-123872604D01*
X141014393Y-124114788D01*
X141815001Y-124915396D01*
X142615609Y-124114788D01*
X142546144Y-123872604D01*
X142405608Y-123822466D01*
X142606338Y-123739321D01*
X142999321Y-123346338D01*
X143212001Y-122832882D01*
X143212001Y-122277120D01*
X142999321Y-121763664D01*
X142606338Y-121370681D01*
X142399488Y-121285001D01*
X142606338Y-121199321D01*
X142999321Y-120806338D01*
X143212001Y-120292882D01*
X143212001Y-119737120D01*
X142999321Y-119223664D01*
X142606338Y-118830681D01*
X142399488Y-118745001D01*
X142606338Y-118659321D01*
X142999321Y-118266338D01*
X143212001Y-117752882D01*
X143212001Y-117197120D01*
X142999321Y-116683664D01*
X142606338Y-116290681D01*
X142399488Y-116205001D01*
X142606338Y-116119321D01*
X142999321Y-115726338D01*
X143212001Y-115212882D01*
X143212001Y-114657120D01*
X142999321Y-114143664D01*
X142606338Y-113750681D01*
X142399488Y-113665001D01*
X142606338Y-113579321D01*
X142999321Y-113186338D01*
X143212001Y-112672882D01*
X143212001Y-112117120D01*
X142999321Y-111603664D01*
X142606338Y-111210681D01*
X142399488Y-111125001D01*
X142606338Y-111039321D01*
X142999321Y-110646338D01*
X143212001Y-110132882D01*
X143212001Y-109577120D01*
X142999321Y-109063664D01*
X142606338Y-108670681D01*
X142399488Y-108585001D01*
X142606338Y-108499321D01*
X142999321Y-108106338D01*
X143212001Y-107592882D01*
X143212001Y-107037120D01*
X142999321Y-106523664D01*
X142606338Y-106130681D01*
X142399488Y-106045001D01*
X142606338Y-105959321D01*
X142999321Y-105566338D01*
X143212001Y-105052882D01*
X143212001Y-104497120D01*
X142999321Y-103983664D01*
X142606338Y-103590681D01*
X142399488Y-103505001D01*
X142606338Y-103419321D01*
X142999321Y-103026338D01*
X143212001Y-102512882D01*
X143212001Y-101957120D01*
X142999321Y-101443664D01*
X142606338Y-101050681D01*
X142399488Y-100965001D01*
X142606338Y-100879321D01*
X142999321Y-100486338D01*
X143212001Y-99972882D01*
X143212001Y-99417120D01*
X142999321Y-98903664D01*
X142606338Y-98510681D01*
X142399488Y-98425001D01*
X142606338Y-98339321D01*
X142999321Y-97946338D01*
X143212001Y-97432882D01*
X143212001Y-96877120D01*
X142999321Y-96363664D01*
X142606338Y-95970681D01*
X142399488Y-95885001D01*
X142606338Y-95799321D01*
X142999321Y-95406338D01*
X143212001Y-94892882D01*
X143212001Y-94337120D01*
X142999321Y-93823664D01*
X142606338Y-93430681D01*
X142399488Y-93345001D01*
X142606338Y-93259321D01*
X142999321Y-92866338D01*
X143212001Y-92352882D01*
X143212001Y-91797120D01*
X142999321Y-91283664D01*
X142606338Y-90890681D01*
X142399488Y-90805001D01*
X142606338Y-90719321D01*
X142999321Y-90326338D01*
X143212001Y-89812882D01*
X143212001Y-89257120D01*
X142999321Y-88743664D01*
X142606338Y-88350681D01*
X142399488Y-88265001D01*
X142606338Y-88179321D01*
X142999321Y-87786338D01*
X143212001Y-87272882D01*
X143212001Y-86717120D01*
X142999321Y-86203664D01*
X142606338Y-85810681D01*
X142399488Y-85725001D01*
X142606338Y-85639321D01*
X142999321Y-85246338D01*
X143212001Y-84732882D01*
X143212001Y-84177120D01*
X142999321Y-83663664D01*
X142606338Y-83270681D01*
X142092882Y-83058001D01*
X141537120Y-83058001D01*
X141023664Y-83270681D01*
X140630681Y-83663664D01*
X140418001Y-84177120D01*
X128025000Y-84177120D01*
X128025000Y-72845750D01*
X136705000Y-72845750D01*
X136705000Y-73286309D01*
X136801673Y-73519698D01*
X136980301Y-73698327D01*
X137213690Y-73795000D01*
X138054250Y-73795000D01*
X138213000Y-73636250D01*
X138213000Y-72687000D01*
X138467000Y-72687000D01*
X138467000Y-73636250D01*
X138625750Y-73795000D01*
X139466310Y-73795000D01*
X139699699Y-73698327D01*
X139878327Y-73519698D01*
X139975000Y-73286309D01*
X139975000Y-72845750D01*
X139816250Y-72687000D01*
X138467000Y-72687000D01*
X138213000Y-72687000D01*
X136863750Y-72687000D01*
X136705000Y-72845750D01*
X128025000Y-72845750D01*
X128025000Y-72707440D01*
X128090000Y-72707440D01*
X128337765Y-72658157D01*
X128547809Y-72517809D01*
X128629868Y-72395000D01*
X136825750Y-72395000D01*
X136863750Y-72433000D01*
X138213000Y-72433000D01*
X138213000Y-72413000D01*
X138467000Y-72413000D01*
X138467000Y-72433000D01*
X139816250Y-72433000D01*
X139854250Y-72395000D01*
X144600132Y-72395000D01*
X144682191Y-72517809D01*
X144892235Y-72658157D01*
X145140000Y-72707440D01*
X147140000Y-72707440D01*
X147387765Y-72658157D01*
X147597809Y-72517809D01*
X147738157Y-72307765D01*
X147787440Y-72060000D01*
X147787440Y-70860000D01*
X147738157Y-70612235D01*
X147597809Y-70402191D01*
X147387765Y-70261843D01*
X147140000Y-70212560D01*
X145140000Y-70212560D01*
X145112863Y-70217958D01*
X145180000Y-70055874D01*
X145180000Y-69644126D01*
X145022431Y-69263720D01*
X144999079Y-69240368D01*
X145532007Y-68707440D01*
X147140000Y-68707440D01*
X147387765Y-68658157D01*
X147597809Y-68517809D01*
X147738157Y-68307765D01*
X147787440Y-68060000D01*
X147787440Y-66860000D01*
X147738157Y-66612235D01*
X147597809Y-66402191D01*
X147387765Y-66261843D01*
X147140000Y-66212560D01*
X145180000Y-66212560D01*
X145180000Y-66059446D01*
X145532007Y-65707440D01*
X147140000Y-65707440D01*
X147387765Y-65658157D01*
X147597809Y-65517809D01*
X147738157Y-65307765D01*
X147787440Y-65060000D01*
X147787440Y-63860000D01*
X147738157Y-63612235D01*
X147597809Y-63402191D01*
X147387765Y-63261843D01*
X147140000Y-63212560D01*
X145140000Y-63212560D01*
X144892235Y-63261843D01*
X144682191Y-63402191D01*
X144541843Y-63612235D01*
X144519413Y-63725000D01*
X142944776Y-63725000D01*
X143181012Y-63488764D01*
X143350000Y-63080793D01*
X143350000Y-62639207D01*
X143181012Y-62231236D01*
X142868764Y-61918988D01*
X142460793Y-61750000D01*
X142019207Y-61750000D01*
X141611236Y-61918988D01*
X141298988Y-62231236D01*
X141130000Y-62639207D01*
X141130000Y-63080793D01*
X141298988Y-63488764D01*
X141535224Y-63725000D01*
X137246947Y-63725000D01*
X135765911Y-62243965D01*
X135724905Y-62182595D01*
X135661998Y-62140562D01*
X135488739Y-61881261D01*
X135207727Y-61693495D01*
X134963927Y-61645000D01*
X146006899Y-61645000D01*
X146509967Y-61708552D01*
X146690375Y-61779981D01*
X147782531Y-62872137D01*
X147809032Y-62928454D01*
X147902019Y-63415913D01*
X147905001Y-63510792D01*
X147905000Y-133306907D01*
X147841448Y-133809967D01*
X147770019Y-133990375D01*
X146677863Y-135082531D01*
X146621546Y-135109032D01*
X146134087Y-135202019D01*
X146039240Y-135205000D01*
X119423093Y-135205000D01*
X118920033Y-135141448D01*
X118739625Y-135070019D01*
X117647469Y-133977863D01*
X117620968Y-133921546D01*
X117527981Y-133434087D01*
X117525000Y-133339240D01*
X117525000Y-126075214D01*
X123234393Y-126075214D01*
X123303858Y-126317398D01*
X123827303Y-126504145D01*
X124382369Y-126476363D01*
X124766144Y-126317398D01*
X124835609Y-126075214D01*
X141014393Y-126075214D01*
X141083858Y-126317398D01*
X141607303Y-126504145D01*
X142162369Y-126476363D01*
X142546144Y-126317398D01*
X142615609Y-126075214D01*
X141815001Y-125274606D01*
X141014393Y-126075214D01*
X124835609Y-126075214D01*
X124035001Y-125274606D01*
X123234393Y-126075214D01*
X117525000Y-126075214D01*
X117525000Y-124887303D01*
X122625857Y-124887303D01*
X122653639Y-125442369D01*
X122812604Y-125826144D01*
X123054788Y-125895609D01*
X123855396Y-125095001D01*
X124214606Y-125095001D01*
X125015214Y-125895609D01*
X125257398Y-125826144D01*
X125444145Y-125302699D01*
X125423354Y-124887303D01*
X140405857Y-124887303D01*
X140433639Y-125442369D01*
X140592604Y-125826144D01*
X140834788Y-125895609D01*
X141635396Y-125095001D01*
X141994606Y-125095001D01*
X142795214Y-125895609D01*
X143037398Y-125826144D01*
X143224145Y-125302699D01*
X143196363Y-124747633D01*
X143037398Y-124363858D01*
X142795214Y-124294393D01*
X141994606Y-125095001D01*
X141635396Y-125095001D01*
X140834788Y-124294393D01*
X140592604Y-124363858D01*
X140405857Y-124887303D01*
X125423354Y-124887303D01*
X125416363Y-124747633D01*
X125257398Y-124363858D01*
X125015214Y-124294393D01*
X124214606Y-125095001D01*
X123855396Y-125095001D01*
X123054788Y-124294393D01*
X122812604Y-124363858D01*
X122625857Y-124887303D01*
X117525000Y-124887303D01*
X117525000Y-72845750D01*
X117655000Y-72845750D01*
X117655000Y-73286309D01*
X117751673Y-73519698D01*
X117930301Y-73698327D01*
X118163690Y-73795000D01*
X119004250Y-73795000D01*
X119163000Y-73636250D01*
X119163000Y-72687000D01*
X119417000Y-72687000D01*
X119417000Y-73636250D01*
X119575750Y-73795000D01*
X120416310Y-73795000D01*
X120649699Y-73698327D01*
X120828327Y-73519698D01*
X120925000Y-73286309D01*
X120925000Y-72845750D01*
X120766250Y-72687000D01*
X119417000Y-72687000D01*
X119163000Y-72687000D01*
X117813750Y-72687000D01*
X117655000Y-72845750D01*
X117525000Y-72845750D01*
X117525000Y-71833691D01*
X117655000Y-71833691D01*
X117655000Y-72274250D01*
X117813750Y-72433000D01*
X119163000Y-72433000D01*
X119163000Y-71483750D01*
X119417000Y-71483750D01*
X119417000Y-72433000D01*
X120766250Y-72433000D01*
X120925000Y-72274250D01*
X120925000Y-71833691D01*
X120828327Y-71600302D01*
X120649699Y-71421673D01*
X120416310Y-71325000D01*
X119575750Y-71325000D01*
X119417000Y-71483750D01*
X119163000Y-71483750D01*
X119004250Y-71325000D01*
X118163690Y-71325000D01*
X117930301Y-71421673D01*
X117751673Y-71600302D01*
X117655000Y-71833691D01*
X117525000Y-71833691D01*
X117525000Y-69639207D01*
X122080000Y-69639207D01*
X122080000Y-70080793D01*
X122248988Y-70488764D01*
X122561236Y-70801012D01*
X122969207Y-70970000D01*
X123410793Y-70970000D01*
X123818764Y-70801012D01*
X124131012Y-70488764D01*
X124300000Y-70080793D01*
X124300000Y-69639207D01*
X124131012Y-69231236D01*
X123818764Y-68918988D01*
X123410793Y-68750000D01*
X122969207Y-68750000D01*
X122561236Y-68918988D01*
X122248988Y-69231236D01*
X122080000Y-69639207D01*
X117525000Y-69639207D01*
X117525000Y-63543101D01*
X117588552Y-63040033D01*
X117659981Y-62859625D01*
X118752137Y-61767469D01*
X118808454Y-61740968D01*
X119295913Y-61647981D01*
X119390760Y-61645000D01*
X130466073Y-61645000D01*
X130222273Y-61693495D01*
X130222273Y-61693495D01*
G37*
X130222273Y-61693495D02*
X129941261Y-61881261D01*
X129876956Y-61977500D01*
X128109883Y-61977500D01*
X128037499Y-61963102D01*
X127965115Y-61977500D01*
X127965112Y-61977500D01*
X127750717Y-62020146D01*
X127507595Y-62182595D01*
X127466590Y-62243963D01*
X126621465Y-63089089D01*
X126560095Y-63130095D01*
X126504994Y-63212560D01*
X126090000Y-63212560D01*
X125842235Y-63261843D01*
X125632191Y-63402191D01*
X125491843Y-63612235D01*
X125469413Y-63725000D01*
X123894776Y-63725000D01*
X124131012Y-63488764D01*
X124300000Y-63080793D01*
X124300000Y-62639207D01*
X124131012Y-62231236D01*
X123818764Y-61918988D01*
X123410793Y-61750000D01*
X122969207Y-61750000D01*
X122561236Y-61918988D01*
X122248988Y-62231236D01*
X122080000Y-62639207D01*
X122080000Y-63080793D01*
X122248988Y-63488764D01*
X122485224Y-63725000D01*
X122302384Y-63725000D01*
X122230000Y-63710602D01*
X122157616Y-63725000D01*
X122157612Y-63725000D01*
X121943217Y-63767646D01*
X121700095Y-63930095D01*
X121659091Y-63991462D01*
X121280553Y-64370000D01*
X121079126Y-64370000D01*
X120698720Y-64527569D01*
X120407569Y-64818720D01*
X120250000Y-65199126D01*
X120250000Y-65610874D01*
X120407569Y-65991280D01*
X120698720Y-66282431D01*
X121079126Y-66440000D01*
X121490874Y-66440000D01*
X121871280Y-66282431D01*
X122162431Y-65991280D01*
X122320000Y-65610874D01*
X122320000Y-65409447D01*
X122534447Y-65195000D01*
X125469413Y-65195000D01*
X125491843Y-65307765D01*
X125632191Y-65517809D01*
X125842235Y-65658157D01*
X126090000Y-65707440D01*
X128090000Y-65707440D01*
X128337765Y-65658157D01*
X128547809Y-65517809D01*
X128688157Y-65307765D01*
X128737440Y-65060000D01*
X128737440Y-63860000D01*
X128688157Y-63612235D01*
X128578084Y-63447500D01*
X129876956Y-63447500D01*
X129912036Y-63500000D01*
X129753495Y-63737273D01*
X129687560Y-64068750D01*
X129687560Y-64506250D01*
X129753495Y-64837727D01*
X129941261Y-65118739D01*
X130075000Y-65208101D01*
X130075001Y-66871899D01*
X129941261Y-66961261D01*
X129925733Y-66984500D01*
X129745874Y-66910000D01*
X129334126Y-66910000D01*
X128953720Y-67067569D01*
X128737440Y-67283849D01*
X128737440Y-66860000D01*
X128688157Y-66612235D01*
X128547809Y-66402191D01*
X128337765Y-66261843D01*
X128090000Y-66212560D01*
X126090000Y-66212560D01*
X125842235Y-66261843D01*
X125632191Y-66402191D01*
X125491843Y-66612235D01*
X125469413Y-66725000D01*
X122477383Y-66725000D01*
X122404999Y-66710602D01*
X122332615Y-66725000D01*
X122332612Y-66725000D01*
X122118217Y-66767646D01*
X121875095Y-66930095D01*
X121834090Y-66991463D01*
X121280554Y-67545000D01*
X121079126Y-67545000D01*
X120698720Y-67702569D01*
X120407569Y-67993720D01*
X120250000Y-68374126D01*
X120250000Y-68785874D01*
X120407569Y-69166280D01*
X120698720Y-69457431D01*
X121079126Y-69615000D01*
X121490874Y-69615000D01*
X121871280Y-69457431D01*
X122162431Y-69166280D01*
X122320000Y-68785874D01*
X122320000Y-68584446D01*
X122709447Y-68195000D01*
X125469413Y-68195000D01*
X125491843Y-68307765D01*
X125632191Y-68517809D01*
X125842235Y-68658157D01*
X126090000Y-68707440D01*
X127357994Y-68707440D01*
X127465554Y-68815000D01*
X127429126Y-68815000D01*
X127048720Y-68972569D01*
X126757569Y-69263720D01*
X126600000Y-69644126D01*
X126600000Y-70055874D01*
X126664901Y-70212560D01*
X126090000Y-70212560D01*
X125842235Y-70261843D01*
X125632191Y-70402191D01*
X125491843Y-70612235D01*
X125442560Y-70860000D01*
X125442560Y-72060000D01*
X125491843Y-72307765D01*
X125632191Y-72517809D01*
X125842235Y-72658157D01*
X126090000Y-72707440D01*
X126155000Y-72707440D01*
X126155001Y-119112711D01*
X125432001Y-119835711D01*
X125432001Y-119737120D01*
X125219321Y-119223664D01*
X124826338Y-118830681D01*
X124619488Y-118745001D01*
X124826338Y-118659321D01*
X125219321Y-118266338D01*
X125432001Y-117752882D01*
X125432001Y-117197120D01*
X125219321Y-116683664D01*
X124826338Y-116290681D01*
X124619488Y-116205001D01*
X124826338Y-116119321D01*
X125219321Y-115726338D01*
X125432001Y-115212882D01*
X125432001Y-114657120D01*
X125219321Y-114143664D01*
X124826338Y-113750681D01*
X124619488Y-113665001D01*
X124826338Y-113579321D01*
X125219321Y-113186338D01*
X125432001Y-112672882D01*
X125432001Y-112117120D01*
X125219321Y-111603664D01*
X124826338Y-111210681D01*
X124619488Y-111125001D01*
X124826338Y-111039321D01*
X125219321Y-110646338D01*
X125432001Y-110132882D01*
X125432001Y-109577120D01*
X125219321Y-109063664D01*
X124826338Y-108670681D01*
X124619488Y-108585001D01*
X124826338Y-108499321D01*
X125219321Y-108106338D01*
X125432001Y-107592882D01*
X125432001Y-107037120D01*
X125219321Y-106523664D01*
X124826338Y-106130681D01*
X124619488Y-106045001D01*
X124826338Y-105959321D01*
X125219321Y-105566338D01*
X125432001Y-105052882D01*
X125432001Y-104497120D01*
X125219321Y-103983664D01*
X124826338Y-103590681D01*
X124619488Y-103505001D01*
X124826338Y-103419321D01*
X125219321Y-103026338D01*
X125432001Y-102512882D01*
X125432001Y-101957120D01*
X125219321Y-101443664D01*
X124826338Y-101050681D01*
X124619488Y-100965001D01*
X124826338Y-100879321D01*
X125219321Y-100486338D01*
X125432001Y-99972882D01*
X125432001Y-99417120D01*
X125219321Y-98903664D01*
X124826338Y-98510681D01*
X124619488Y-98425001D01*
X124826338Y-98339321D01*
X125219321Y-97946338D01*
X125432001Y-97432882D01*
X125432001Y-96877120D01*
X125219321Y-96363664D01*
X124826338Y-95970681D01*
X124619488Y-95885001D01*
X124826338Y-95799321D01*
X125219321Y-95406338D01*
X125432001Y-94892882D01*
X125432001Y-94337120D01*
X125219321Y-93823664D01*
X124826338Y-93430681D01*
X124619488Y-93345001D01*
X124826338Y-93259321D01*
X125219321Y-92866338D01*
X125432001Y-92352882D01*
X125432001Y-91797120D01*
X125219321Y-91283664D01*
X124826338Y-90890681D01*
X124619488Y-90805001D01*
X124826338Y-90719321D01*
X125219321Y-90326338D01*
X125432001Y-89812882D01*
X125432001Y-89257120D01*
X125219321Y-88743664D01*
X124826338Y-88350681D01*
X124619488Y-88265001D01*
X124826338Y-88179321D01*
X125219321Y-87786338D01*
X125432001Y-87272882D01*
X125432001Y-86717120D01*
X125219321Y-86203664D01*
X124826338Y-85810681D01*
X124619488Y-85725001D01*
X124826338Y-85639321D01*
X125219321Y-85246338D01*
X125432001Y-84732882D01*
X125432001Y-84177120D01*
X125219321Y-83663664D01*
X124826338Y-83270681D01*
X124312882Y-83058001D01*
X123757120Y-83058001D01*
X123243664Y-83270681D01*
X122850681Y-83663664D01*
X122638001Y-84177120D01*
X122638001Y-84732882D01*
X122850681Y-85246338D01*
X123243664Y-85639321D01*
X123450514Y-85725001D01*
X123243664Y-85810681D01*
X122850681Y-86203664D01*
X122638001Y-86717120D01*
X122638001Y-87272882D01*
X122850681Y-87786338D01*
X123243664Y-88179321D01*
X123450514Y-88265001D01*
X123243664Y-88350681D01*
X122850681Y-88743664D01*
X122638001Y-89257120D01*
X122638001Y-89812882D01*
X122850681Y-90326338D01*
X123243664Y-90719321D01*
X123450514Y-90805001D01*
X123243664Y-90890681D01*
X122850681Y-91283664D01*
X122638001Y-91797120D01*
X122638001Y-92352882D01*
X122850681Y-92866338D01*
X123243664Y-93259321D01*
X123450514Y-93345001D01*
X123243664Y-93430681D01*
X122850681Y-93823664D01*
X122638001Y-94337120D01*
X122638001Y-94892882D01*
X122850681Y-95406338D01*
X123243664Y-95799321D01*
X123450514Y-95885001D01*
X123243664Y-95970681D01*
X122850681Y-96363664D01*
X122638001Y-96877120D01*
X122638001Y-97432882D01*
X122850681Y-97946338D01*
X123243664Y-98339321D01*
X123450514Y-98425001D01*
X123243664Y-98510681D01*
X122850681Y-98903664D01*
X122638001Y-99417120D01*
X122638001Y-99972882D01*
X122850681Y-100486338D01*
X123243664Y-100879321D01*
X123450514Y-100965001D01*
X123243664Y-101050681D01*
X122850681Y-101443664D01*
X122638001Y-101957120D01*
X122638001Y-102512882D01*
X122850681Y-103026338D01*
X123243664Y-103419321D01*
X123450514Y-103505001D01*
X123243664Y-103590681D01*
X122850681Y-103983664D01*
X122638001Y-104497120D01*
X122638001Y-105052882D01*
X122850681Y-105566338D01*
X123243664Y-105959321D01*
X123450514Y-106045001D01*
X123243664Y-106130681D01*
X122850681Y-106523664D01*
X122638001Y-107037120D01*
X122638001Y-107592882D01*
X122850681Y-108106338D01*
X123243664Y-108499321D01*
X123450514Y-108585001D01*
X123243664Y-108670681D01*
X122850681Y-109063664D01*
X122638001Y-109577120D01*
X122638001Y-110132882D01*
X122850681Y-110646338D01*
X123243664Y-111039321D01*
X123450514Y-111125001D01*
X123243664Y-111210681D01*
X122850681Y-111603664D01*
X122638001Y-112117120D01*
X122638001Y-112672882D01*
X122850681Y-113186338D01*
X123243664Y-113579321D01*
X123450514Y-113665001D01*
X123243664Y-113750681D01*
X122850681Y-114143664D01*
X122638001Y-114657120D01*
X122638001Y-115212882D01*
X122850681Y-115726338D01*
X123243664Y-116119321D01*
X123450514Y-116205001D01*
X123243664Y-116290681D01*
X122850681Y-116683664D01*
X122638001Y-117197120D01*
X122638001Y-117752882D01*
X122850681Y-118266338D01*
X123243664Y-118659321D01*
X123450514Y-118745001D01*
X123243664Y-118830681D01*
X122850681Y-119223664D01*
X122638001Y-119737120D01*
X122638001Y-120292882D01*
X122850681Y-120806338D01*
X123243664Y-121199321D01*
X123450514Y-121285001D01*
X123243664Y-121370681D01*
X122850681Y-121763664D01*
X122638001Y-122277120D01*
X122638001Y-122832882D01*
X122850681Y-123346338D01*
X123243664Y-123739321D01*
X123434648Y-123818429D01*
X123303858Y-123872604D01*
X123234393Y-124114788D01*
X124035001Y-124915396D01*
X124835609Y-124114788D01*
X124766144Y-123872604D01*
X124625608Y-123822466D01*
X124826338Y-123739321D01*
X125219321Y-123346338D01*
X125432001Y-122832882D01*
X125432001Y-122480290D01*
X127686031Y-120226261D01*
X127764097Y-120174099D01*
X127970750Y-119864821D01*
X128025000Y-119592088D01*
X128043317Y-119500003D01*
X128025000Y-119407917D01*
X128025000Y-84177120D01*
X140418001Y-84177120D01*
X140418001Y-84732882D01*
X140630681Y-85246338D01*
X141023664Y-85639321D01*
X141230514Y-85725001D01*
X141023664Y-85810681D01*
X140630681Y-86203664D01*
X140418001Y-86717120D01*
X140418001Y-87272882D01*
X140630681Y-87786338D01*
X141023664Y-88179321D01*
X141230514Y-88265001D01*
X141023664Y-88350681D01*
X140630681Y-88743664D01*
X140418001Y-89257120D01*
X140418001Y-89812882D01*
X140630681Y-90326338D01*
X141023664Y-90719321D01*
X141230514Y-90805001D01*
X141023664Y-90890681D01*
X140630681Y-91283664D01*
X140418001Y-91797120D01*
X140418001Y-92352882D01*
X140630681Y-92866338D01*
X141023664Y-93259321D01*
X141230514Y-93345001D01*
X141023664Y-93430681D01*
X140630681Y-93823664D01*
X140418001Y-94337120D01*
X140418001Y-94892882D01*
X140630681Y-95406338D01*
X141023664Y-95799321D01*
X141230514Y-95885001D01*
X141023664Y-95970681D01*
X140630681Y-96363664D01*
X140418001Y-96877120D01*
X140418001Y-97432882D01*
X140630681Y-97946338D01*
X141023664Y-98339321D01*
X141230514Y-98425001D01*
X141023664Y-98510681D01*
X140630681Y-98903664D01*
X140418001Y-99417120D01*
X140418001Y-99972882D01*
X140630681Y-100486338D01*
X141023664Y-100879321D01*
X141230514Y-100965001D01*
X141023664Y-101050681D01*
X140630681Y-101443664D01*
X140418001Y-101957120D01*
X140418001Y-102512882D01*
X140630681Y-103026338D01*
X141023664Y-103419321D01*
X141230514Y-103505001D01*
X141023664Y-103590681D01*
X140630681Y-103983664D01*
X140418001Y-104497120D01*
X140418001Y-105052882D01*
X140630681Y-105566338D01*
X141023664Y-105959321D01*
X141230514Y-106045001D01*
X141023664Y-106130681D01*
X140630681Y-106523664D01*
X140418001Y-107037120D01*
X140418001Y-107592882D01*
X140630681Y-108106338D01*
X141023664Y-108499321D01*
X141230514Y-108585001D01*
X141023664Y-108670681D01*
X140630681Y-109063664D01*
X140418001Y-109577120D01*
X140418001Y-110132882D01*
X140630681Y-110646338D01*
X141023664Y-111039321D01*
X141230514Y-111125001D01*
X141023664Y-111210681D01*
X140630681Y-111603664D01*
X140418001Y-112117120D01*
X140418001Y-112672882D01*
X140630681Y-113186338D01*
X141023664Y-113579321D01*
X141230514Y-113665001D01*
X141023664Y-113750681D01*
X140630681Y-114143664D01*
X140418001Y-114657120D01*
X140418001Y-115212882D01*
X140630681Y-115726338D01*
X141023664Y-116119321D01*
X141230514Y-116205001D01*
X141023664Y-116290681D01*
X140630681Y-116683664D01*
X140418001Y-117197120D01*
X140418001Y-117752882D01*
X140630681Y-118266338D01*
X141023664Y-118659321D01*
X141230514Y-118745001D01*
X141023664Y-118830681D01*
X140630681Y-119223664D01*
X140418001Y-119737120D01*
X140418001Y-120292882D01*
X140630681Y-120806338D01*
X141023664Y-121199321D01*
X141230514Y-121285001D01*
X141023664Y-121370681D01*
X140630681Y-121763664D01*
X140418001Y-122277120D01*
X140418001Y-122832882D01*
X140630681Y-123346338D01*
X141023664Y-123739321D01*
X141214648Y-123818429D01*
X141083858Y-123872604D01*
X141014393Y-124114788D01*
X141815001Y-124915396D01*
X142615609Y-124114788D01*
X142546144Y-123872604D01*
X142405608Y-123822466D01*
X142606338Y-123739321D01*
X142999321Y-123346338D01*
X143212001Y-122832882D01*
X143212001Y-122277120D01*
X142999321Y-121763664D01*
X142606338Y-121370681D01*
X142399488Y-121285001D01*
X142606338Y-121199321D01*
X142999321Y-120806338D01*
X143212001Y-120292882D01*
X143212001Y-119737120D01*
X142999321Y-119223664D01*
X142606338Y-118830681D01*
X142399488Y-118745001D01*
X142606338Y-118659321D01*
X142999321Y-118266338D01*
X143212001Y-117752882D01*
X143212001Y-117197120D01*
X142999321Y-116683664D01*
X142606338Y-116290681D01*
X142399488Y-116205001D01*
X142606338Y-116119321D01*
X142999321Y-115726338D01*
X143212001Y-115212882D01*
X143212001Y-114657120D01*
X142999321Y-114143664D01*
X142606338Y-113750681D01*
X142399488Y-113665001D01*
X142606338Y-113579321D01*
X142999321Y-113186338D01*
X143212001Y-112672882D01*
X143212001Y-112117120D01*
X142999321Y-111603664D01*
X142606338Y-111210681D01*
X142399488Y-111125001D01*
X142606338Y-111039321D01*
X142999321Y-110646338D01*
X143212001Y-110132882D01*
X143212001Y-109577120D01*
X142999321Y-109063664D01*
X142606338Y-108670681D01*
X142399488Y-108585001D01*
X142606338Y-108499321D01*
X142999321Y-108106338D01*
X143212001Y-107592882D01*
X143212001Y-107037120D01*
X142999321Y-106523664D01*
X142606338Y-106130681D01*
X142399488Y-106045001D01*
X142606338Y-105959321D01*
X142999321Y-105566338D01*
X143212001Y-105052882D01*
X143212001Y-104497120D01*
X142999321Y-103983664D01*
X142606338Y-103590681D01*
X142399488Y-103505001D01*
X142606338Y-103419321D01*
X142999321Y-103026338D01*
X143212001Y-102512882D01*
X143212001Y-101957120D01*
X142999321Y-101443664D01*
X142606338Y-101050681D01*
X142399488Y-100965001D01*
X142606338Y-100879321D01*
X142999321Y-100486338D01*
X143212001Y-99972882D01*
X143212001Y-99417120D01*
X142999321Y-98903664D01*
X142606338Y-98510681D01*
X142399488Y-98425001D01*
X142606338Y-98339321D01*
X142999321Y-97946338D01*
X143212001Y-97432882D01*
X143212001Y-96877120D01*
X142999321Y-96363664D01*
X142606338Y-95970681D01*
X142399488Y-95885001D01*
X142606338Y-95799321D01*
X142999321Y-95406338D01*
X143212001Y-94892882D01*
X143212001Y-94337120D01*
X142999321Y-93823664D01*
X142606338Y-93430681D01*
X142399488Y-93345001D01*
X142606338Y-93259321D01*
X142999321Y-92866338D01*
X143212001Y-92352882D01*
X143212001Y-91797120D01*
X142999321Y-91283664D01*
X142606338Y-90890681D01*
X142399488Y-90805001D01*
X142606338Y-90719321D01*
X142999321Y-90326338D01*
X143212001Y-89812882D01*
X143212001Y-89257120D01*
X142999321Y-88743664D01*
X142606338Y-88350681D01*
X142399488Y-88265001D01*
X142606338Y-88179321D01*
X142999321Y-87786338D01*
X143212001Y-87272882D01*
X143212001Y-86717120D01*
X142999321Y-86203664D01*
X142606338Y-85810681D01*
X142399488Y-85725001D01*
X142606338Y-85639321D01*
X142999321Y-85246338D01*
X143212001Y-84732882D01*
X143212001Y-84177120D01*
X142999321Y-83663664D01*
X142606338Y-83270681D01*
X142092882Y-83058001D01*
X141537120Y-83058001D01*
X141023664Y-83270681D01*
X140630681Y-83663664D01*
X140418001Y-84177120D01*
X128025000Y-84177120D01*
X128025000Y-72845750D01*
X136705000Y-72845750D01*
X136705000Y-73286309D01*
X136801673Y-73519698D01*
X136980301Y-73698327D01*
X137213690Y-73795000D01*
X138054250Y-73795000D01*
X138213000Y-73636250D01*
X138213000Y-72687000D01*
X138467000Y-72687000D01*
X138467000Y-73636250D01*
X138625750Y-73795000D01*
X139466310Y-73795000D01*
X139699699Y-73698327D01*
X139878327Y-73519698D01*
X139975000Y-73286309D01*
X139975000Y-72845750D01*
X139816250Y-72687000D01*
X138467000Y-72687000D01*
X138213000Y-72687000D01*
X136863750Y-72687000D01*
X136705000Y-72845750D01*
X128025000Y-72845750D01*
X128025000Y-72707440D01*
X128090000Y-72707440D01*
X128337765Y-72658157D01*
X128547809Y-72517809D01*
X128629868Y-72395000D01*
X136825750Y-72395000D01*
X136863750Y-72433000D01*
X138213000Y-72433000D01*
X138213000Y-72413000D01*
X138467000Y-72413000D01*
X138467000Y-72433000D01*
X139816250Y-72433000D01*
X139854250Y-72395000D01*
X144600132Y-72395000D01*
X144682191Y-72517809D01*
X144892235Y-72658157D01*
X145140000Y-72707440D01*
X147140000Y-72707440D01*
X147387765Y-72658157D01*
X147597809Y-72517809D01*
X147738157Y-72307765D01*
X147787440Y-72060000D01*
X147787440Y-70860000D01*
X147738157Y-70612235D01*
X147597809Y-70402191D01*
X147387765Y-70261843D01*
X147140000Y-70212560D01*
X145140000Y-70212560D01*
X145112863Y-70217958D01*
X145180000Y-70055874D01*
X145180000Y-69644126D01*
X145022431Y-69263720D01*
X144999079Y-69240368D01*
X145532007Y-68707440D01*
X147140000Y-68707440D01*
X147387765Y-68658157D01*
X147597809Y-68517809D01*
X147738157Y-68307765D01*
X147787440Y-68060000D01*
X147787440Y-66860000D01*
X147738157Y-66612235D01*
X147597809Y-66402191D01*
X147387765Y-66261843D01*
X147140000Y-66212560D01*
X145180000Y-66212560D01*
X145180000Y-66059446D01*
X145532007Y-65707440D01*
X147140000Y-65707440D01*
X147387765Y-65658157D01*
X147597809Y-65517809D01*
X147738157Y-65307765D01*
X147787440Y-65060000D01*
X147787440Y-63860000D01*
X147738157Y-63612235D01*
X147597809Y-63402191D01*
X147387765Y-63261843D01*
X147140000Y-63212560D01*
X145140000Y-63212560D01*
X144892235Y-63261843D01*
X144682191Y-63402191D01*
X144541843Y-63612235D01*
X144519413Y-63725000D01*
X142944776Y-63725000D01*
X143181012Y-63488764D01*
X143350000Y-63080793D01*
X143350000Y-62639207D01*
X143181012Y-62231236D01*
X142868764Y-61918988D01*
X142460793Y-61750000D01*
X142019207Y-61750000D01*
X141611236Y-61918988D01*
X141298988Y-62231236D01*
X141130000Y-62639207D01*
X141130000Y-63080793D01*
X141298988Y-63488764D01*
X141535224Y-63725000D01*
X137246947Y-63725000D01*
X135765911Y-62243965D01*
X135724905Y-62182595D01*
X135661998Y-62140562D01*
X135488739Y-61881261D01*
X135207727Y-61693495D01*
X134963927Y-61645000D01*
X146006899Y-61645000D01*
X146509967Y-61708552D01*
X146690375Y-61779981D01*
X147782531Y-62872137D01*
X147809032Y-62928454D01*
X147902019Y-63415913D01*
X147905001Y-63510792D01*
X147905000Y-133306907D01*
X147841448Y-133809967D01*
X147770019Y-133990375D01*
X146677863Y-135082531D01*
X146621546Y-135109032D01*
X146134087Y-135202019D01*
X146039240Y-135205000D01*
X119423093Y-135205000D01*
X118920033Y-135141448D01*
X118739625Y-135070019D01*
X117647469Y-133977863D01*
X117620968Y-133921546D01*
X117527981Y-133434087D01*
X117525000Y-133339240D01*
X117525000Y-126075214D01*
X123234393Y-126075214D01*
X123303858Y-126317398D01*
X123827303Y-126504145D01*
X124382369Y-126476363D01*
X124766144Y-126317398D01*
X124835609Y-126075214D01*
X141014393Y-126075214D01*
X141083858Y-126317398D01*
X141607303Y-126504145D01*
X142162369Y-126476363D01*
X142546144Y-126317398D01*
X142615609Y-126075214D01*
X141815001Y-125274606D01*
X141014393Y-126075214D01*
X124835609Y-126075214D01*
X124035001Y-125274606D01*
X123234393Y-126075214D01*
X117525000Y-126075214D01*
X117525000Y-124887303D01*
X122625857Y-124887303D01*
X122653639Y-125442369D01*
X122812604Y-125826144D01*
X123054788Y-125895609D01*
X123855396Y-125095001D01*
X124214606Y-125095001D01*
X125015214Y-125895609D01*
X125257398Y-125826144D01*
X125444145Y-125302699D01*
X125423354Y-124887303D01*
X140405857Y-124887303D01*
X140433639Y-125442369D01*
X140592604Y-125826144D01*
X140834788Y-125895609D01*
X141635396Y-125095001D01*
X141994606Y-125095001D01*
X142795214Y-125895609D01*
X143037398Y-125826144D01*
X143224145Y-125302699D01*
X143196363Y-124747633D01*
X143037398Y-124363858D01*
X142795214Y-124294393D01*
X141994606Y-125095001D01*
X141635396Y-125095001D01*
X140834788Y-124294393D01*
X140592604Y-124363858D01*
X140405857Y-124887303D01*
X125423354Y-124887303D01*
X125416363Y-124747633D01*
X125257398Y-124363858D01*
X125015214Y-124294393D01*
X124214606Y-125095001D01*
X123855396Y-125095001D01*
X123054788Y-124294393D01*
X122812604Y-124363858D01*
X122625857Y-124887303D01*
X117525000Y-124887303D01*
X117525000Y-72845750D01*
X117655000Y-72845750D01*
X117655000Y-73286309D01*
X117751673Y-73519698D01*
X117930301Y-73698327D01*
X118163690Y-73795000D01*
X119004250Y-73795000D01*
X119163000Y-73636250D01*
X119163000Y-72687000D01*
X119417000Y-72687000D01*
X119417000Y-73636250D01*
X119575750Y-73795000D01*
X120416310Y-73795000D01*
X120649699Y-73698327D01*
X120828327Y-73519698D01*
X120925000Y-73286309D01*
X120925000Y-72845750D01*
X120766250Y-72687000D01*
X119417000Y-72687000D01*
X119163000Y-72687000D01*
X117813750Y-72687000D01*
X117655000Y-72845750D01*
X117525000Y-72845750D01*
X117525000Y-71833691D01*
X117655000Y-71833691D01*
X117655000Y-72274250D01*
X117813750Y-72433000D01*
X119163000Y-72433000D01*
X119163000Y-71483750D01*
X119417000Y-71483750D01*
X119417000Y-72433000D01*
X120766250Y-72433000D01*
X120925000Y-72274250D01*
X120925000Y-71833691D01*
X120828327Y-71600302D01*
X120649699Y-71421673D01*
X120416310Y-71325000D01*
X119575750Y-71325000D01*
X119417000Y-71483750D01*
X119163000Y-71483750D01*
X119004250Y-71325000D01*
X118163690Y-71325000D01*
X117930301Y-71421673D01*
X117751673Y-71600302D01*
X117655000Y-71833691D01*
X117525000Y-71833691D01*
X117525000Y-69639207D01*
X122080000Y-69639207D01*
X122080000Y-70080793D01*
X122248988Y-70488764D01*
X122561236Y-70801012D01*
X122969207Y-70970000D01*
X123410793Y-70970000D01*
X123818764Y-70801012D01*
X124131012Y-70488764D01*
X124300000Y-70080793D01*
X124300000Y-69639207D01*
X124131012Y-69231236D01*
X123818764Y-68918988D01*
X123410793Y-68750000D01*
X122969207Y-68750000D01*
X122561236Y-68918988D01*
X122248988Y-69231236D01*
X122080000Y-69639207D01*
X117525000Y-69639207D01*
X117525000Y-63543101D01*
X117588552Y-63040033D01*
X117659981Y-62859625D01*
X118752137Y-61767469D01*
X118808454Y-61740968D01*
X119295913Y-61647981D01*
X119390760Y-61645000D01*
X130466073Y-61645000D01*
X130222273Y-61693495D01*
G04 #@! TD*
M02*
