G04 #@! TF.GenerationSoftware,KiCad,Pcbnew,5.0.2-bee76a0~70~ubuntu18.04.1*
G04 #@! TF.CreationDate,2018-12-19T04:14:58+09:00*
G04 #@! TF.ProjectId,pendant,70656e64-616e-4742-9e6b-696361645f70,rev?*
G04 #@! TF.SameCoordinates,Original*
G04 #@! TF.FileFunction,Legend,Top*
G04 #@! TF.FilePolarity,Positive*
%FSLAX46Y46*%
G04 Gerber Fmt 4.6, Leading zero omitted, Abs format (unit mm)*
G04 Created by KiCad (PCBNEW 5.0.2-bee76a0~70~ubuntu18.04.1) date 2018年12月19日 04時14分58秒*
%MOMM*%
%LPD*%
G01*
G04 APERTURE LIST*
%ADD10C,0.150000*%
%ADD11C,0.120000*%
%ADD12C,1.524000*%
%ADD13R,2.000000X1.200000*%
%ADD14C,0.950000*%
%ADD15C,0.100000*%
%ADD16C,0.875000*%
G04 APERTURE END LIST*
D10*
G04 #@! TO.C,U1*
X145125001Y-76275001D02*
X145125001Y-133275001D01*
X120725001Y-76275001D02*
X120725001Y-133275001D01*
X120725001Y-133275001D02*
X145125001Y-133275001D01*
X120725001Y-76275001D02*
X145125001Y-76275001D01*
G04 #@! TO.C,J1*
X120650000Y-59260000D02*
X120650000Y-61260000D01*
X125730000Y-59260000D02*
X120650000Y-59260000D01*
X125730000Y-61260000D02*
X125730000Y-59260000D01*
X120140000Y-61260000D02*
X126240000Y-61260000D01*
X120140000Y-73360000D02*
X120140000Y-61260000D01*
X126240000Y-73360000D02*
X120140000Y-73360000D01*
X126240000Y-61260000D02*
X126240000Y-73360000D01*
G04 #@! TO.C,J2*
X139700000Y-59260000D02*
X139700000Y-61260000D01*
X144780000Y-59260000D02*
X139700000Y-59260000D01*
X144780000Y-61260000D02*
X144780000Y-59260000D01*
X139190000Y-61260000D02*
X145290000Y-61260000D01*
X139190000Y-73360000D02*
X139190000Y-61260000D01*
X145290000Y-73360000D02*
X139190000Y-73360000D01*
X145290000Y-61260000D02*
X145290000Y-73360000D01*
D11*
G04 #@! TO.C,R1*
X131320000Y-63662779D02*
X131320000Y-63337221D01*
X130300000Y-63662779D02*
X130300000Y-63337221D01*
G04 #@! TO.C,R2*
X135130000Y-63662779D02*
X135130000Y-63337221D01*
X134110000Y-63662779D02*
X134110000Y-63337221D01*
G04 #@! TO.C,R3*
X131320000Y-68417221D02*
X131320000Y-68742779D01*
X130300000Y-68417221D02*
X130300000Y-68742779D01*
G04 #@! TO.C,R4*
X135130000Y-68417221D02*
X135130000Y-68742779D01*
X134110000Y-68417221D02*
X134110000Y-68742779D01*
G04 #@! TO.C,U1*
D10*
X132163096Y-135977381D02*
X132163096Y-136786905D01*
X132210715Y-136882143D01*
X132258334Y-136929762D01*
X132353572Y-136977381D01*
X132544048Y-136977381D01*
X132639286Y-136929762D01*
X132686905Y-136882143D01*
X132734524Y-136786905D01*
X132734524Y-135977381D01*
X133734524Y-136977381D02*
X133163096Y-136977381D01*
X133448810Y-136977381D02*
X133448810Y-135977381D01*
X133353572Y-136120239D01*
X133258334Y-136215477D01*
X133163096Y-136263096D01*
X131663096Y-130897381D02*
X131663096Y-131706905D01*
X131710715Y-131802143D01*
X131758334Y-131849762D01*
X131853572Y-131897381D01*
X132044048Y-131897381D01*
X132139286Y-131849762D01*
X132186905Y-131802143D01*
X132234524Y-131706905D01*
X132234524Y-130897381D01*
X132663096Y-131849762D02*
X132805953Y-131897381D01*
X133044048Y-131897381D01*
X133139286Y-131849762D01*
X133186905Y-131802143D01*
X133234524Y-131706905D01*
X133234524Y-131611667D01*
X133186905Y-131516429D01*
X133139286Y-131468810D01*
X133044048Y-131421191D01*
X132853572Y-131373572D01*
X132758334Y-131325953D01*
X132710715Y-131278334D01*
X132663096Y-131183096D01*
X132663096Y-131087858D01*
X132710715Y-130992620D01*
X132758334Y-130945001D01*
X132853572Y-130897381D01*
X133091667Y-130897381D01*
X133234524Y-130945001D01*
X133996429Y-131373572D02*
X134139286Y-131421191D01*
X134186905Y-131468810D01*
X134234524Y-131564048D01*
X134234524Y-131706905D01*
X134186905Y-131802143D01*
X134139286Y-131849762D01*
X134044048Y-131897381D01*
X133663096Y-131897381D01*
X133663096Y-130897381D01*
X133996429Y-130897381D01*
X134091667Y-130945001D01*
X134139286Y-130992620D01*
X134186905Y-131087858D01*
X134186905Y-131183096D01*
X134139286Y-131278334D01*
X134091667Y-131325953D01*
X133996429Y-131373572D01*
X133663096Y-131373572D01*
G04 #@! TO.C,J1*
X118832380Y-67643333D02*
X119546666Y-67643333D01*
X119689523Y-67690952D01*
X119784761Y-67786190D01*
X119832380Y-67929047D01*
X119832380Y-68024285D01*
X119832380Y-66643333D02*
X119832380Y-67214761D01*
X119832380Y-66929047D02*
X118832380Y-66929047D01*
X118975238Y-67024285D01*
X119070476Y-67119523D01*
X119118095Y-67214761D01*
G04 #@! TO.C,J2*
X137882380Y-67643333D02*
X138596666Y-67643333D01*
X138739523Y-67690952D01*
X138834761Y-67786190D01*
X138882380Y-67929047D01*
X138882380Y-68024285D01*
X137977619Y-67214761D02*
X137930000Y-67167142D01*
X137882380Y-67071904D01*
X137882380Y-66833809D01*
X137930000Y-66738571D01*
X137977619Y-66690952D01*
X138072857Y-66643333D01*
X138168095Y-66643333D01*
X138310952Y-66690952D01*
X138882380Y-67262380D01*
X138882380Y-66643333D01*
G04 #@! TO.C,R1*
X129992380Y-63666666D02*
X129516190Y-64000000D01*
X129992380Y-64238095D02*
X128992380Y-64238095D01*
X128992380Y-63857142D01*
X129040000Y-63761904D01*
X129087619Y-63714285D01*
X129182857Y-63666666D01*
X129325714Y-63666666D01*
X129420952Y-63714285D01*
X129468571Y-63761904D01*
X129516190Y-63857142D01*
X129516190Y-64238095D01*
X129992380Y-62714285D02*
X129992380Y-63285714D01*
X129992380Y-63000000D02*
X128992380Y-63000000D01*
X129135238Y-63095238D01*
X129230476Y-63190476D01*
X129278095Y-63285714D01*
G04 #@! TO.C,R2*
X133802380Y-63666666D02*
X133326190Y-64000000D01*
X133802380Y-64238095D02*
X132802380Y-64238095D01*
X132802380Y-63857142D01*
X132850000Y-63761904D01*
X132897619Y-63714285D01*
X132992857Y-63666666D01*
X133135714Y-63666666D01*
X133230952Y-63714285D01*
X133278571Y-63761904D01*
X133326190Y-63857142D01*
X133326190Y-64238095D01*
X132897619Y-63285714D02*
X132850000Y-63238095D01*
X132802380Y-63142857D01*
X132802380Y-62904761D01*
X132850000Y-62809523D01*
X132897619Y-62761904D01*
X132992857Y-62714285D01*
X133088095Y-62714285D01*
X133230952Y-62761904D01*
X133802380Y-63333333D01*
X133802380Y-62714285D01*
G04 #@! TO.C,R3*
X129992380Y-68746666D02*
X129516190Y-69080000D01*
X129992380Y-69318095D02*
X128992380Y-69318095D01*
X128992380Y-68937142D01*
X129040000Y-68841904D01*
X129087619Y-68794285D01*
X129182857Y-68746666D01*
X129325714Y-68746666D01*
X129420952Y-68794285D01*
X129468571Y-68841904D01*
X129516190Y-68937142D01*
X129516190Y-69318095D01*
X128992380Y-68413333D02*
X128992380Y-67794285D01*
X129373333Y-68127619D01*
X129373333Y-67984761D01*
X129420952Y-67889523D01*
X129468571Y-67841904D01*
X129563809Y-67794285D01*
X129801904Y-67794285D01*
X129897142Y-67841904D01*
X129944761Y-67889523D01*
X129992380Y-67984761D01*
X129992380Y-68270476D01*
X129944761Y-68365714D01*
X129897142Y-68413333D01*
G04 #@! TO.C,R4*
X133802380Y-68746666D02*
X133326190Y-69080000D01*
X133802380Y-69318095D02*
X132802380Y-69318095D01*
X132802380Y-68937142D01*
X132850000Y-68841904D01*
X132897619Y-68794285D01*
X132992857Y-68746666D01*
X133135714Y-68746666D01*
X133230952Y-68794285D01*
X133278571Y-68841904D01*
X133326190Y-68937142D01*
X133326190Y-69318095D01*
X133135714Y-67889523D02*
X133802380Y-67889523D01*
X132754761Y-68127619D02*
X133469047Y-68365714D01*
X133469047Y-67746666D01*
G04 #@! TD*
%LPC*%
D12*
G04 #@! TO.C,U1*
X124035001Y-84455001D03*
X124035001Y-86995001D03*
X124035001Y-89535001D03*
X124035001Y-92075001D03*
X124035001Y-94615001D03*
X124035001Y-97155001D03*
X124035001Y-99695001D03*
X124035001Y-102235001D03*
X124035001Y-104775001D03*
X124035001Y-107315001D03*
X124035001Y-109855001D03*
X124035001Y-112395001D03*
X124035001Y-114935001D03*
X124035001Y-117475001D03*
X124035001Y-120015001D03*
X124035001Y-122555001D03*
X124035001Y-125095001D03*
X141815001Y-125095001D03*
X141815001Y-122555001D03*
X141815001Y-120015001D03*
X141815001Y-117475001D03*
X141815001Y-114935001D03*
X141815001Y-112395001D03*
X141815001Y-109855001D03*
X141815001Y-107315001D03*
X141815001Y-104775001D03*
X141815001Y-102235001D03*
X141815001Y-99695001D03*
X141815001Y-97155001D03*
X141815001Y-94615001D03*
X141815001Y-92075001D03*
X141815001Y-89535001D03*
X141815001Y-86995001D03*
X141815001Y-84455001D03*
G04 #@! TD*
D13*
G04 #@! TO.C,J1*
X127090000Y-64460000D03*
X127090000Y-67460000D03*
X127090000Y-71460000D03*
X119290000Y-72560000D03*
D14*
X123190000Y-69860000D03*
X123190000Y-62860000D03*
G04 #@! TD*
D13*
G04 #@! TO.C,J2*
X146140000Y-64460000D03*
X146140000Y-67460000D03*
X146140000Y-71460000D03*
X138340000Y-72560000D03*
D14*
X142240000Y-69860000D03*
X142240000Y-62860000D03*
G04 #@! TD*
D15*
G04 #@! TO.C,R1*
G36*
X131087691Y-62276053D02*
X131108926Y-62279203D01*
X131129750Y-62284419D01*
X131149962Y-62291651D01*
X131169368Y-62300830D01*
X131187781Y-62311866D01*
X131205024Y-62324654D01*
X131220930Y-62339070D01*
X131235346Y-62354976D01*
X131248134Y-62372219D01*
X131259170Y-62390632D01*
X131268349Y-62410038D01*
X131275581Y-62430250D01*
X131280797Y-62451074D01*
X131283947Y-62472309D01*
X131285000Y-62493750D01*
X131285000Y-62931250D01*
X131283947Y-62952691D01*
X131280797Y-62973926D01*
X131275581Y-62994750D01*
X131268349Y-63014962D01*
X131259170Y-63034368D01*
X131248134Y-63052781D01*
X131235346Y-63070024D01*
X131220930Y-63085930D01*
X131205024Y-63100346D01*
X131187781Y-63113134D01*
X131169368Y-63124170D01*
X131149962Y-63133349D01*
X131129750Y-63140581D01*
X131108926Y-63145797D01*
X131087691Y-63148947D01*
X131066250Y-63150000D01*
X130553750Y-63150000D01*
X130532309Y-63148947D01*
X130511074Y-63145797D01*
X130490250Y-63140581D01*
X130470038Y-63133349D01*
X130450632Y-63124170D01*
X130432219Y-63113134D01*
X130414976Y-63100346D01*
X130399070Y-63085930D01*
X130384654Y-63070024D01*
X130371866Y-63052781D01*
X130360830Y-63034368D01*
X130351651Y-63014962D01*
X130344419Y-62994750D01*
X130339203Y-62973926D01*
X130336053Y-62952691D01*
X130335000Y-62931250D01*
X130335000Y-62493750D01*
X130336053Y-62472309D01*
X130339203Y-62451074D01*
X130344419Y-62430250D01*
X130351651Y-62410038D01*
X130360830Y-62390632D01*
X130371866Y-62372219D01*
X130384654Y-62354976D01*
X130399070Y-62339070D01*
X130414976Y-62324654D01*
X130432219Y-62311866D01*
X130450632Y-62300830D01*
X130470038Y-62291651D01*
X130490250Y-62284419D01*
X130511074Y-62279203D01*
X130532309Y-62276053D01*
X130553750Y-62275000D01*
X131066250Y-62275000D01*
X131087691Y-62276053D01*
X131087691Y-62276053D01*
G37*
D16*
X130810000Y-62712500D03*
D15*
G36*
X131087691Y-63851053D02*
X131108926Y-63854203D01*
X131129750Y-63859419D01*
X131149962Y-63866651D01*
X131169368Y-63875830D01*
X131187781Y-63886866D01*
X131205024Y-63899654D01*
X131220930Y-63914070D01*
X131235346Y-63929976D01*
X131248134Y-63947219D01*
X131259170Y-63965632D01*
X131268349Y-63985038D01*
X131275581Y-64005250D01*
X131280797Y-64026074D01*
X131283947Y-64047309D01*
X131285000Y-64068750D01*
X131285000Y-64506250D01*
X131283947Y-64527691D01*
X131280797Y-64548926D01*
X131275581Y-64569750D01*
X131268349Y-64589962D01*
X131259170Y-64609368D01*
X131248134Y-64627781D01*
X131235346Y-64645024D01*
X131220930Y-64660930D01*
X131205024Y-64675346D01*
X131187781Y-64688134D01*
X131169368Y-64699170D01*
X131149962Y-64708349D01*
X131129750Y-64715581D01*
X131108926Y-64720797D01*
X131087691Y-64723947D01*
X131066250Y-64725000D01*
X130553750Y-64725000D01*
X130532309Y-64723947D01*
X130511074Y-64720797D01*
X130490250Y-64715581D01*
X130470038Y-64708349D01*
X130450632Y-64699170D01*
X130432219Y-64688134D01*
X130414976Y-64675346D01*
X130399070Y-64660930D01*
X130384654Y-64645024D01*
X130371866Y-64627781D01*
X130360830Y-64609368D01*
X130351651Y-64589962D01*
X130344419Y-64569750D01*
X130339203Y-64548926D01*
X130336053Y-64527691D01*
X130335000Y-64506250D01*
X130335000Y-64068750D01*
X130336053Y-64047309D01*
X130339203Y-64026074D01*
X130344419Y-64005250D01*
X130351651Y-63985038D01*
X130360830Y-63965632D01*
X130371866Y-63947219D01*
X130384654Y-63929976D01*
X130399070Y-63914070D01*
X130414976Y-63899654D01*
X130432219Y-63886866D01*
X130450632Y-63875830D01*
X130470038Y-63866651D01*
X130490250Y-63859419D01*
X130511074Y-63854203D01*
X130532309Y-63851053D01*
X130553750Y-63850000D01*
X131066250Y-63850000D01*
X131087691Y-63851053D01*
X131087691Y-63851053D01*
G37*
D16*
X130810000Y-64287500D03*
G04 #@! TD*
D15*
G04 #@! TO.C,R2*
G36*
X134897691Y-62276053D02*
X134918926Y-62279203D01*
X134939750Y-62284419D01*
X134959962Y-62291651D01*
X134979368Y-62300830D01*
X134997781Y-62311866D01*
X135015024Y-62324654D01*
X135030930Y-62339070D01*
X135045346Y-62354976D01*
X135058134Y-62372219D01*
X135069170Y-62390632D01*
X135078349Y-62410038D01*
X135085581Y-62430250D01*
X135090797Y-62451074D01*
X135093947Y-62472309D01*
X135095000Y-62493750D01*
X135095000Y-62931250D01*
X135093947Y-62952691D01*
X135090797Y-62973926D01*
X135085581Y-62994750D01*
X135078349Y-63014962D01*
X135069170Y-63034368D01*
X135058134Y-63052781D01*
X135045346Y-63070024D01*
X135030930Y-63085930D01*
X135015024Y-63100346D01*
X134997781Y-63113134D01*
X134979368Y-63124170D01*
X134959962Y-63133349D01*
X134939750Y-63140581D01*
X134918926Y-63145797D01*
X134897691Y-63148947D01*
X134876250Y-63150000D01*
X134363750Y-63150000D01*
X134342309Y-63148947D01*
X134321074Y-63145797D01*
X134300250Y-63140581D01*
X134280038Y-63133349D01*
X134260632Y-63124170D01*
X134242219Y-63113134D01*
X134224976Y-63100346D01*
X134209070Y-63085930D01*
X134194654Y-63070024D01*
X134181866Y-63052781D01*
X134170830Y-63034368D01*
X134161651Y-63014962D01*
X134154419Y-62994750D01*
X134149203Y-62973926D01*
X134146053Y-62952691D01*
X134145000Y-62931250D01*
X134145000Y-62493750D01*
X134146053Y-62472309D01*
X134149203Y-62451074D01*
X134154419Y-62430250D01*
X134161651Y-62410038D01*
X134170830Y-62390632D01*
X134181866Y-62372219D01*
X134194654Y-62354976D01*
X134209070Y-62339070D01*
X134224976Y-62324654D01*
X134242219Y-62311866D01*
X134260632Y-62300830D01*
X134280038Y-62291651D01*
X134300250Y-62284419D01*
X134321074Y-62279203D01*
X134342309Y-62276053D01*
X134363750Y-62275000D01*
X134876250Y-62275000D01*
X134897691Y-62276053D01*
X134897691Y-62276053D01*
G37*
D16*
X134620000Y-62712500D03*
D15*
G36*
X134897691Y-63851053D02*
X134918926Y-63854203D01*
X134939750Y-63859419D01*
X134959962Y-63866651D01*
X134979368Y-63875830D01*
X134997781Y-63886866D01*
X135015024Y-63899654D01*
X135030930Y-63914070D01*
X135045346Y-63929976D01*
X135058134Y-63947219D01*
X135069170Y-63965632D01*
X135078349Y-63985038D01*
X135085581Y-64005250D01*
X135090797Y-64026074D01*
X135093947Y-64047309D01*
X135095000Y-64068750D01*
X135095000Y-64506250D01*
X135093947Y-64527691D01*
X135090797Y-64548926D01*
X135085581Y-64569750D01*
X135078349Y-64589962D01*
X135069170Y-64609368D01*
X135058134Y-64627781D01*
X135045346Y-64645024D01*
X135030930Y-64660930D01*
X135015024Y-64675346D01*
X134997781Y-64688134D01*
X134979368Y-64699170D01*
X134959962Y-64708349D01*
X134939750Y-64715581D01*
X134918926Y-64720797D01*
X134897691Y-64723947D01*
X134876250Y-64725000D01*
X134363750Y-64725000D01*
X134342309Y-64723947D01*
X134321074Y-64720797D01*
X134300250Y-64715581D01*
X134280038Y-64708349D01*
X134260632Y-64699170D01*
X134242219Y-64688134D01*
X134224976Y-64675346D01*
X134209070Y-64660930D01*
X134194654Y-64645024D01*
X134181866Y-64627781D01*
X134170830Y-64609368D01*
X134161651Y-64589962D01*
X134154419Y-64569750D01*
X134149203Y-64548926D01*
X134146053Y-64527691D01*
X134145000Y-64506250D01*
X134145000Y-64068750D01*
X134146053Y-64047309D01*
X134149203Y-64026074D01*
X134154419Y-64005250D01*
X134161651Y-63985038D01*
X134170830Y-63965632D01*
X134181866Y-63947219D01*
X134194654Y-63929976D01*
X134209070Y-63914070D01*
X134224976Y-63899654D01*
X134242219Y-63886866D01*
X134260632Y-63875830D01*
X134280038Y-63866651D01*
X134300250Y-63859419D01*
X134321074Y-63854203D01*
X134342309Y-63851053D01*
X134363750Y-63850000D01*
X134876250Y-63850000D01*
X134897691Y-63851053D01*
X134897691Y-63851053D01*
G37*
D16*
X134620000Y-64287500D03*
G04 #@! TD*
D15*
G04 #@! TO.C,R3*
G36*
X131087691Y-67356053D02*
X131108926Y-67359203D01*
X131129750Y-67364419D01*
X131149962Y-67371651D01*
X131169368Y-67380830D01*
X131187781Y-67391866D01*
X131205024Y-67404654D01*
X131220930Y-67419070D01*
X131235346Y-67434976D01*
X131248134Y-67452219D01*
X131259170Y-67470632D01*
X131268349Y-67490038D01*
X131275581Y-67510250D01*
X131280797Y-67531074D01*
X131283947Y-67552309D01*
X131285000Y-67573750D01*
X131285000Y-68011250D01*
X131283947Y-68032691D01*
X131280797Y-68053926D01*
X131275581Y-68074750D01*
X131268349Y-68094962D01*
X131259170Y-68114368D01*
X131248134Y-68132781D01*
X131235346Y-68150024D01*
X131220930Y-68165930D01*
X131205024Y-68180346D01*
X131187781Y-68193134D01*
X131169368Y-68204170D01*
X131149962Y-68213349D01*
X131129750Y-68220581D01*
X131108926Y-68225797D01*
X131087691Y-68228947D01*
X131066250Y-68230000D01*
X130553750Y-68230000D01*
X130532309Y-68228947D01*
X130511074Y-68225797D01*
X130490250Y-68220581D01*
X130470038Y-68213349D01*
X130450632Y-68204170D01*
X130432219Y-68193134D01*
X130414976Y-68180346D01*
X130399070Y-68165930D01*
X130384654Y-68150024D01*
X130371866Y-68132781D01*
X130360830Y-68114368D01*
X130351651Y-68094962D01*
X130344419Y-68074750D01*
X130339203Y-68053926D01*
X130336053Y-68032691D01*
X130335000Y-68011250D01*
X130335000Y-67573750D01*
X130336053Y-67552309D01*
X130339203Y-67531074D01*
X130344419Y-67510250D01*
X130351651Y-67490038D01*
X130360830Y-67470632D01*
X130371866Y-67452219D01*
X130384654Y-67434976D01*
X130399070Y-67419070D01*
X130414976Y-67404654D01*
X130432219Y-67391866D01*
X130450632Y-67380830D01*
X130470038Y-67371651D01*
X130490250Y-67364419D01*
X130511074Y-67359203D01*
X130532309Y-67356053D01*
X130553750Y-67355000D01*
X131066250Y-67355000D01*
X131087691Y-67356053D01*
X131087691Y-67356053D01*
G37*
D16*
X130810000Y-67792500D03*
D15*
G36*
X131087691Y-68931053D02*
X131108926Y-68934203D01*
X131129750Y-68939419D01*
X131149962Y-68946651D01*
X131169368Y-68955830D01*
X131187781Y-68966866D01*
X131205024Y-68979654D01*
X131220930Y-68994070D01*
X131235346Y-69009976D01*
X131248134Y-69027219D01*
X131259170Y-69045632D01*
X131268349Y-69065038D01*
X131275581Y-69085250D01*
X131280797Y-69106074D01*
X131283947Y-69127309D01*
X131285000Y-69148750D01*
X131285000Y-69586250D01*
X131283947Y-69607691D01*
X131280797Y-69628926D01*
X131275581Y-69649750D01*
X131268349Y-69669962D01*
X131259170Y-69689368D01*
X131248134Y-69707781D01*
X131235346Y-69725024D01*
X131220930Y-69740930D01*
X131205024Y-69755346D01*
X131187781Y-69768134D01*
X131169368Y-69779170D01*
X131149962Y-69788349D01*
X131129750Y-69795581D01*
X131108926Y-69800797D01*
X131087691Y-69803947D01*
X131066250Y-69805000D01*
X130553750Y-69805000D01*
X130532309Y-69803947D01*
X130511074Y-69800797D01*
X130490250Y-69795581D01*
X130470038Y-69788349D01*
X130450632Y-69779170D01*
X130432219Y-69768134D01*
X130414976Y-69755346D01*
X130399070Y-69740930D01*
X130384654Y-69725024D01*
X130371866Y-69707781D01*
X130360830Y-69689368D01*
X130351651Y-69669962D01*
X130344419Y-69649750D01*
X130339203Y-69628926D01*
X130336053Y-69607691D01*
X130335000Y-69586250D01*
X130335000Y-69148750D01*
X130336053Y-69127309D01*
X130339203Y-69106074D01*
X130344419Y-69085250D01*
X130351651Y-69065038D01*
X130360830Y-69045632D01*
X130371866Y-69027219D01*
X130384654Y-69009976D01*
X130399070Y-68994070D01*
X130414976Y-68979654D01*
X130432219Y-68966866D01*
X130450632Y-68955830D01*
X130470038Y-68946651D01*
X130490250Y-68939419D01*
X130511074Y-68934203D01*
X130532309Y-68931053D01*
X130553750Y-68930000D01*
X131066250Y-68930000D01*
X131087691Y-68931053D01*
X131087691Y-68931053D01*
G37*
D16*
X130810000Y-69367500D03*
G04 #@! TD*
D15*
G04 #@! TO.C,R4*
G36*
X134897691Y-67356053D02*
X134918926Y-67359203D01*
X134939750Y-67364419D01*
X134959962Y-67371651D01*
X134979368Y-67380830D01*
X134997781Y-67391866D01*
X135015024Y-67404654D01*
X135030930Y-67419070D01*
X135045346Y-67434976D01*
X135058134Y-67452219D01*
X135069170Y-67470632D01*
X135078349Y-67490038D01*
X135085581Y-67510250D01*
X135090797Y-67531074D01*
X135093947Y-67552309D01*
X135095000Y-67573750D01*
X135095000Y-68011250D01*
X135093947Y-68032691D01*
X135090797Y-68053926D01*
X135085581Y-68074750D01*
X135078349Y-68094962D01*
X135069170Y-68114368D01*
X135058134Y-68132781D01*
X135045346Y-68150024D01*
X135030930Y-68165930D01*
X135015024Y-68180346D01*
X134997781Y-68193134D01*
X134979368Y-68204170D01*
X134959962Y-68213349D01*
X134939750Y-68220581D01*
X134918926Y-68225797D01*
X134897691Y-68228947D01*
X134876250Y-68230000D01*
X134363750Y-68230000D01*
X134342309Y-68228947D01*
X134321074Y-68225797D01*
X134300250Y-68220581D01*
X134280038Y-68213349D01*
X134260632Y-68204170D01*
X134242219Y-68193134D01*
X134224976Y-68180346D01*
X134209070Y-68165930D01*
X134194654Y-68150024D01*
X134181866Y-68132781D01*
X134170830Y-68114368D01*
X134161651Y-68094962D01*
X134154419Y-68074750D01*
X134149203Y-68053926D01*
X134146053Y-68032691D01*
X134145000Y-68011250D01*
X134145000Y-67573750D01*
X134146053Y-67552309D01*
X134149203Y-67531074D01*
X134154419Y-67510250D01*
X134161651Y-67490038D01*
X134170830Y-67470632D01*
X134181866Y-67452219D01*
X134194654Y-67434976D01*
X134209070Y-67419070D01*
X134224976Y-67404654D01*
X134242219Y-67391866D01*
X134260632Y-67380830D01*
X134280038Y-67371651D01*
X134300250Y-67364419D01*
X134321074Y-67359203D01*
X134342309Y-67356053D01*
X134363750Y-67355000D01*
X134876250Y-67355000D01*
X134897691Y-67356053D01*
X134897691Y-67356053D01*
G37*
D16*
X134620000Y-67792500D03*
D15*
G36*
X134897691Y-68931053D02*
X134918926Y-68934203D01*
X134939750Y-68939419D01*
X134959962Y-68946651D01*
X134979368Y-68955830D01*
X134997781Y-68966866D01*
X135015024Y-68979654D01*
X135030930Y-68994070D01*
X135045346Y-69009976D01*
X135058134Y-69027219D01*
X135069170Y-69045632D01*
X135078349Y-69065038D01*
X135085581Y-69085250D01*
X135090797Y-69106074D01*
X135093947Y-69127309D01*
X135095000Y-69148750D01*
X135095000Y-69586250D01*
X135093947Y-69607691D01*
X135090797Y-69628926D01*
X135085581Y-69649750D01*
X135078349Y-69669962D01*
X135069170Y-69689368D01*
X135058134Y-69707781D01*
X135045346Y-69725024D01*
X135030930Y-69740930D01*
X135015024Y-69755346D01*
X134997781Y-69768134D01*
X134979368Y-69779170D01*
X134959962Y-69788349D01*
X134939750Y-69795581D01*
X134918926Y-69800797D01*
X134897691Y-69803947D01*
X134876250Y-69805000D01*
X134363750Y-69805000D01*
X134342309Y-69803947D01*
X134321074Y-69800797D01*
X134300250Y-69795581D01*
X134280038Y-69788349D01*
X134260632Y-69779170D01*
X134242219Y-69768134D01*
X134224976Y-69755346D01*
X134209070Y-69740930D01*
X134194654Y-69725024D01*
X134181866Y-69707781D01*
X134170830Y-69689368D01*
X134161651Y-69669962D01*
X134154419Y-69649750D01*
X134149203Y-69628926D01*
X134146053Y-69607691D01*
X134145000Y-69586250D01*
X134145000Y-69148750D01*
X134146053Y-69127309D01*
X134149203Y-69106074D01*
X134154419Y-69085250D01*
X134161651Y-69065038D01*
X134170830Y-69045632D01*
X134181866Y-69027219D01*
X134194654Y-69009976D01*
X134209070Y-68994070D01*
X134224976Y-68979654D01*
X134242219Y-68966866D01*
X134260632Y-68955830D01*
X134280038Y-68946651D01*
X134300250Y-68939419D01*
X134321074Y-68934203D01*
X134342309Y-68931053D01*
X134363750Y-68930000D01*
X134876250Y-68930000D01*
X134897691Y-68931053D01*
X134897691Y-68931053D01*
G37*
D16*
X134620000Y-69367500D03*
G04 #@! TD*
M02*
