M48
;DRILL file {KiCad 5.0.1-33cea8e~66~ubuntu18.04.1} date 2018年10月13日 22時08分05秒
;FORMAT={-:-/ absolute / metric / decimal}
FMAT,2
METRIC,TZ
T1C0.400
T2C0.762
T3C0.850
T4C1.524
%
G90
G05
M71
T1
X123.19Y-64.77
X137.16Y-67.31
X139.7Y-68.58
T2
X141.815Y-120.015
T3
X124.035Y-84.455
X124.035Y-86.995
X124.035Y-89.535
X124.035Y-92.075
X124.035Y-94.615
X124.035Y-97.155
X124.035Y-99.695
X124.035Y-102.235
X124.035Y-104.775
X124.035Y-107.315
X124.035Y-109.855
X124.035Y-112.395
X124.035Y-114.935
X124.035Y-117.475
X124.035Y-120.015
X124.035Y-122.555
X124.035Y-125.095
X141.815Y-84.455
X141.815Y-86.995
X141.815Y-89.535
X141.815Y-92.075
X141.815Y-94.615
X141.815Y-97.155
X141.815Y-99.695
X141.815Y-102.235
X141.815Y-104.775
X141.815Y-107.315
X141.815Y-109.855
X141.815Y-112.395
X141.815Y-114.935
X141.815Y-117.475
X141.815Y-122.555
X141.815Y-125.095
T4
X142.24Y-62.86
X142.24Y-69.86
X123.19Y-62.86
X123.19Y-69.86
T0
M30
