M48
;DRILL file {KiCad 5.0.2-bee76a0~70~ubuntu18.04.1} date 2018年12月19日 04時15分07秒
;FORMAT={-:-/ absolute / metric / decimal}
FMAT,2
METRIC,TZ
T1C0.400
T2C0.762
T3C0.850
T4C0.950
%
G90
G05
T1
X121.285Y-65.405
X121.285Y-68.58
X127.635Y-69.85
X129.54Y-67.945
X144.145Y-66.04
X144.145Y-69.85
T2
X141.815Y-120.015
T3
X124.035Y-84.455
X124.035Y-86.995
X124.035Y-89.535
X124.035Y-92.075
X124.035Y-94.615
X124.035Y-97.155
X124.035Y-99.695
X124.035Y-102.235
X124.035Y-104.775
X124.035Y-107.315
X124.035Y-109.855
X124.035Y-112.395
X124.035Y-114.935
X124.035Y-117.475
X124.035Y-120.015
X124.035Y-122.555
X124.035Y-125.095
X141.815Y-84.455
X141.815Y-86.995
X141.815Y-89.535
X141.815Y-92.075
X141.815Y-94.615
X141.815Y-97.155
X141.815Y-99.695
X141.815Y-102.235
X141.815Y-104.775
X141.815Y-107.315
X141.815Y-109.855
X141.815Y-112.395
X141.815Y-114.935
X141.815Y-117.475
X141.815Y-122.555
X141.815Y-125.095
T4
X123.19Y-62.86
X123.19Y-69.86
X142.24Y-62.86
X142.24Y-69.86
T0
M30
