G04 #@! TF.GenerationSoftware,KiCad,Pcbnew,5.0.1-33cea8e~66~ubuntu18.04.1*
G04 #@! TF.CreationDate,2018-10-13T22:06:55+09:00*
G04 #@! TF.ProjectId,pendant,70656E64616E742E6B696361645F7063,rev?*
G04 #@! TF.SameCoordinates,Original*
G04 #@! TF.FileFunction,Legend,Top*
G04 #@! TF.FilePolarity,Positive*
%FSLAX46Y46*%
G04 Gerber Fmt 4.6, Leading zero omitted, Abs format (unit mm)*
G04 Created by KiCad (PCBNEW 5.0.1-33cea8e~66~ubuntu18.04.1) date 2018年10月13日 22時06分55秒*
%MOMM*%
%LPD*%
G01*
G04 APERTURE LIST*
%ADD10C,0.150000*%
%ADD11C,1.524000*%
%ADD12R,2.000000X1.200000*%
G04 APERTURE END LIST*
D10*
G04 #@! TO.C,J1*
X126240000Y-61260000D02*
X126240000Y-73360000D01*
X126240000Y-73360000D02*
X120140000Y-73360000D01*
X120140000Y-73360000D02*
X120140000Y-61260000D01*
X120140000Y-61260000D02*
X126240000Y-61260000D01*
X125730000Y-61260000D02*
X125730000Y-59260000D01*
X125730000Y-59260000D02*
X120650000Y-59260000D01*
X120650000Y-59260000D02*
X120650000Y-61260000D01*
G04 #@! TO.C,J2*
X139700000Y-59260000D02*
X139700000Y-61260000D01*
X144780000Y-59260000D02*
X139700000Y-59260000D01*
X144780000Y-61260000D02*
X144780000Y-59260000D01*
X139190000Y-61260000D02*
X145290000Y-61260000D01*
X139190000Y-73360000D02*
X139190000Y-61260000D01*
X145290000Y-73360000D02*
X139190000Y-73360000D01*
X145290000Y-61260000D02*
X145290000Y-73360000D01*
G04 #@! TO.C,U1*
X145125001Y-76275001D02*
X145125001Y-133275001D01*
X120725001Y-76275001D02*
X120725001Y-133275001D01*
X120725001Y-133275001D02*
X145125001Y-133275001D01*
X120725001Y-76275001D02*
X145125001Y-76275001D01*
G04 #@! TO.C,J1*
X116292380Y-67643333D02*
X117006666Y-67643333D01*
X117149523Y-67690952D01*
X117244761Y-67786190D01*
X117292380Y-67929047D01*
X117292380Y-68024285D01*
X117292380Y-66643333D02*
X117292380Y-67214761D01*
X117292380Y-66929047D02*
X116292380Y-66929047D01*
X116435238Y-67024285D01*
X116530476Y-67119523D01*
X116578095Y-67214761D01*
G04 #@! TO.C,J2*
X135342380Y-67643333D02*
X136056666Y-67643333D01*
X136199523Y-67690952D01*
X136294761Y-67786190D01*
X136342380Y-67929047D01*
X136342380Y-68024285D01*
X135437619Y-67214761D02*
X135390000Y-67167142D01*
X135342380Y-67071904D01*
X135342380Y-66833809D01*
X135390000Y-66738571D01*
X135437619Y-66690952D01*
X135532857Y-66643333D01*
X135628095Y-66643333D01*
X135770952Y-66690952D01*
X136342380Y-67262380D01*
X136342380Y-66643333D01*
G04 #@! TO.C,U1*
X132163096Y-135977381D02*
X132163096Y-136786905D01*
X132210715Y-136882143D01*
X132258334Y-136929762D01*
X132353572Y-136977381D01*
X132544048Y-136977381D01*
X132639286Y-136929762D01*
X132686905Y-136882143D01*
X132734524Y-136786905D01*
X132734524Y-135977381D01*
X133734524Y-136977381D02*
X133163096Y-136977381D01*
X133448810Y-136977381D02*
X133448810Y-135977381D01*
X133353572Y-136120239D01*
X133258334Y-136215477D01*
X133163096Y-136263096D01*
X131663096Y-130897381D02*
X131663096Y-131706905D01*
X131710715Y-131802143D01*
X131758334Y-131849762D01*
X131853572Y-131897381D01*
X132044048Y-131897381D01*
X132139286Y-131849762D01*
X132186905Y-131802143D01*
X132234524Y-131706905D01*
X132234524Y-130897381D01*
X132663096Y-131849762D02*
X132805953Y-131897381D01*
X133044048Y-131897381D01*
X133139286Y-131849762D01*
X133186905Y-131802143D01*
X133234524Y-131706905D01*
X133234524Y-131611667D01*
X133186905Y-131516429D01*
X133139286Y-131468810D01*
X133044048Y-131421191D01*
X132853572Y-131373572D01*
X132758334Y-131325953D01*
X132710715Y-131278334D01*
X132663096Y-131183096D01*
X132663096Y-131087858D01*
X132710715Y-130992620D01*
X132758334Y-130945001D01*
X132853572Y-130897381D01*
X133091667Y-130897381D01*
X133234524Y-130945001D01*
X133996429Y-131373572D02*
X134139286Y-131421191D01*
X134186905Y-131468810D01*
X134234524Y-131564048D01*
X134234524Y-131706905D01*
X134186905Y-131802143D01*
X134139286Y-131849762D01*
X134044048Y-131897381D01*
X133663096Y-131897381D01*
X133663096Y-130897381D01*
X133996429Y-130897381D01*
X134091667Y-130945001D01*
X134139286Y-130992620D01*
X134186905Y-131087858D01*
X134186905Y-131183096D01*
X134139286Y-131278334D01*
X134091667Y-131325953D01*
X133996429Y-131373572D01*
X133663096Y-131373572D01*
G04 #@! TD*
%LPC*%
D11*
G04 #@! TO.C,J1*
X123190000Y-62860000D03*
X123190000Y-69860000D03*
D12*
X119890000Y-72560000D03*
X126490000Y-71460000D03*
X126490000Y-67460000D03*
X126490000Y-64460000D03*
G04 #@! TD*
G04 #@! TO.C,J2*
X145540000Y-64460000D03*
X145540000Y-67460000D03*
X145540000Y-71460000D03*
X138940000Y-72560000D03*
D11*
X142240000Y-69860000D03*
X142240000Y-62860000D03*
G04 #@! TD*
G04 #@! TO.C,U1*
X124035001Y-84455001D03*
X124035001Y-86995001D03*
X124035001Y-89535001D03*
X124035001Y-92075001D03*
X124035001Y-94615001D03*
X124035001Y-97155001D03*
X124035001Y-99695001D03*
X124035001Y-102235001D03*
X124035001Y-104775001D03*
X124035001Y-107315001D03*
X124035001Y-109855001D03*
X124035001Y-112395001D03*
X124035001Y-114935001D03*
X124035001Y-117475001D03*
X124035001Y-120015001D03*
X124035001Y-122555001D03*
X124035001Y-125095001D03*
X141815001Y-125095001D03*
X141815001Y-122555001D03*
X141815001Y-120015001D03*
X141815001Y-117475001D03*
X141815001Y-114935001D03*
X141815001Y-112395001D03*
X141815001Y-109855001D03*
X141815001Y-107315001D03*
X141815001Y-104775001D03*
X141815001Y-102235001D03*
X141815001Y-99695001D03*
X141815001Y-97155001D03*
X141815001Y-94615001D03*
X141815001Y-92075001D03*
X141815001Y-89535001D03*
X141815001Y-86995001D03*
X141815001Y-84455001D03*
G04 #@! TD*
M02*
